<?xml version="1.0" encoding="UTF-8"?>
<svg xmlns="http://www.w3.org/2000/svg" id="Layer_1" data-name="Layer 1" viewBox="0 0 360 360">
  <defs>
    <style>
      .cls-1 {
        fill: #2d61f2;
      }

      .cls-2 {
        fill: #555757;
      }
    </style>
  </defs>
  <path class="cls-2" d="m182.59,300.01c-4.89-1.05-9.57-2.58-13.66-5.63-10.02-7.49-14.09-20.2-10.08-31.83,4.07-11.8,15.22-19.47,27.87-19.15,12,.3,22.83,8.74,26.24,20.45.19.65.38,1.3.56,1.95,10.84,2.14,30.45-7.63,36.84-18.65-1.98,0-3.73.02-5.48,0-4.03-.06-6.09-2.14-6.09-6.2,0-23.1-.02-46.21.03-69.31,0-1.47.3-3.02.82-4.39.81-2.15,2.42-3.38,4.88-3.28,1.79.07,3.59.01,5.25.01.22-.34.37-.46.37-.59.53-14.63.16-29.06-6.19-42.77-12.3-26.56-39.56-42.91-68.77-40.88-33.49,2.32-60.51,27.44-64.9,60.82-1,7.59-.66,15.35-.96,23.42,2.09,0,3.78,0,5.48,0,3.52.02,5.59,1.8,6.09,5.33.15,1.04.12,2.11.12,3.16,0,22.73,0,45.45,0,68.18,0,4.58-1.86,6.48-6.44,6.49-7.02,0-14.05.19-21.06-.12-11.46-.5-20.85-9.75-21.11-21.15-.3-13.2-.25-26.43.03-39.63.23-11.08,9.6-22.84,23.29-22.26.67.03,1.34,0,2.39,0,0-1.12,0-2.07,0-3.01.08-8.82-.41-17.67,1.44-26.4,5.99-28.32,22.11-48.76,48.68-60.02,44.59-18.89,94.83,4.58,109.68,50.61,2.9,9,3.96,18.25,3.87,27.67-.04,3.61,0,7.23,0,11.05,4.57.09,8.59,1.41,12.03,4.22,6.55,5.35,10.37,12.37,10.65,20.7.44,12.9.35,25.82.12,38.72-.17,9.74-6.2,16.74-15.84,18.39-3.35.58-5.23,2.06-6.94,4.75-8.75,13.74-21.18,22.29-37.14,25.54-3.6.73-7.31.95-11.15,1.42-1.71,8.82-6.81,15.34-14.99,19.25-3.02,1.44-6.4,2.11-9.61,3.14h-6.34Zm-73.12-64.37v-60.22c-4.52,0-8.89,0-13.25,0-7.29,0-12.32,4.74-12.38,12.04-.12,12.52-.09,25.04-.01,37.56.04,5.44,4.47,10.26,9.9,10.56,5.18.28,10.39.06,15.75.06Zm140.97-60.2v60.17c4.69,0,9.22.25,13.72-.06,5.73-.39,9.02-3.59,9.05-8.48.06-12.29.1-24.59-.03-36.88-.05-4.51-1.67-8.66-4.94-11.81-1.42-1.37-3.52-2.61-5.43-2.81-4.02-.43-8.12-.13-12.37-.13Zm-47.84,96.63c-.05-9.94-7.35-17.43-16.96-17.4-9.31.03-16.99,7.7-16.86,16.84.14,9.28,8.21,17.18,17.4,17.02,9.09-.16,16.46-7.55,16.42-16.46Z"></path>
  <path class="cls-1" d="m109.47,235.65c-5.36,0-10.57.22-15.75-.06-5.44-.3-9.87-5.12-9.9-10.56-.08-12.52-.1-25.04.01-37.56.07-7.3,5.1-12.03,12.38-12.04,4.37,0,8.73,0,13.25,0v60.22Z"></path>
  <path class="cls-1" d="m250.44,175.45c4.25,0,8.35-.3,12.37.13,1.91.2,4.01,1.44,5.43,2.81,3.27,3.15,4.89,7.3,4.94,11.81.13,12.29.09,24.59.03,36.88-.03,4.89-3.32,8.08-9.05,8.48-4.5.31-9.04.06-13.72.06v-60.17Z"></path>
  <path class="cls-1" d="m202.6,272.08c.04,8.91-7.33,16.3-16.42,16.46-9.19.16-17.27-7.74-17.4-17.02-.13-9.13,7.55-16.81,16.86-16.84,9.61-.03,16.91,7.47,16.96,17.4Z"></path>
</svg>
