<svg width="32" height="32" viewBox="0 0 32 32" fill="none" xmlns="http://www.w3.org/2000/svg">
<mask id="mask0_16285_37034" style="mask-type:alpha" maskUnits="userSpaceOnUse" x="0" y="0" width="32" height="32">
<rect width="32" height="32" fill="#D9D9D9"/>
</mask>
<g mask="url(#mask0_16285_37034)">
<path d="M14.6667 28.967L5.33333 23.6003C4.91111 23.3559 4.58333 23.0337 4.35 22.6337C4.11667 22.2337 4 21.7892 4 21.3003V10.7003C4 10.2114 4.11667 9.76699 4.35 9.36699C4.58333 8.96699 4.91111 8.64477 5.33333 8.40033L14.6667 3.03366C15.0889 2.78921 15.5333 2.66699 16 2.66699C16.4667 2.66699 16.9111 2.78921 17.3333 3.03366L26.6667 8.40033C27.0889 8.64477 27.4167 8.96699 27.65 9.36699C27.8833 9.76699 28 10.2114 28 10.7003V21.3003C28 21.7892 27.8833 22.2337 27.65 22.6337C27.4167 23.0337 27.0889 23.3559 26.6667 23.6003L17.3333 28.967C16.9111 29.2114 16.4667 29.3337 16 29.3337C15.5333 29.3337 15.0889 29.2114 14.6667 28.967ZM14.6667 16.767V25.9003L16 26.667L17.3333 25.9003V16.767L25.3333 12.1337V10.7337L23.9 9.90033L16 14.467L8.1 9.90033L6.66667 10.7337V12.1337L14.6667 16.767Z" fill="white"/>
</g>
</svg>
