<svg width="79" height="42" viewBox="0 0 79 42" fill="none" xmlns="http://www.w3.org/2000/svg">
<g clip-path="url(#clip0_19043_3189)">
<path fill-rule="evenodd" clip-rule="evenodd" d="M71.8723 21.1722C71.8045 21.0272 71.774 20.9543 71.7374 20.8847C70.7564 19.0185 69.7779 17.1523 68.7868 15.2861C68.6875 15.099 68.7001 14.9886 68.836 14.8272C70.3971 13.0039 71.9379 11.1705 73.5015 9.35473C73.5567 9.29068 73.6059 9.22284 73.6265 9.1086C73.1726 9.22688 72.7187 9.34389 72.2622 9.46418C70.3784 9.96351 68.4794 10.4603 66.6133 10.9672C66.438 11.0144 66.3585 10.9632 66.2703 10.8174C65.201 9.02941 64.1242 7.23637 63.0423 5.47107C62.9871 5.37852 62.9268 5.28874 62.8088 5.21132C62.722 5.68795 62.6343 6.16206 62.549 6.63869C62.2489 8.32077 61.9488 9.99276 61.6512 11.6824C61.6187 11.8637 61.5743 12.0456 61.5587 12.2271C61.5438 12.4006 61.4543 12.4647 61.2964 12.5146C59.0747 13.2132 56.8579 13.9168 54.6387 14.6204C54.5414 14.6509 54.4458 14.6912 54.3411 14.7858C56.1569 15.5071 57.9726 16.2283 59.8136 16.9622C59.7465 17.0154 59.7021 17.0567 59.6529 17.0883C58.5181 17.8221 57.3807 18.556 56.2484 19.2924C56.1125 19.3811 56.005 19.3938 55.8525 19.3249C54.4957 18.7146 53.1289 18.1144 51.7671 17.5092C51.1568 17.2368 50.6095 16.8762 50.1833 16.3516C49.2175 15.1714 49.4091 13.8298 50.6953 12.9976C51.1164 12.7277 51.5956 12.5285 52.0722 12.3721C54.2486 11.6635 56.435 10.9801 58.6038 10.2941C58.7869 10.2359 58.8711 10.1542 58.9064 9.9562C59.199 8.2716 59.4991 6.57691 59.8042 4.91248C59.9666 4.01217 60.0524 3.0917 60.4902 2.26453C60.6579 1.94677 60.8584 1.63658 61.1005 1.37179C61.968 0.408437 63.176 0.373131 64.1015 1.28907C64.4117 1.59926 64.6765 1.96241 64.906 2.33816C65.9147 3.98494 66.9083 5.6418 67.907 7.30623C68.0242 7.50218 68.1296 7.54152 68.3458 7.48452C70.7794 6.83136 73.213 6.18829 75.6592 5.54521C76.1635 5.41231 76.6704 5.36414 77.1874 5.46073C78.3096 5.67055 78.8014 6.52496 78.4206 7.61188C78.2484 8.10616 77.949 8.52227 77.6136 8.9182C75.9139 10.918 74.2091 12.928 72.5195 14.9202C72.3805 15.0836 72.3777 15.2002 72.4741 15.3842C73.4929 17.3034 74.5016 19.2175 75.5255 21.1593C75.7679 21.6183 75.9542 22.0974 75.9593 22.6245C75.9711 23.8249 75.0917 24.8084 73.8989 24.985C73.2306 25.0826 72.6102 24.9398 71.9823 24.7467C70.4566 24.2751 68.9308 23.811 67.3925 23.3495C67.2505 23.3072 67.1963 23.2509 67.1708 23.0984C66.9953 22.0215 66.8026 20.9472 66.616 19.8704C66.6112 19.8409 66.6201 19.8094 66.6251 19.7433C68.3677 20.225 70.1053 20.6991 71.8958 21.1959" fill="#E25A1C"/>
<path fill-rule="evenodd" clip-rule="evenodd" d="M68.8439 36.9341C67.467 36.9321 66.0951 36.9253 64.7081 36.9313C64.5257 36.9313 64.4231 36.8791 64.3222 36.7243C62.6931 34.2428 61.0438 31.7562 59.4298 29.2848C59.3776 29.2061 59.3224 29.1302 59.2298 28.9973C58.8793 31.6705 58.5338 34.2932 58.1883 36.916H54.582C54.6244 36.5654 54.662 36.225 54.7064 35.887C55.0569 33.1887 55.4125 30.5155 55.7655 27.8171C56.1035 25.2448 56.4389 22.6725 56.7818 20.1002C56.7917 20.0243 56.8429 19.9267 56.9049 19.8863C58.1457 19.0768 59.3915 18.2749 60.6373 17.4729C60.6552 17.4611 60.6806 17.4601 60.7447 17.4414C60.3689 20.3163 59.9957 23.166 59.6199 26.0157C59.6348 26.0256 59.6495 26.0364 59.6643 26.0462C61.6188 23.8825 63.5732 21.7086 65.5655 19.5146C65.6227 19.8475 65.6729 20.1325 65.7221 20.4175C65.8621 21.232 65.997 22.0516 66.1458 22.8662C66.1763 23.0306 66.1319 23.131 66.0227 23.247C64.7592 24.5684 63.5008 25.8949 62.2399 27.2315C62.1847 27.2898 62.1325 27.3498 62.0694 27.4189C62.1098 27.4827 62.1443 27.545 62.1847 27.602C64.356 30.6534 66.5223 33.7049 68.6911 36.7563C68.7304 36.8116 68.7874 36.8549 68.8358 36.9041V36.9523" fill="white"/>
<path fill-rule="evenodd" clip-rule="evenodd" d="M26.224 28.8644C26.1688 28.5845 26.1295 28.1709 26.0044 27.7851C25.3991 25.9214 23.4901 24.9101 21.5155 25.3616C19.3442 25.8659 17.7831 27.5732 17.5814 29.8C17.4149 31.4392 18.2976 33.028 19.9368 33.608C21.2583 34.0847 22.5343 33.8854 23.7196 33.1768C25.2857 32.2387 26.133 30.8441 26.2415 28.8644H26.224ZM16.6914 35.7995C16.585 36.6015 16.4826 37.3555 16.3838 38.1121C16.2519 39.1158 16.119 40.122 15.9929 41.1383C15.9782 41.2556 15.9427 41.3078 15.8166 41.3068C14.8255 41.303 13.8344 41.304 12.8408 41.302C12.8181 41.302 12.7954 41.2901 12.7422 41.2745C12.8022 40.8004 12.8605 40.3237 12.9225 39.8496C13.1411 38.1852 13.3588 36.5208 13.5807 34.8564C13.8354 32.9498 14.0346 31.0483 14.36 29.157C14.9349 25.8029 17.7897 22.928 21.1185 22.1966C23.0528 21.778 24.9013 21.9719 26.591 23.0616C28.2756 24.146 29.2389 25.7348 29.4659 27.7018C29.7786 30.5011 28.7472 32.8212 26.7675 34.763C25.4612 36.0265 23.8926 36.8285 22.1021 37.1008C20.2435 37.3807 18.4958 37.0713 16.9323 35.9761C16.875 35.9357 16.813 35.9004 16.7146 35.8384" fill="white"/>
<path fill-rule="evenodd" clip-rule="evenodd" d="M15.0263 19.9136C13.9167 20.7408 12.8449 21.5377 11.7731 22.3371C11.5999 22.0648 11.4453 21.7924 11.2637 21.5377C10.7972 20.8846 10.2171 20.3978 9.37484 20.3398C8.67376 20.2904 8.07356 20.5209 7.59693 21.0384C7.17073 21.4999 7.11525 22.1581 7.5132 22.6801C7.95201 23.2551 8.43116 23.7998 8.92292 24.3319C9.73748 25.2146 10.5874 26.0619 11.3943 26.9547C12.1282 27.7617 12.7158 28.6645 12.8974 29.7792C13.1132 31.0905 12.8512 32.3262 12.2316 33.4863C11.0842 35.6173 9.28103 36.8656 6.88526 37.2439C5.83112 37.4141 4.78203 37.3808 3.75815 37.0782C2.39383 36.6772 1.44309 35.7819 0.832797 34.5311C0.617177 34.0847 0.451996 33.6131 0.257812 33.134C1.45065 32.496 2.61323 31.8731 3.78842 31.2451C3.82877 31.3427 3.85827 31.4244 3.89585 31.5023C4.09684 31.9033 4.26152 32.3295 4.50866 32.7002C5.24756 33.7972 6.43788 34.1301 7.63577 33.5879C7.94595 33.448 8.24606 33.2525 8.50076 33.0255C9.2775 32.3345 9.42376 31.3712 8.84878 30.5037C8.51842 30.0044 8.10483 29.5555 7.70133 29.1091C6.73798 28.0398 5.73428 27.0033 4.8012 25.9063C4.15308 25.1548 3.71175 24.2823 3.57053 23.2836C3.41795 22.1841 3.63761 21.1501 4.20856 20.2321C5.62837 17.9347 7.68872 16.752 10.4123 16.8276C11.9683 16.8839 13.2116 17.6119 14.1699 18.8224C14.4549 19.1805 14.7222 19.5512 15.0122 19.9396" fill="white"/>
<path fill-rule="evenodd" clip-rule="evenodd" d="M41.3587 32.145C41.1774 33.5295 41.0056 34.8434 40.8291 36.1548C40.8193 36.2218 40.7671 36.3124 40.7108 36.3381C38.0125 37.5839 34.4818 37.4099 32.2878 34.9032C31.1026 33.5565 30.6057 31.9526 30.6789 30.1873C30.8511 26.0767 34.2599 22.4704 38.3453 21.966C40.7285 21.6735 42.809 22.3166 44.423 24.1701C45.5226 25.4311 46.032 26.9442 45.9563 28.6086C45.9071 29.7081 45.7346 30.8001 45.5982 31.887C45.404 33.4354 45.1922 34.9889 44.9879 36.5272C44.9801 36.5812 44.9693 36.6364 44.9564 36.7065H41.7536C41.796 36.351 41.8353 36.0029 41.8807 35.6549C42.1132 33.8669 42.37 32.0739 42.5742 30.2834C42.7013 29.1687 42.6214 28.0616 42.1102 27.0302C41.568 25.9332 40.6602 25.3506 39.4623 25.2245C36.9858 24.9622 34.6203 26.6822 34.1159 29.1082C33.7679 30.7171 34.3169 32.2605 35.5988 33.1179C36.8471 33.9476 38.1711 33.9502 39.5329 33.413C40.2239 33.1406 40.8089 32.7069 41.3688 32.1243" fill="white"/>
<path fill-rule="evenodd" clip-rule="evenodd" d="M54.9725 22.3842C54.8257 23.4988 54.68 24.5959 54.5337 25.713C53.8528 25.713 53.187 25.7093 52.5213 25.714C51.9816 25.7181 51.4898 26.0671 51.3259 26.5715C51.2628 26.7684 51.2394 26.98 51.2117 27.1868C50.8737 29.7591 50.5383 32.3062 50.2029 34.8533C50.1182 35.4989 50.0365 36.1445 49.9517 36.8001H46.5977C46.6597 36.3084 46.7187 35.8318 46.7807 35.3551C46.9984 33.6957 47.217 32.0263 47.4364 30.3871C47.6266 28.9521 47.7971 27.5121 48.0215 26.0747C48.3216 24.1581 50.2281 22.4432 52.1574 22.3675C53.0804 22.3272 54.0059 22.3607 54.9566 22.3607" fill="white"/>
<path d="M72.8805 36.9344V35.5221H72.8727L72.3179 36.9344H72.1416L71.5868 35.5221H71.5779V36.9344H71.3005V35.2422H71.7318L72.2361 36.5283L72.7329 35.2422H73.1617V36.9344H72.8805ZM70.4242 35.4692V36.9344H70.1468V35.4692H69.6172V35.2424H70.9563V35.4692H70.4267" fill="white"/>
<path d="M19.4922 17.5427H20.3219L20.1257 16.2868L19.4922 17.5427ZM20.453 18.3547H19.0735L18.6347 19.2147H17.6562L19.8124 15.1797H20.7556L21.4895 19.2147H20.5841L20.454 18.3547" fill="white"/>
<path d="M25.3909 16.0032H24.8991L24.7337 16.9338H25.2255C25.523 16.9338 25.7576 16.7388 25.7576 16.3714C25.7576 16.128 25.6098 16.0032 25.3894 16.0032H25.3909ZM24.2006 15.1912H25.4918C26.1676 15.1912 26.6392 15.5947 26.6392 16.2856C26.6392 17.1582 26.0239 17.7433 25.1463 17.7433H24.5889L24.3267 19.2186H23.4844L24.1955 15.1836" fill="white"/>
<path d="M29.5025 17.5427H30.3322L30.1362 16.2868L29.5025 17.5427ZM30.4608 18.3547H29.0813L28.6425 19.2147H27.6641L29.8203 15.1797H30.7634L31.4973 19.2147H30.5919L30.4618 18.3547" fill="white"/>
<path d="M35.8081 19.0797C35.5231 19.2098 35.2104 19.2875 34.8952 19.2875C33.8285 19.2875 33.1602 18.488 33.1602 17.4868C33.1602 16.2057 34.237 15.1289 35.5181 15.1289C35.8384 15.1289 36.1284 15.2058 36.3654 15.3357L36.2472 16.3016C36.0699 16.1056 35.7831 15.9687 35.4301 15.9687C34.6962 15.9687 34.0431 16.6319 34.0431 17.4011C34.0431 17.9862 34.4113 18.4452 34.9913 18.4452C35.3469 18.4452 35.6898 18.3082 35.9218 18.1198L35.8096 19.0781" fill="white"/>
<path d="M41.104 17.5931H39.3513L39.0663 19.2147H38.2266L38.9377 15.1797H39.78L39.4976 16.7735H41.2503L41.5352 15.1797H42.3775L41.6664 19.2147H40.8241L41.1065 17.5931" fill="white"/>
<path d="M44.1328 19.2069L44.844 15.1719H47.0783L46.9364 15.9839H45.5443L45.4023 16.7657H46.6809L46.5389 17.5777H45.2603L45.1184 18.3898H46.5104L46.3684 19.2018H44.1341" fill="white"/>
</g>
<defs>
<clipPath id="clip0_19043_3189">
<rect width="78.5" height="40.7669" fill="white" transform="translate(0.25 0.617188)"/>
</clipPath>
</defs>
</svg>
