<svg width="38" height="22" viewBox="0 0 38 22" fill="none" xmlns="http://www.w3.org/2000/svg">
<path d="M6.0929 11.1652C5.16512 11.1652 4.42355 10.9007 3.8682 10.3715C3.31284 9.8423 3.03516 9.13346 3.03516 8.24497C3.03516 7.29114 3.37491 6.53004 4.0544 5.96166C4.7339 5.39329 5.64861 5.1091 6.79853 5.1091C7.5303 5.1091 8.35354 5.22016 9.26825 5.44229V4.14874C9.26825 3.44317 9.10817 2.94666 8.78803 2.6592C8.46788 2.37175 7.92232 2.22802 7.15135 2.22802C6.24971 2.22802 5.36767 2.35868 4.50522 2.62001C4.20468 2.71147 4.0152 2.7572 3.9368 2.7572C3.77999 2.7572 3.70159 2.6396 3.70159 2.40441V1.87524C3.70159 1.70538 3.72772 1.58125 3.77999 1.50285C3.83226 1.42446 3.9368 1.35259 4.09361 1.28726C4.49869 1.10434 5.01158 0.957342 5.63228 0.84628C6.25297 0.735218 6.8704 0.679688 7.48456 0.679688C8.72596 0.679688 9.64067 0.937743 10.2287 1.45385C10.8167 1.96997 11.1107 2.7572 11.1107 3.81555V10.5185C11.1107 10.7798 10.9801 10.9105 10.7187 10.9105H9.87588C9.6276 10.9105 9.48386 10.7863 9.44466 10.5381L9.34665 9.8913C8.87623 10.2963 8.3568 10.6099 7.78838 10.8321C7.21995 11.0542 6.65479 11.1652 6.0929 11.1652ZM6.56332 9.69531C6.99454 9.69531 7.44536 9.61038 7.91578 9.44052C8.38621 9.27066 8.83703 9.0224 9.26825 8.69575V6.69663C8.56261 6.52677 7.87005 6.44184 7.19055 6.44184C5.71395 6.44184 4.97565 7.01022 4.97565 8.14697C4.97565 8.64348 5.11285 9.02567 5.38727 9.29352C5.66168 9.56138 6.0537 9.69531 6.56332 9.69531Z" fill="white"/>
<path d="M16.1713 10.9055C15.9753 10.9055 15.8348 10.8696 15.7499 10.7977C15.6649 10.7259 15.5833 10.5789 15.5049 10.3568L12.6039 1.69392C12.5255 1.45873 12.4863 1.30847 12.4863 1.24314C12.4863 1.06021 12.5843 0.96875 12.7803 0.96875H13.8976C14.1067 0.96875 14.2537 1.00468 14.3386 1.07655C14.4236 1.14841 14.4987 1.2954 14.564 1.51753L16.7005 8.92601L18.6606 1.51753C18.726 1.2954 18.8044 1.14841 18.8958 1.07655C18.9873 1.00468 19.131 0.96875 19.327 0.96875H20.2287C20.4247 0.96875 20.5684 1.00468 20.6599 1.07655C20.7514 1.14841 20.8298 1.2954 20.8951 1.51753L22.8748 9.02401L25.0701 1.51753C25.1355 1.2954 25.2106 1.14841 25.2955 1.07655C25.3805 1.00468 25.5275 0.96875 25.7365 0.96875H26.795C26.991 0.96875 27.089 1.06021 27.089 1.24314C27.089 1.30847 27.0498 1.45873 26.9714 1.69392L23.9921 10.3568C23.9137 10.5789 23.832 10.7259 23.7471 10.7977C23.6621 10.8696 23.5216 10.9055 23.3256 10.9055H22.3652C22.1692 10.9055 22.0254 10.8663 21.934 10.7879C21.8425 10.7095 21.7641 10.5593 21.6988 10.3372L19.7387 3.12466L17.7982 10.3372C17.7328 10.5593 17.6544 10.7095 17.563 10.7879C17.4715 10.8663 17.3278 10.9055 17.1317 10.9055H16.1713Z" fill="white"/>
<path d="M31.4378 11.2044C30.3401 11.2044 29.3535 11.0215 28.478 10.6557C28.3212 10.5903 28.2134 10.5185 28.1546 10.4401C28.0958 10.3617 28.0664 10.2375 28.0664 10.0677V9.51891C28.0664 9.28372 28.1448 9.16613 28.3016 9.16613C28.3931 9.16613 28.5564 9.20533 28.7916 9.28372C29.6541 9.55811 30.5492 9.69531 31.477 9.69531C32.1173 9.69531 32.604 9.57118 32.9372 9.32292C33.2704 9.07467 33.4371 8.71535 33.4371 8.24497C33.4371 7.93138 33.3358 7.67659 33.1332 7.4806C32.9307 7.28461 32.5616 7.08862 32.0258 6.89262L30.3597 6.26545C28.9092 5.72974 28.184 4.81511 28.184 3.52157C28.184 2.67227 28.514 1.9863 29.1739 1.46365C29.8338 0.94101 30.6995 0.679688 31.771 0.679688C32.6204 0.679688 33.4501 0.829948 34.2603 1.13047C34.4171 1.18273 34.5282 1.25133 34.5935 1.33626C34.6588 1.42119 34.6915 1.54858 34.6915 1.71844V2.24762C34.6915 2.48281 34.6066 2.60041 34.4367 2.60041C34.3452 2.60041 34.195 2.56774 33.9859 2.50241C33.2933 2.29335 32.5877 2.18882 31.869 2.18882C30.6145 2.18882 29.9873 2.61347 29.9873 3.46277C29.9873 3.80249 30.0918 4.07034 30.3009 4.26634C30.51 4.46233 30.9216 4.67792 31.5358 4.91311L33.0646 5.50108C33.8356 5.8016 34.391 6.15766 34.7307 6.56924C35.0705 6.98082 35.2403 7.51327 35.2403 8.16657C35.2403 9.09426 34.8941 9.8325 34.2015 10.3813C33.5089 10.9301 32.5877 11.2044 31.4378 11.2044Z" fill="white"/>
<path d="M35.3477 12.7471C34.0892 12.7652 32.6035 13.0503 31.4798 13.8517C31.1325 14.1062 31.1925 14.4461 31.5753 14.3976C32.8554 14.2399 35.6757 13.9001 36.1783 14.5553C36.681 15.1981 35.6172 17.9049 35.1382 19.1069C34.9951 19.4701 35.3057 19.6168 35.6283 19.3375C37.7325 17.5414 38.2828 13.7908 37.8523 13.2446C37.6374 12.978 36.6063 12.7286 35.3477 12.7471ZM0.292451 13.3615C0.0121336 13.397 -0.114871 13.74 0.181171 14.011C5.17306 18.5741 11.7806 21.3207 19.1149 21.3207C24.3478 21.3207 30.4334 19.658 34.6218 16.5255C35.3092 16.0086 34.7116 15.2229 34.011 15.5444C29.3136 17.5562 24.2071 18.5361 19.5603 18.5361C12.6724 18.5361 6.01311 16.6152 0.614499 13.4429C0.496566 13.3722 0.38589 13.3499 0.292451 13.3615Z" fill="#FF9900"/>
</svg>
