<svg width="32" height="32" viewBox="0 0 32 32" fill="none" xmlns="http://www.w3.org/2000/svg">
<path d="M21.8125 5.85086C21.9176 7.85648 17.0625 9.25086 11.0194 9.27461C4.97568 9.25023 0.125052 7.85711 0.228177 5.85086C0.340052 3.85898 5.19255 1.62523 11.0213 1.61523C16.85 1.62523 21.7026 3.85898 21.8125 5.85086Z" fill="white"/>
<path d="M13.9039 14.5271L13.9277 14.4059L13.9677 14.2809L13.987 14.2184C14.2349 13.4371 14.7294 12.7572 15.3964 12.2809C15.742 12.0357 16.1181 11.8367 16.5152 11.689C18.152 11.0552 20.0533 10.3321 21.9577 9.68898C21.9439 9.20148 21.9289 8.71378 21.9127 8.22586L21.8789 8.25023C21.2308 8.74586 20.3227 9.17148 19.182 9.52586C17.0002 10.2027 14.0964 10.5784 11.027 10.5784C7.95767 10.5784 5.05454 10.2034 2.87204 9.52586C1.61267 9.13461 0.737666 8.68961 0.139541 8.22461C0.0895405 9.68294 0.0534989 11.1413 0.0314155 12.5996C-0.00170948 14.5996 4.94142 16.274 11.027 16.2927C11.9114 16.2927 12.7708 16.2521 13.5952 16.1834C13.669 15.6262 13.7721 15.0734 13.9039 14.5271Z" fill="white"/>
<path d="M13.3482 19.3925V19.3563C13.362 18.8132 13.3907 18.1688 13.4476 17.4925C12.6576 17.555 11.847 17.5857 11.0232 17.585C7.93887 17.585 5.01887 17.1413 2.80199 16.3825C1.52262 15.945 0.627618 15.4569 0.00261775 14.9619C-0.00446558 16.4202 0.00282609 17.8786 0.0244928 19.3369C0.0638678 21.3332 5.00762 23.285 11.0245 23.3C11.8995 23.3 12.752 23.2538 13.5701 23.175C13.4001 22.1832 13.3264 20.9169 13.3482 19.3925Z" fill="white"/>
<path d="M15.4378 27.1739C14.7503 26.3051 14.2347 25.4126 13.9103 24.517C12.9501 24.6211 11.9849 24.6728 11.0191 24.672C7.97719 24.6751 5.09406 24.1595 2.88281 23.3182C1.60656 22.8332 0.702812 22.3026 0.0703125 21.7764C0.107813 23.2347 0.159271 24.693 0.224687 26.1514C0.340312 28.1414 5.19281 30.3751 11.0216 30.3851C13.4822 30.3807 15.7678 29.9801 17.5972 29.3689C16.809 28.7078 16.0859 27.9728 15.4378 27.1739Z" fill="white"/>
<path d="M31.9954 19.428V19.4155C31.9529 17.6962 31.7767 16.1462 31.4986 15.0505L31.4873 14.993L31.4673 14.9305C31.2554 14.2562 30.6186 14.0093 30.3461 13.9037C28.5654 13.2162 26.4679 12.4174 24.4148 11.743C24.248 11.6902 24.0747 11.6603 23.8998 11.6543H23.8579H23.8161C23.6418 11.6604 23.4692 11.69 23.3029 11.7424C21.2486 12.4174 19.1511 13.2137 17.3698 13.9043C17.0979 14.0093 16.4611 14.2568 16.2492 14.9305L16.2292 14.993L16.2186 15.0462V15.053C15.9411 16.1462 15.7648 17.6955 15.7223 19.4162V19.428C15.6879 21.7893 15.9098 22.9393 16.0536 23.4212L16.0723 23.4893C16.2973 24.2112 16.7104 24.9537 17.3004 25.6955C17.9298 26.4868 18.7654 27.2918 19.7823 28.0868C20.8067 28.8913 21.9047 29.5973 23.0617 30.1955L23.0873 30.2074H23.0904C23.3305 30.3228 23.5935 30.3826 23.8598 30.3824C24.128 30.3824 24.3928 30.3217 24.6342 30.2049L24.6592 30.193L24.6723 30.1862C25.8226 29.5893 26.9147 28.8862 27.9342 28.0862C28.9536 27.2893 29.7892 26.4843 30.4192 25.693C31.0086 24.9512 31.4192 24.2093 31.6467 23.4868L31.6592 23.4449L31.6654 23.4187C31.8042 22.9418 32.0304 21.7918 31.9954 19.428ZM28.2042 19.5843L23.7592 24.2499C23.6382 24.377 23.4928 24.4784 23.3317 24.548C23.1706 24.6176 22.9972 24.6539 22.8217 24.6549H22.8161C22.6412 24.6551 22.4681 24.6201 22.3071 24.552C22.146 24.4839 22.0003 24.3842 21.8786 24.2587L19.5204 21.8293C19.2796 21.5812 19.1472 21.2475 19.1523 20.9017C19.1575 20.556 19.2998 20.2264 19.5479 19.9855C19.7961 19.7447 20.1297 19.6123 20.4755 19.6174C20.8213 19.6226 21.1508 19.7649 21.3917 20.013L22.8054 21.4699L26.3148 17.7824C26.5552 17.5399 26.881 17.4013 27.2224 17.3964C27.5638 17.3914 27.8936 17.5206 28.1408 17.756C28.3881 17.9915 28.5332 18.3146 28.5449 18.6558C28.5566 18.997 28.4341 19.3293 28.2036 19.5812L28.2042 19.5843Z" fill="white"/>
</svg>
