<svg width="32" height="32" viewBox="0 0 32 32" fill="none" xmlns="http://www.w3.org/2000/svg">
<mask id="mask0_16285_35307" style="mask-type:alpha" maskUnits="userSpaceOnUse" x="0" y="0" width="32" height="32">
<rect width="32" height="32" fill="#D9D9D9"/>
</mask>
<g mask="url(#mask0_16285_35307)">
<path d="M8.66927 26.6663C6.62483 26.6663 4.89149 25.9552 3.46927 24.533C2.04705 23.1108 1.33594 21.3775 1.33594 19.333C1.33594 17.7108 1.93038 16.3052 3.11927 15.1163C4.30816 13.9275 5.71372 13.333 7.33594 13.333C8.95816 13.333 10.3637 13.9275 11.5526 15.1163C12.7415 16.3052 13.3359 17.7108 13.3359 19.333H16.0026C16.0026 17.0441 15.2915 15.1275 13.8693 13.583C12.4471 12.0386 10.6026 11.0663 8.33594 10.6663C8.73594 9.0219 9.64149 7.7219 11.0526 6.76634C12.4637 5.81079 14.1137 5.33301 16.0026 5.33301C18.6248 5.33301 20.8359 6.23301 22.6359 8.03301C24.4359 9.83301 25.3359 12.0441 25.3359 14.6663C26.7359 14.6663 27.9748 15.2886 29.0526 16.533C30.1304 17.7775 30.6693 19.1552 30.6693 20.6663C30.6693 22.333 30.0859 23.7497 28.9193 24.9163C27.7526 26.083 26.3359 26.6663 24.6693 26.6663H8.66927Z" fill="white"/>
</g>
</svg>
