<svg width="32" height="32" viewBox="0 0 32 32" fill="none" xmlns="http://www.w3.org/2000/svg">
<path d="M31.1084 23.1679H29.7903V9.86916C29.7903 7.7922 28.1007 6.10254 26.0244 6.10254H5.96637C3.89004 6.10254 2.20038 7.79283 2.20038 9.86916V23.1679H0.879764C0.527096 23.1679 0.25 23.4513 0.25 23.7977C0.25 26.26 2.25265 28.2564 4.71503 28.2564H27.2795C28.4697 28.2564 29.5907 27.7967 30.4283 26.9528C31.2722 26.1089 31.7382 24.9879 31.7382 23.7977C31.7382 23.4513 31.4548 23.1679 31.1084 23.1679ZM18.5195 24.3267C18.425 24.4085 18.3053 24.4526 18.1794 24.4526H13.8151C13.6829 24.4526 13.5632 24.4085 13.4688 24.3267L12.6627 23.615C12.3352 23.3253 11.9195 23.1679 11.485 23.1679H3.45991V9.86916C3.45991 8.48683 4.58467 7.36207 5.96637 7.36207H26.0244C27.4067 7.36207 28.5308 8.48683 28.5308 9.86916V23.1679H20.5095C20.075 23.1679 19.6593 23.3253 19.3319 23.615L18.5195 24.3267Z" fill="white"/>
<path d="M16.0001 13.1299C15.3111 13.1299 14.75 13.6909 14.75 14.38C14.75 15.0696 15.3105 15.6307 16.0001 15.6307C16.6897 15.6307 17.2503 15.0696 17.2503 14.38C17.2503 13.6909 16.6897 13.1299 16.0001 13.1299Z" fill="white"/>
<path d="M25.3395 15.5796C25.4529 15.3844 25.4529 15.145 25.3395 14.9498C23.9238 12.5025 21.6126 10.7417 18.9657 9.97782C20.2592 11.2065 21.6378 13.0674 21.4501 15.3189C21.423 15.6476 21.1472 15.8963 20.8229 15.8963C20.8052 15.8963 20.7876 15.8957 20.77 15.8938C20.4236 15.8649 20.166 15.5607 20.1944 15.2143C20.4337 12.3426 17.1929 10.071 16.4108 9.56659C16.2716 9.56092 16.133 9.55273 15.9932 9.55273C12.158 9.55273 8.5746 11.6184 6.64752 14.9498C6.53416 15.145 6.53416 15.3844 6.64752 15.5796C7.9379 17.8102 9.97204 19.4715 12.3255 20.3293C11.2876 19.2032 10.3304 17.5186 10.5382 15.2099C10.5691 14.8635 10.8751 14.6034 11.2215 14.6393C11.5679 14.6708 11.8235 14.9763 11.7927 15.3233C11.4482 19.1585 14.995 20.874 15.1462 20.9452C15.1468 20.9452 15.1468 20.9458 15.1474 20.9464C15.4277 20.9685 15.7092 20.9836 15.9926 20.9836C19.8291 20.983 23.4125 18.911 25.3395 15.5796ZM15.9945 18.0029C14.4862 18.0029 13.2588 16.7755 13.2588 15.2666C13.2588 13.7577 14.4862 12.5309 15.9945 12.5309C17.5034 12.5309 18.7302 13.7577 18.7302 15.2666C18.7302 16.7755 17.5034 18.0029 15.9945 18.0029Z" fill="white"/>
</svg>
