<svg width="27" height="26" viewBox="0 0 27 26" fill="none" xmlns="http://www.w3.org/2000/svg">
<g clip-path="url(#clip0_21304_2147)">
<path d="M23.6906 0H3.30937C1.7579 0 0.5 1.2579 0.5 2.80937V23.1907C0.5 24.7421 1.7579 26 3.30937 26H23.6907C25.2421 26 26.5 24.7421 26.5 23.1906V2.80937C26.5 1.2579 25.2421 0 23.6906 0Z" fill="white"/>
<path d="M22.0268 11.1944C22.4785 9.83891 22.3229 8.35396 21.6007 7.12099C20.5145 5.22985 18.331 4.25693 16.1985 4.71478C15.2498 3.64603 13.8869 3.03828 12.4579 3.04697C10.2781 3.04199 8.34409 4.44543 7.67347 6.51944C6.27318 6.8062 5.06443 7.68274 4.35715 8.92505C3.26291 10.8112 3.51235 13.1888 4.97424 14.8062C4.52259 16.1617 4.67814 17.6467 5.40035 18.8796C6.48651 20.7708 8.67 21.7437 10.8025 21.2859C11.7505 22.3546 13.1142 22.9624 14.5431 22.9531C16.7241 22.9587 18.6588 21.554 19.3294 19.4781C20.7297 19.1913 21.9384 18.3148 22.6457 17.0725C23.7387 15.1863 23.4886 12.8106 22.0273 11.1932L22.0268 11.1944ZM14.5444 21.6523C13.6716 21.6535 12.8262 21.3481 12.1562 20.7888C12.1867 20.7726 12.2396 20.7434 12.2738 20.7222L16.2377 18.433C16.4405 18.3179 16.565 18.102 16.5637 17.8687V12.2806L18.239 13.2479C18.257 13.2566 18.2688 13.2741 18.2713 13.294V17.9217C18.2689 19.9795 16.6023 21.6479 14.5444 21.6523ZM6.52952 18.2289C6.09219 17.4737 5.93482 16.5885 6.08473 15.7294C6.11398 15.7468 6.16562 15.7785 6.20228 15.7997L10.1662 18.0889C10.3672 18.2065 10.616 18.2065 10.8175 18.0889L15.6567 15.2945V17.2292C15.658 17.2491 15.6487 17.2684 15.6331 17.2809L11.6263 19.5944C9.84152 20.6221 7.56221 20.0112 6.53018 18.2289H6.52952ZM5.48627 9.57637C5.92172 8.81993 6.60914 8.24138 7.42779 7.94091C7.42779 7.97514 7.42591 8.03546 7.42591 8.07776V12.6569C7.42464 12.8896 7.5491 13.1054 7.75127 13.2205L12.5905 16.0143L10.9152 16.9816C10.8984 16.9928 10.8773 16.9947 10.8586 16.9866L6.85112 14.6712C5.07012 13.6398 4.45922 11.3611 5.48566 9.57698L5.48627 9.57637ZM19.2505 12.7794L14.4113 9.98506L16.0865 9.01833C16.1034 9.00716 16.1245 9.00528 16.1432 9.01336L20.1506 11.3269C21.9348 12.3577 22.5463 14.6401 21.5155 16.4243C21.0794 17.1795 20.3926 17.758 19.5746 18.0591V13.3431C19.5764 13.1104 19.4526 12.8952 19.2511 12.7795H19.2505V12.7794ZM20.9177 10.27C20.8884 10.252 20.8368 10.2208 20.8001 10.1997L16.8362 7.91044C16.6352 7.79288 16.3864 7.79288 16.1849 7.91044L11.3457 10.7048V8.77017C11.3444 8.75026 11.3537 8.73096 11.3693 8.71852L15.3761 6.40686C17.1609 5.37732 19.4427 5.99005 20.4716 7.77546C20.9065 8.52941 21.0638 9.41214 20.9164 10.27L20.9177 10.27ZM10.435 13.7182L8.75907 12.7509C8.74104 12.7422 8.72921 12.7248 8.72672 12.7049V8.07715C8.72799 6.01681 10.3995 4.34712 12.4599 4.34839C13.3314 4.34839 14.1749 4.65445 14.8449 5.21182C14.8145 5.22797 14.7622 5.25722 14.7274 5.2784L10.7635 7.56767C10.5606 7.68274 10.4362 7.898 10.4375 8.13129L10.435 13.717V13.7182H10.435ZM11.3451 11.7562L13.5006 10.5114L15.6561 11.7555V14.2445L13.5006 15.4887L11.3451 14.2445V11.7562Z" fill="#1B1B1B"/>
</g>
<defs>
<clipPath id="clip0_21304_2147">
<rect width="26" height="26" fill="white" transform="translate(0.5)"/>
</clipPath>
</defs>
</svg>
