<svg width="32" height="32" viewBox="0 0 32 32" fill="none" xmlns="http://www.w3.org/2000/svg">
<g clip-path="url(#clip0_16285_16520)">
<path fill-rule="evenodd" clip-rule="evenodd" d="M21.5368 5.23823C22.2956 5.69661 22.9925 6.2344 23.6189 6.8373L26.8086 5.69555L29.5078 10.3707L26.9242 12.5621C27.133 13.4061 27.2503 14.2784 27.2679 15.1648L30.3296 16.6123L30.1611 17.2413C28.1334 16.622 25.1976 16.5565 24.3067 16.5565C23.888 16.5565 23.0177 16.571 22.0022 16.6505C22.6522 13.2234 20.5565 9.82355 17.1325 8.90605C13.5437 7.94444 9.85497 10.0741 8.89342 13.6629C7.9318 17.2516 10.0615 20.9404 13.6502 21.9019C14.5822 22.1516 15.5208 22.1924 16.4168 22.0537V27.2386C16.1562 27.2612 15.894 27.2752 15.6306 27.2805L14.1831 30.3421L8.96873 28.9449L9.24598 25.5695C8.48705 25.1112 7.7902 24.5736 7.16368 23.9707L3.97418 25.1124L1.275 20.4372L3.85861 18.2458C3.64977 17.4017 3.53252 16.5294 3.51493 15.6431L0.453125 14.1957L1.85031 8.98136L5.22566 9.25861C5.68398 8.49968 6.22164 7.80283 6.82448 7.17631L5.68279 3.98675L10.3579 1.28757L12.5494 3.87118C13.3934 3.66234 14.2658 3.54509 15.1521 3.52744L16.5996 0.46582L21.814 1.86301L21.5368 5.23823ZM24.3066 17.2043C20.3069 17.2043 17.0645 17.9889 17.0645 18.9568C17.0645 19.9247 20.3069 20.7093 24.3066 20.7093C28.3063 20.7093 31.5487 19.9247 31.5487 18.9568C31.5487 17.9889 28.3063 17.2043 24.3066 17.2043ZM31.5487 19.9104C30.336 20.7617 27.5501 21.3572 24.3066 21.3572C21.0631 21.3572 18.2773 20.7617 17.0645 19.9104V24.6305C17.3559 24.86 18.0073 25.0894 18.9072 25.2932C21.877 25.966 26.7362 25.966 29.706 25.2932C30.6059 25.0894 31.2573 24.86 31.5486 24.6305L31.5487 19.9104ZM31.5487 25.3405C28.8015 26.8122 19.8118 26.8122 17.0646 25.3405V29.7812C17.0646 30.7491 20.307 31.5338 24.3067 31.5338C28.3064 31.5338 31.5487 30.7491 31.5487 29.7812V25.3405H31.5487ZM29.0503 28.1616C28.8154 28.1616 28.6251 28.352 28.6251 28.5869C28.6251 28.8217 28.8154 29.0121 29.0503 29.0121C29.2852 29.0121 29.4756 28.8217 29.4756 28.5869C29.4756 28.352 29.2852 28.1616 29.0503 28.1616ZM29.0503 22.8774C28.8154 22.8774 28.6251 23.0678 28.6251 23.3026C28.6251 23.5375 28.8154 23.7279 29.0503 23.7279C29.2852 23.7279 29.4756 23.5375 29.4756 23.3026C29.4756 23.0678 29.2852 22.8774 29.0503 22.8774Z" fill="white"/>
</g>
<defs>
<clipPath id="clip0_16285_16520">
<rect width="32" height="32" fill="white"/>
</clipPath>
</defs>
</svg>
