<svg width="32" height="32" viewBox="0 0 32 32" fill="none" xmlns="http://www.w3.org/2000/svg">
<g clip-path="url(#clip0_16285_16530)">
<path d="M0.888997 20.4727H4.44434C4.93522 20.4727 5.33333 20.8704 5.33333 21.3613V30.2503C5.33333 30.7412 4.93522 31.1393 4.44434 31.1393H0.888997C0.398112 31.1393 0 30.7412 0 30.2503V21.3613C0 20.8704 0.398112 20.4727 0.888997 20.4727Z" fill="white"/>
<path d="M9.7793 13.3613H13.335C13.8258 13.3613 14.224 13.7594 14.224 14.2503V30.2503C14.224 30.7412 13.8258 31.1393 13.335 31.1393H9.7793C9.28841 31.1393 8.89062 30.7412 8.89062 30.2503V14.2503C8.89062 13.7594 9.28841 13.3613 9.7793 13.3613Z" fill="white"/>
<path d="M18.6702 16.917H22.2259C22.7168 16.917 23.1146 17.3151 23.1146 17.806V30.2503C23.1146 30.7412 22.7168 31.1393 22.2259 31.1393H18.6702C18.1794 31.1393 17.7812 30.7412 17.7812 30.2503V17.806C17.7812 17.3151 18.1794 16.917 18.6702 16.917Z" fill="white"/>
<path d="M27.5531 11.583H31.1084C31.5993 11.583 31.9974 11.9811 31.9974 12.472V30.2497C31.9974 30.7406 31.5993 31.1387 31.1084 31.1387H27.5531C27.0622 31.1387 26.6641 30.7406 26.6641 30.2497V12.472C26.6641 11.9811 27.0622 11.583 27.5531 11.583Z" fill="white"/>
<path d="M29.3333 0.916992C27.8613 0.91862 26.6683 2.11165 26.6667 3.58366C26.6702 3.87402 26.7217 4.16178 26.819 4.43522L22.3691 7.0804C21.7852 6.46094 20.9385 6.16081 20.0947 6.27376C19.2507 6.38672 18.513 6.89909 18.1123 7.65039L14.1875 5.70638C14.2067 5.59212 14.2181 5.47689 14.2223 5.36133C14.2243 4.2819 13.5755 3.30794 12.5788 2.89355C11.582 2.47949 10.4339 2.70703 9.67057 3.47005C8.9069 4.23307 8.67871 5.38086 9.09245 6.37793L4.0013 10.1774C3.59766 9.93685 3.13672 9.80859 2.66667 9.80599C1.19401 9.80599 0 10.9997 0 12.4727C0 13.9453 1.19401 15.1393 2.66667 15.1393C4.13932 15.1393 5.33333 13.9453 5.33333 12.4727C5.33105 12.1517 5.27051 11.8343 5.15462 11.5352L10.2965 7.69759C11.3024 8.25846 12.557 8.09408 13.3841 7.29264L17.8473 9.50326C18.1449 10.8285 19.3919 11.7178 20.7419 11.5674C22.0918 11.417 23.1126 10.2754 23.111 8.91699C23.111 8.84928 23.096 8.78548 23.0911 8.71908L27.931 5.8418C28.3506 6.1071 28.8366 6.2487 29.3333 6.25033C30.806 6.25033 32 5.05632 32 3.58366C32 2.111 30.806 0.916992 29.3333 0.916992Z" fill="white"/>
</g>
<defs>
<clipPath id="clip0_16285_16530">
<rect width="32" height="32" fill="white"/>
</clipPath>
</defs>
</svg>
