<svg width="32" height="32" viewBox="0 0 32 32" fill="none" xmlns="http://www.w3.org/2000/svg">
<path d="M27 9.0625C26.881 9.0625 26.7623 9.06675 26.6441 9.07519C26.2879 7.93913 25.6183 6.91419 24.7052 6.12581C23.4777 5.066 21.8883 4.50681 20.2623 4.56694C18.6687 1.7725 15.6894 0 12.5 0C8.49363 0 4.94844 2.75356 3.88419 6.61644C1.57837 7.64144 0.0625 9.944 0.0625 12.5C0.0625 14.9921 1.48594 17.1579 3.5625 18.2272V15.875C3.5625 14.3242 4.82419 13.0625 6.375 13.0625H25.625C27.1759 13.0625 28.4375 14.3242 28.4375 15.875V18.7231C30.461 18.106 31.9375 16.2227 31.9375 14C31.9375 11.2774 29.7225 9.0625 27 9.0625Z" fill="white"/>
<path d="M25.625 14.9375H6.375C5.85725 14.9375 5.4375 15.3572 5.4375 15.875V22.4965H26.5625V15.875C26.5625 15.3572 26.1427 14.9375 25.625 14.9375ZM13.4759 19.75H8.5C7.98225 19.75 7.5625 19.3302 7.5625 18.8125C7.5625 18.2947 7.98225 17.875 8.5 17.875H13.4759C13.9936 17.875 14.4134 18.2947 14.4134 18.8125C14.4134 19.3302 13.9936 19.75 13.4759 19.75ZM19.5 19.741C18.9823 19.741 18.5625 19.3212 18.5625 18.8035C18.5625 18.2857 18.9823 17.866 19.5 17.866C20.0177 17.866 20.4375 18.2857 20.4375 18.8035C20.4375 19.3212 20.0177 19.741 19.5 19.741ZM23.5 19.741C22.9823 19.741 22.5625 19.3212 22.5625 18.8035C22.5625 18.2857 22.9823 17.866 23.5 17.866C24.0177 17.866 24.4375 18.2857 24.4375 18.8035C24.4375 19.3212 24.0177 19.741 23.5 19.741Z" fill="white"/>
<path d="M5.4375 31.0621C5.4375 31.5798 5.85725 31.9996 6.375 31.9996H25.625C26.1427 31.9996 26.5625 31.5798 26.5625 31.0621V24.3711H5.4375V31.0621ZM23.5 26.9996C24.0177 26.9996 24.4375 27.4193 24.4375 27.9371C24.4375 28.4548 24.0177 28.8746 23.5 28.8746C22.9823 28.8746 22.5625 28.4548 22.5625 27.9371C22.5625 27.4193 22.9823 26.9996 23.5 26.9996ZM19.5 26.9996C20.0177 26.9996 20.4375 27.4193 20.4375 27.9371C20.4375 28.4548 20.0177 28.8746 19.5 28.8746C18.9823 28.8746 18.5625 28.4548 18.5625 27.9371C18.5625 27.4193 18.9823 26.9996 19.5 26.9996ZM8.5 26.9996H13.4759C13.9936 26.9996 14.4134 27.4193 14.4134 27.9371C14.4134 28.4548 13.9936 28.8746 13.4759 28.8746H8.5C7.98225 28.8746 7.5625 28.4548 7.5625 27.9371C7.5625 27.4193 7.98225 26.9996 8.5 26.9996Z" fill="white"/>
</svg>
