<svg width="32" height="32" viewBox="0 0 32 32" fill="none" xmlns="http://www.w3.org/2000/svg">
<path d="M12.2787 6.21318L13.3828 8.76167C14.6093 11.5902 17.2893 13.8175 20.6925 14.8369L23.7588 15.7546C24.0351 15.838 24.0351 16.1637 23.7588 16.246L20.6925 17.1637C17.2893 18.1831 14.6093 20.4105 13.3828 23.239L12.2787 25.7875C12.1783 26.0172 11.7864 26.0172 11.6874 25.7875L10.5832 23.239C9.35672 20.4105 6.67679 18.1831 3.2736 17.1637L0.207286 16.246C-0.0690952 16.1626 -0.0690952 15.8369 0.207286 15.7546L3.2736 14.8369C6.67679 13.8175 9.35672 11.5902 10.5832 8.76167L11.6874 6.21318C11.7864 5.98233 12.1783 5.98233 12.2787 6.21318Z" fill="white"/>
<path d="M26.0779 0.0882831L26.6376 1.37853C27.2591 2.81049 28.6162 3.93845 30.3392 4.45501L31.8916 4.92014C32.0318 4.96242 32.0318 5.12699 31.8916 5.16928L30.3392 5.6344C28.6162 6.15096 27.2591 7.27893 26.6376 8.71089L26.0779 10.0011C26.0271 10.1177 25.8291 10.1177 25.7782 10.0011L25.2185 8.71089C24.597 7.27893 23.2399 6.15096 21.517 5.6344L19.9646 5.16928C19.8243 5.12699 19.8243 4.96242 19.9646 4.92014L21.517 4.45501C23.2399 3.93845 24.597 2.81049 25.2185 1.37853L25.7782 0.0882831C25.8291 -0.0294277 26.0284 -0.0294277 26.0779 0.0882831Z" fill="white"/>
<path d="M26.0779 21.9995L26.6376 23.2898C27.2591 24.7217 28.6162 25.8497 30.3392 26.3663L31.8916 26.8314C32.0318 26.8737 32.0318 27.0382 31.8916 27.0805L30.3392 27.5457C28.6162 28.0622 27.2591 29.1902 26.6376 30.6221L26.0779 31.9124C26.0271 32.029 25.8291 32.029 25.7782 31.9124L25.2185 30.6221C24.597 29.1902 23.2399 28.0622 21.517 27.5457L19.9646 27.0805C19.8243 27.0382 19.8243 26.8737 19.9646 26.8314L21.517 26.3663C23.2399 25.8497 24.597 24.7217 25.2185 23.2898L25.7782 21.9995C25.8291 21.883 26.0284 21.883 26.0779 21.9995Z" fill="white"/>
</svg>
