<svg width="32" height="32" viewBox="0 0 32 32" fill="none" xmlns="http://www.w3.org/2000/svg">
<g clip-path="url(#clip0_16285_28397)">
<path fill-rule="evenodd" clip-rule="evenodd" d="M23.9979 18.3097C23.8244 18.9117 23.5848 19.4857 23.2874 20.0233L23.8887 21.2034C24.0808 21.5805 24.0113 22.0195 23.712 22.3188L22.316 23.7149C22.0167 24.0142 21.5778 24.0837 21.2006 23.8916L20.0204 23.2902C19.4828 23.5876 18.9088 23.8272 18.3069 24.0008L17.8979 25.2596C17.7671 25.6622 17.4075 25.9234 16.9843 25.9234H15.0099C14.5866 25.9234 14.2271 25.6622 14.0963 25.2597L13.6873 24.0008C13.0853 23.8273 12.5113 23.5876 11.9737 23.2903L10.7936 23.8916C10.4164 24.0838 9.97744 24.0142 9.67813 23.7149L8.28207 22.3188C7.98276 22.0195 7.91326 21.5806 8.10538 21.2034L8.70676 20.0232C8.40938 19.4856 8.16976 18.9117 7.99619 18.3097L6.73738 17.9007C6.33482 17.7699 6.07357 17.4103 6.07357 16.987V15.0127C6.07357 14.5895 6.33482 14.2298 6.73732 14.099L7.99619 13.69C8.16969 13.088 8.40938 12.5141 8.70669 11.9765L8.10538 10.7963C7.9132 10.4192 7.98276 9.98022 8.28207 9.68091L9.67807 8.28485C9.97738 7.98553 10.4164 7.91603 10.7935 8.10816L11.9737 8.70953C12.5113 8.41216 13.0853 8.17253 13.6872 7.99897L14.0962 6.74016C14.227 6.3376 14.5866 6.07635 15.0098 6.07635H16.9841C17.4074 6.07635 17.767 6.33753 17.8978 6.74016L18.3068 7.99916C18.9088 8.17266 19.4827 8.41228 20.0202 8.70953L21.2004 8.10816C21.5776 7.91597 22.0166 7.98553 22.3159 8.28485L23.7119 9.68085C24.0113 9.98016 24.0808 10.4191 23.8886 10.7963L23.2873 11.9764C23.5846 12.514 23.8243 13.088 23.9978 13.69L25.2567 14.099C25.6593 14.2298 25.9205 14.5893 25.9205 15.0126V16.9869C25.9205 17.4102 25.6593 17.7697 25.2567 17.9006L23.9978 18.3096L23.9979 18.3097ZM5.14432 8.46372L6.40432 9.72372L7.67044 4.35703L2.30382 5.62316L3.59519 6.91453C-0.822555 12.9292 -0.31243 21.4304 5.12701 26.8698C10.0218 31.7646 17.3958 32.6678 23.2063 29.5808L21.5959 27.9705C16.7024 30.2589 10.6954 29.3831 6.65463 25.3423C2.06101 20.7487 1.55851 13.6148 5.14432 8.46372ZM24.3234 27.6428L29.6901 26.3767L28.3991 25.0857C32.8169 19.0711 32.3064 10.5695 26.8669 5.13003C21.9721 0.235222 14.5981 -0.667965 8.78757 2.41903L10.3979 4.02935C15.2914 1.74091 21.2984 2.61672 25.3393 6.65753C29.9329 11.2512 30.4358 18.3853 26.8498 23.5364L25.5894 22.276L24.3233 27.6427L24.3234 27.6428ZM17.9264 14.0705C16.8609 13.005 15.1333 13.005 14.0677 14.0705C13.0021 15.1361 13.0021 16.8637 14.0677 17.9293C15.1333 18.9948 16.8609 18.9948 17.9264 17.9293C18.992 16.8637 18.992 15.1361 17.9264 14.0705ZM19.9208 12.0762C17.7538 9.90922 14.2404 9.90922 12.0734 12.0762C9.90638 14.2432 9.90638 17.7566 12.0734 19.9236C14.2404 22.0906 17.7538 22.0906 19.9208 19.9236C22.0878 17.7566 22.0878 14.2432 19.9208 12.0762Z" fill="white"/>
</g>
<defs>
<clipPath id="clip0_16285_28397">
<rect width="32" height="32" fill="white"/>
</clipPath>
</defs>
</svg>
