<svg width="32" height="32" viewBox="0 0 32 32" fill="none" xmlns="http://www.w3.org/2000/svg">
<path d="M28.6505 6.3593C28.5145 4.58153 27.0178 3.21401 25.2491 3.07725C22.5281 2.80374 18.7185 2.66699 15.7253 2.66699C12.7321 2.66699 9.05862 2.80374 6.33753 3.07725C5.38516 3.07725 4.70488 3.4875 4.02461 4.17127C3.48038 4.71827 3.07222 5.53879 3.07222 6.3593C2.93617 8.54734 2.66406 11.5559 2.66406 13.8807C2.66406 16.2054 2.93617 19.2141 3.07222 21.4021C3.20828 23.1798 4.70488 24.5474 6.47358 24.6841C9.19468 24.9577 13.0042 25.0943 15.9974 25.0943C18.9906 25.0943 22.8001 24.8209 25.5213 24.6841C27.2899 24.5474 28.6505 23.1798 28.9226 21.4021C29.1947 19.2141 29.3307 16.2054 29.3307 13.8807C29.3307 11.5559 28.9226 8.54734 28.6505 6.3593ZM21.9838 11.1456L17.9022 15.2482C17.4939 15.6585 16.8137 15.6585 16.4055 15.2482L14.5009 13.3337L11.0994 16.7525C10.8273 16.8893 10.6913 17.0259 10.4192 17.0259C10.147 17.0259 9.87494 16.8893 9.73889 16.7525C9.33073 16.3422 9.33073 15.6585 9.73889 15.2482L13.8205 11.1456C14.2287 10.7354 14.909 10.7354 15.3171 11.1456L17.2219 13.0602L20.6233 9.64135C21.0314 9.2311 21.7117 9.2311 22.1198 9.64135C22.3919 10.1884 22.3919 10.7354 21.9838 11.1456Z" fill="white"/>
<path d="M21.3009 29.3335H10.4166C9.87234 29.3335 9.32812 28.9232 9.32812 28.2395C9.32812 27.5558 9.73628 27.1455 10.4166 27.1455H21.3009C21.8452 27.1455 22.3893 27.5558 22.3893 28.2395C22.3893 28.9232 21.8452 29.3335 21.3009 29.3335Z" fill="white"/>
</svg>
