<svg width="32" height="32" viewBox="0 0 32 32" fill="none" xmlns="http://www.w3.org/2000/svg">
<g clip-path="url(#clip0_20959_5852)">
<path d="M31.0461 31.0461H0V0H31.0461V31.0461Z" fill="#D00000"/>
<path d="M8.26562 24.0865C8.26562 24.1108 8.28988 24.135 8.28988 24.1593L8.82349 24.6929C8.84774 24.7172 8.872 24.7172 8.89625 24.7172H10.7154C10.7396 24.7172 10.7639 24.6929 10.7881 24.6929L11.3217 24.1593C11.346 24.135 11.346 24.1108 11.346 24.0865V18.3139C11.346 18.2896 11.3702 18.2654 11.3702 18.2411L13.6744 16.0339C13.6987 16.0097 13.7229 16.0097 13.7229 16.0339L19.5684 24.6686C19.5926 24.6929 19.6169 24.6929 19.6411 24.6929H22.2121C22.2364 24.6929 22.2606 24.6686 22.2849 24.6444L22.7457 23.747V23.6742L15.9301 13.8025C15.9059 13.7782 15.9301 13.754 15.9301 13.7297L22.2121 7.47201C22.2364 7.44775 22.2364 7.4235 22.2364 7.39924V7.27797C22.2364 7.25371 22.2364 7.22946 22.2121 7.2052L21.8483 6.38054C21.8483 6.35629 21.824 6.33203 21.7998 6.33203H19.253C19.2288 6.33203 19.2045 6.35629 19.1803 6.35629L11.3945 14.1906C11.3702 14.2148 11.3702 14.1906 11.3702 14.1663V7.01116C11.3702 6.98691 11.346 6.96266 11.346 6.9384L10.8124 6.38054C10.7881 6.35629 10.7639 6.35629 10.7396 6.35629H8.89625C8.872 6.35629 8.84774 6.38054 8.82349 6.38054L8.28988 6.96266C8.26563 6.98691 8.26562 7.01116 8.26562 7.03542V24.0865Z" fill="white"/>
</g>
<defs>
<clipPath id="clip0_20959_5852">
<rect width="31.0461" height="31.0461" fill="white"/>
</clipPath>
</defs>
</svg>
