<svg width="40" height="34" viewBox="0 0 40 34" fill="none" xmlns="http://www.w3.org/2000/svg">
<path d="M1.17578 32.6168C2.2824 32.6168 3.94233 30.2929 5.87891 29.9609C6.98552 29.9609 7.81549 32.2848 10.582 32.6168C12.5186 32.6168 13.3486 30.2929 15.2852 30.2929C17.2217 30.2929 18.0517 32.6168 19.9883 32.6168C21.9249 32.6168 22.7548 30.2929 24.6914 30.2929C26.628 30.2929 27.458 32.6168 29.3945 32.6168C31.3311 32.6168 32.1611 30.2929 34.0977 30.2929C36.0342 30.2929 36.8642 32.6168 38.8008 32.6168" stroke="#D2D2D2" stroke-width="0.995956" stroke-linecap="round" stroke-linejoin="round"/>
<path d="M4.96239 30.3034L3.69531 27.8799L36.3405 25.7773C33.7732 28.1123 30.4755 30.0046 27.139 31.5539" stroke="#D2D2D2" stroke-width="0.995956" stroke-linecap="round" stroke-linejoin="round"/>
<path d="M16.6934 5.30469C22.2486 7.00335 30.017 15.2089 32.6619 24.0287C31.2122 23.4588 30.1277 22.8778 28.0915 23.3979C26.1217 16.2325 22.5972 9.38811 16.6934 5.30469Z" stroke="#D2D2D2" stroke-width="0.995956" stroke-linecap="round" stroke-linejoin="round"/>
<path d="M6.35936 1.38281C13.4749 4.42601 23.2353 12.8972 25.028 24.1791C16.8224 20.8704 10.5756 22.6354 6.22656 25.319C12.8607 16.8865 9.88394 7.29768 6.35936 1.38281Z" stroke="#D2D2D2" stroke-width="0.995956" stroke-linecap="round" stroke-linejoin="round"/>
</svg>
