<svg width="32" height="32" viewBox="0 0 32 32" fill="none" xmlns="http://www.w3.org/2000/svg">
<g clip-path="url(#clip0_16271_11238)">
<path d="M29.4983 13.5C28.4511 13.5 27.5528 14.1474 27.1811 15.0626H16.9375V16.9378H27.1811C27.5528 17.8531 28.4511 18.5004 29.4983 18.5004C30.8769 18.5004 31.9985 17.3788 31.9985 16.0002C31.9985 14.6216 30.8769 13.5 29.4983 13.5Z" fill="white"/>
<path d="M22.3038 7.94619V5.12925C22.6062 5.00736 22.8895 4.82422 23.1342 4.57951C24.109 3.60467 24.109 2.01847 23.1342 1.04363C22.1593 0.0687906 20.5731 0.0687906 19.5984 1.04363C19.1261 1.51586 18.8661 2.14373 18.8661 2.8116C18.8661 3.47947 19.1262 4.10728 19.5984 4.57957C19.8431 4.82428 20.1263 5.00742 20.4288 5.12925V6.47705L16.9375 7.33763V9.26887L22.3038 7.94619Z" fill="white"/>
<path d="M24.2125 12.9446L25.9596 11.1975C26.2596 11.3252 26.5894 11.396 26.9355 11.396C28.3141 11.396 29.4357 10.2744 29.4357 8.89573C29.4357 7.51711 28.3141 6.39551 26.9355 6.39551C25.5568 6.39551 24.4352 7.51711 24.4352 8.89573C24.4352 9.24176 24.506 9.57161 24.6336 9.87157L23.4358 11.0694H16.9375V12.9446H24.2125Z" fill="white"/>
<path d="M20.4286 25.5233V26.8711C20.1262 26.9929 19.8429 27.1761 19.5982 27.4207C19.126 27.893 18.866 28.5208 18.866 29.1887C18.866 29.8566 19.1261 30.4844 19.5982 30.9567C20.0857 31.4441 20.7259 31.6877 21.3661 31.6877C22.0064 31.6877 22.6466 31.444 23.1341 30.9566C24.1089 29.9818 24.1089 28.3956 23.1341 27.4207C22.8894 27.176 22.6062 26.9929 22.3038 26.871V24.0541L16.9375 22.7314V24.6627L20.4286 25.5233Z" fill="white"/>
<path d="M23.4358 20.9318L24.6336 22.1297C24.506 22.4296 24.4352 22.7595 24.4352 23.1055C24.4352 24.4841 25.5568 25.6057 26.9355 25.6057C28.3141 25.6057 29.4357 24.4841 29.4357 23.1055C29.4357 21.7269 28.3141 20.6053 26.9355 20.6053C26.5894 20.6053 26.2596 20.676 25.9596 20.8037L24.2125 19.0566H16.9375V20.9318H23.4358Z" fill="white"/>
<path d="M11.5402 1.44055C11.5399 1.44049 11.5397 1.44049 11.5393 1.44043V1.44055C9.59699 1.44055 8.01678 3.02076 8.01678 4.96312C8.01678 5.93052 8.401 6.83266 9.09882 7.50329L7.79939 8.85522C6.84749 7.94026 6.27763 6.74378 6.16393 5.44598C4.66529 5.85058 3.55907 7.22126 3.55907 8.84603V12.0041C3.55907 13.4873 4.7658 14.6941 6.249 14.6941V16.5692C3.73184 16.5692 1.6839 14.5213 1.6839 12.0041V11.7052C0.70025 12.0834 0 13.0376 0 14.1528V17.8477C0 19.2932 1.17592 20.4691 2.62142 20.4691H3.55901V23.1543C3.55901 24.7791 4.66523 26.1498 6.16387 26.5544C6.27756 25.2566 6.84737 24.0601 7.79933 23.1451L9.09875 24.4971C8.401 25.1677 8.01672 26.0698 8.01672 27.0372C8.01672 28.9796 9.59692 30.5598 11.5393 30.5598V30.56C11.5395 30.5599 11.5398 30.5599 11.5401 30.5598C13.482 30.5598 15.0619 28.98 15.0619 27.038V4.96237C15.0619 3.02045 13.482 1.44055 11.5402 1.44055Z" fill="white"/>
</g>
<defs>
<clipPath id="clip0_16271_11238">
<rect width="32" height="32" fill="white"/>
</clipPath>
</defs>
</svg>
