<svg width="53" height="20" viewBox="0 0 53 20" fill="none" xmlns="http://www.w3.org/2000/svg">
<g clip-path="url(#clip0_21316_2288)">
<path d="M0 15.5167V7.75214H1.72254V8.73589C2.15713 7.93874 3.10355 7.52344 3.95598 7.52344C4.94894 7.52344 5.81716 7.98659 6.22108 8.89569C6.81201 7.87464 7.69609 7.52344 8.67318 7.52344C10.0393 7.52344 11.3421 8.41719 11.3421 10.4756V15.5167H9.60472V10.778C9.60472 9.86889 9.15431 9.18274 8.14557 9.18274C7.1991 9.18274 6.57842 9.94829 6.57842 10.9052V15.5158H4.81027V10.778C4.81027 9.88514 4.37382 9.18754 3.35016 9.18754C2.38885 9.18754 1.78303 9.92154 1.78303 10.91V15.5205L0 15.5167Z" fill="white"/>
<path d="M13.543 15.5161V3.96484H15.3437V15.5161H13.543Z" fill="white"/>
<path d="M14.6211 19.742C15.0259 19.8578 15.3898 19.9334 16.1622 19.9334C17.5981 19.9334 19.2918 19.1009 19.7375 16.764L21.5782 7.39462H24.3151L24.6492 5.83577H21.8844L22.2566 3.97359C22.5414 2.52766 23.3194 1.79464 24.5683 1.79464C24.8931 1.79464 24.8019 1.82335 25.0913 1.87981L25.4914 0.283638C25.1061 0.164977 24.7609 0.0941639 24.009 0.0941639C23.2152 0.0818899 22.4401 0.342941 21.8072 0.835789C21.1064 1.39273 20.6439 2.21091 20.4327 3.26737L19.9143 5.83577H17.4669L17.2668 7.39562H19.6119L17.9219 16.0588C17.7358 17.0415 17.1923 18.2167 15.6327 18.2167C15.279 18.2167 15.4074 18.1889 15.0873 18.1353L14.6211 19.742Z" fill="#0194E2"/>
<path d="M25.9365 15.4514H24.1367L26.6037 3.79688H28.4035L25.9365 15.4514Z" fill="#0194E2"/>
<path d="M34.915 8.23881C33.3442 7.10856 31.2055 7.33081 29.8864 8.76131C28.5672 10.1918 28.465 12.3997 29.6459 13.9527L30.825 13.0627C30.2397 12.3161 30.1209 11.2913 30.519 10.4241C30.917 9.55686 31.7621 8.99986 32.6946 8.99001V9.93736L34.915 8.23881Z" fill="#43C9ED"/>
<path d="M30.4473 14.7373C32.0181 15.8675 34.1567 15.6453 35.4758 14.2148C36.795 12.7843 36.8973 10.5764 35.7163 9.02344L34.5373 9.91339C35.1225 10.66 35.2414 11.6848 34.8433 12.552C34.4452 13.4192 33.6002 13.9762 32.6677 13.9861V13.0387L30.4473 14.7373Z" fill="#0194E2"/>
<path d="M37.9727 7.74609H39.939L40.3391 13.0523L43.1393 7.74609L45.0061 7.77384L45.7394 13.0523L48.2064 7.74609L50.0061 7.77384L46.2726 15.5203H44.4729L43.6055 9.96714L40.7393 15.5203H38.8725L37.9727 7.74609Z" fill="#0194E2"/>
<path d="M51.0893 7.883H50.7168V7.75H51.6139V7.88585H51.2419V9.0074H51.0893V7.883Z" fill="#0194E2"/>
<path d="M51.8418 7.75H52.028L52.2624 8.41985C52.2925 8.50595 52.3203 8.594 52.3489 8.68205H52.3577C52.3864 8.594 52.4126 8.50595 52.4413 8.41985L52.6738 7.75H52.86V9.0074H52.7151V8.31365C52.7151 8.2036 52.7268 8.0524 52.7345 7.9404H52.7268L52.6339 8.2275L52.4029 8.8792H52.3018L52.0679 8.22845L51.975 7.9414H51.9677C51.976 8.05335 51.9882 8.20455 51.9882 8.3146V9.00835H51.8467L51.8418 7.75Z" fill="#0194E2"/>
</g>
<defs>
<clipPath id="clip0_21316_2288">
<rect width="53" height="20" fill="white"/>
</clipPath>
</defs>
</svg>
