<svg width="32" height="32" viewBox="0 0 32 32" fill="none" xmlns="http://www.w3.org/2000/svg">
<g clip-path="url(#clip0_16285_26676)">
<path d="M7.72656 17.6393L7.72662 17.6396C7.74644 17.6196 7.74512 17.6208 7.72656 17.6393Z" fill="white"/>
<path d="M31.2944 13.2162L29.7032 12.8336C29.3572 11.3231 28.7612 9.88777 27.9282 8.55314L28.7347 7.19927C28.9544 6.83039 28.8949 6.35983 28.5919 6.05683L25.9491 3.41402C25.6461 3.11195 25.1765 3.05152 24.8066 3.2712L23.4528 4.07764C22.1181 3.24464 20.6828 2.6487 19.1723 2.3027L18.7897 0.711453C18.6853 0.294953 18.3109 0.00195312 17.8807 0.00195312H14.1312C13.7009 0.00195312 13.3266 0.294891 13.2222 0.711453L12.8396 2.3027C11.3291 2.6487 9.89375 3.24464 8.55912 4.07764L7.20525 3.2712C6.83637 3.05145 6.36581 3.11102 6.06281 3.41402L3.41988 6.05677C3.11688 6.35977 3.05738 6.83027 3.27706 7.1992L4.0835 8.55308C3.2505 9.8877 2.65456 11.3231 2.30856 12.8335L0.717313 13.2161C0.300813 13.3205 0.0078125 13.6949 0.0078125 14.1251V17.8746C0.0078125 18.3049 0.30075 18.6802 0.718188 18.7836L2.30944 19.1663C2.54012 20.1671 2.88731 21.1287 3.33319 22.051C4.02163 21.3597 7.47925 17.8873 7.72775 17.6391C7.7155 17.576 7.58156 16.3753 7.578 16.1414C7.49825 11.3647 11.3457 7.56433 16.0095 7.56433C20.7052 7.56433 24.4497 11.3507 24.432 16.0291C24.4119 20.3558 21.1826 24.0392 16.6723 24.3761C16.4772 24.3911 15.5951 24.5212 14.3655 24.2788L9.96606 28.6783C10.8848 29.1215 11.8428 29.4664 12.8395 29.6962L13.2221 31.2884C13.3265 31.7049 13.7009 31.9979 14.1311 31.9979H17.8806C18.3109 31.9979 18.6852 31.705 18.7896 31.2884L19.1723 29.6971C20.6827 29.3511 22.1181 28.7552 23.4527 27.9222L24.8066 28.7286C25.1736 28.9484 25.6451 28.888 25.949 28.5858L28.5918 25.943C28.8948 25.64 28.9543 25.1695 28.7346 24.8006L27.9282 23.4467C28.7621 22.1121 29.3571 20.6767 29.7031 19.1653L31.2934 18.7836C31.7109 18.6802 32.0038 18.3049 32.0038 17.8746V14.1251C32.0038 13.695 31.7109 13.3205 31.2944 13.2162Z" fill="white"/>
<path d="M22.3449 14.2862C22.2626 13.9634 22.0134 13.7095 21.6921 13.6215C21.3709 13.5334 21.0277 13.6252 20.7922 13.8607L18.6531 15.9999C17.9219 16.7311 16.7333 16.7311 16.002 15.9999C15.2715 15.2694 15.2715 14.0794 16.002 13.3488L18.142 11.2088C18.3775 10.9733 18.4685 10.6296 18.3804 10.3085C18.2923 9.98746 18.0387 9.7379 17.716 9.6559C13.7607 8.65071 10.2012 11.2272 9.54836 14.7851C9.33873 15.9568 9.43211 17.124 9.81561 18.1987C9.28223 18.7321 1.04386 26.9703 0.822419 27.1919C-0.277018 28.2913 -0.277018 30.08 0.839794 31.1968C1.94617 32.2456 3.64061 32.2897 4.80992 31.1795L13.8032 22.1862C15.2434 22.7002 16.8495 22.6898 18.4214 22.1352C21.2535 21.1358 23.2357 17.7818 22.3449 14.2862Z" fill="white"/>
</g>
<defs>
<clipPath id="clip0_16285_26676">
<rect width="32" height="32" fill="white"/>
</clipPath>
</defs>
</svg>
