<svg width="32" height="32" viewBox="0 0 32 32" fill="none" xmlns="http://www.w3.org/2000/svg">
<g clip-path="url(#clip0_16271_14005)">
<path fill-rule="evenodd" clip-rule="evenodd" d="M30.4993 17.8891L27.8341 18.5368C27.7036 18.5685 27.584 18.6346 27.4877 18.7282C27.3915 18.8219 27.3221 18.9396 27.2869 19.0692C27.027 20.0278 26.6454 20.9492 26.1513 21.8107C26.0844 21.9272 26.05 22.0595 26.0518 22.1937C26.0535 22.328 26.0913 22.4593 26.1612 22.574L27.5888 24.9177L24.9174 27.5891L22.5737 26.1616C22.459 26.0918 22.3278 26.054 22.1936 26.0523C22.0593 26.0505 21.9271 26.0848 21.8107 26.1516C20.9491 26.6455 20.0279 27.0272 19.0694 27.2872C18.9398 27.3222 18.822 27.3915 18.7283 27.4877C18.6346 27.5839 18.5686 27.7035 18.537 27.8341L17.8886 30.5H14.1114L13.4631 27.8336C13.4315 27.7031 13.3654 27.5835 13.2718 27.4873C13.1781 27.391 13.0603 27.3218 12.9306 27.2868C11.9722 27.0267 11.051 26.6451 10.1894 26.1511C10.0729 26.0844 9.94067 26.0501 9.80642 26.0519C9.67216 26.0536 9.54084 26.0914 9.42612 26.1611L7.08238 27.5886L4.41125 24.9176L5.83875 22.5738C5.90867 22.4592 5.94649 22.3278 5.94826 22.1936C5.95003 22.0593 5.91569 21.927 5.84881 21.8106C5.3547 20.949 4.97303 20.0277 4.71313 19.0692C4.67788 18.9397 4.60856 18.8219 4.51238 18.7283C4.4162 18.6347 4.29667 18.5685 4.16625 18.5368L1.5 17.8891V14.1109L4.16625 13.4635C4.2967 13.4317 4.41623 13.3655 4.51241 13.2718C4.60859 13.1781 4.6779 13.0603 4.71313 12.9307C4.97313 11.9723 5.3548 11.0511 5.84881 10.1896C5.91568 10.073 5.95002 9.9407 5.94825 9.80637C5.94648 9.67204 5.90866 9.54065 5.83875 9.42594L4.41125 7.08275L7.08262 4.41138L9.42638 5.83887C9.54108 5.90868 9.67243 5.94641 9.8067 5.94813C9.94097 5.94984 10.0732 5.91548 10.1897 5.84863C11.0511 5.35477 11.9723 4.97321 12.9306 4.71325C13.0602 4.67812 13.1779 4.60888 13.2715 4.51274C13.3652 4.4166 13.4313 4.2971 13.4631 4.16669L14.1114 1.5H17.8886L18.5369 4.16638C18.5685 4.29689 18.6346 4.41652 18.7283 4.51273C18.8219 4.60895 18.9397 4.6782 19.0694 4.71325C20.0278 4.97329 20.949 5.35485 21.8106 5.84863C21.927 5.91553 22.0592 5.94992 22.1935 5.94821C22.3277 5.94649 22.459 5.90873 22.5736 5.83887L24.9174 4.41138L27.5888 7.08275L26.1612 9.42594C26.0913 9.54066 26.0535 9.67205 26.0518 9.80638C26.05 9.94071 26.0844 10.073 26.1513 10.1896C26.6453 11.0511 27.0269 11.9723 27.2869 12.9307C27.3221 13.0604 27.3915 13.1782 27.4877 13.2719C27.5839 13.3656 27.7036 13.4317 27.8341 13.4635L30.4993 14.1109V17.8891ZM31.4279 12.7928L28.6092 12.1085C28.3674 11.3231 28.0526 10.5621 27.6688 9.83544L29.1756 7.35956C29.2639 7.21633 29.3011 7.04744 29.2813 6.88035C29.2615 6.71325 29.1858 6.55776 29.0665 6.43913L25.5613 2.93375C25.4424 2.81489 25.287 2.73941 25.12 2.71942C24.953 2.69943 24.7842 2.73608 24.6406 2.8235L22.165 4.33125C21.4384 3.9472 20.6773 3.63204 19.8919 3.38987L19.2074 0.573125C19.1677 0.409777 19.0744 0.26448 18.9423 0.160549C18.8102 0.0566178 18.647 7.73562e-05 18.4789 0L13.5212 0C13.3531 0.000139329 13.1899 0.0566969 13.0577 0.160613C12.9256 0.264529 12.8321 0.409789 12.7924 0.573125L12.1081 3.39013C11.3227 3.63209 10.5617 3.94718 9.83506 4.33125L7.35944 2.82325C7.21578 2.73587 7.04694 2.69926 6.87999 2.7193C6.71304 2.73933 6.55765 2.81485 6.43875 2.93375L2.93362 6.43913C2.8147 6.55796 2.73915 6.7133 2.7191 6.88022C2.69905 7.04713 2.73566 7.21595 2.82306 7.35956L4.33125 9.83544C3.94714 10.562 3.63201 11.3231 3.39 12.1085L0.573 12.7928C0.409675 12.8325 0.264407 12.9259 0.1605 13.058C0.0565931 13.1901 7.05472e-05 13.3532 0 13.5213L0 18.4787C7.31704e-06 18.6468 0.0565157 18.8101 0.160453 18.9423C0.264389 19.0744 0.409725 19.1678 0.573125 19.2075L3.39 19.8918C3.63201 20.6772 3.94714 21.4382 4.33125 22.1648L2.82306 24.6407C2.73566 24.7843 2.69905 24.9531 2.7191 25.12C2.73915 25.287 2.8147 25.4423 2.93362 25.5611L6.43875 29.0666C6.55769 29.1854 6.71309 29.2609 6.88003 29.2809C7.04698 29.3009 7.2158 29.2642 7.35944 29.1768L9.83506 27.6685C10.5616 28.0529 11.3226 28.3681 12.1081 28.6101L12.7924 31.4271C12.8322 31.5904 12.9256 31.7357 13.0578 31.8396C13.1899 31.9435 13.3531 32.0001 13.5212 32.0003H18.4789C18.647 32.0002 18.8101 31.9436 18.9422 31.8396C19.0743 31.7357 19.1677 31.5904 19.2074 31.4271L19.8919 28.6101C20.6774 28.3681 21.4384 28.0529 22.165 27.6688L24.6406 29.1771C24.7842 29.2645 24.953 29.3011 25.12 29.2811C25.287 29.2611 25.4424 29.1857 25.5613 29.0668L29.0664 25.5614C29.1858 25.4427 29.2615 25.2872 29.2813 25.1201C29.3011 24.9531 29.2638 24.7842 29.1755 24.6409L27.6688 22.1648C28.0527 21.4382 28.3677 20.6772 28.6095 19.8918L31.4282 19.2075C31.5915 19.1677 31.7366 19.0742 31.8403 18.942C31.944 18.8099 32.0002 18.6467 32 18.4787V13.5213C32.0002 13.3533 31.9439 13.1902 31.8401 13.0581C31.7364 12.9259 31.5913 12.8325 31.4281 12.7928H31.4279ZM16 6.45981C10.7393 6.45981 6.45937 10.7397 6.45937 16.0001C6.45937 21.2606 10.7393 25.5405 16 25.5405C21.2607 25.5405 25.5407 21.2606 25.5407 16C25.5407 10.7394 21.2607 6.45981 16 6.45981ZM18.5325 18.7635L21.7676 15.5284L21.7823 16.2092C21.7868 16.4051 21.8677 16.5915 22.0077 16.7285C22.1477 16.8656 22.3358 16.9424 22.5317 16.9427C22.5373 16.9427 22.5438 16.9424 22.5494 16.9424C22.7482 16.9378 22.9371 16.8545 23.0745 16.7108C23.212 16.5671 23.2867 16.3747 23.2824 16.1759L23.2281 13.7504C23.2236 13.5516 23.1404 13.3627 22.9967 13.2253C22.853 13.0878 22.6607 13.0131 22.4619 13.0174L20.0361 13.0714C19.8372 13.0759 19.6482 13.1592 19.5108 13.303C19.3733 13.4468 19.2986 13.6394 19.3031 13.8383C19.3076 14.0372 19.3909 14.2262 19.5347 14.3637C19.6785 14.5012 19.8711 14.5759 20.07 14.5714L20.6157 14.5589L18.0024 17.1724L14.2649 13.4356C14.1953 13.366 14.1126 13.3107 14.0216 13.273C13.9306 13.2353 13.8331 13.2159 13.7346 13.2159C13.6361 13.2159 13.5385 13.2353 13.4475 13.273C13.3565 13.3107 13.2738 13.366 13.2042 13.4356L8.9375 17.7027C8.79943 17.8439 8.72259 18.0338 8.72367 18.2313C8.72474 18.4287 8.80364 18.6178 8.94325 18.7574C9.08285 18.8971 9.27189 18.976 9.46935 18.9772C9.6668 18.9783 9.85674 18.9015 9.99794 18.7635L13.7348 15.0264L17.4716 18.7635C17.5413 18.8332 17.624 18.8884 17.715 18.9261C17.806 18.9638 17.9035 18.9832 18.002 18.9832C18.1005 18.9832 18.198 18.9638 18.289 18.9261C18.38 18.8884 18.4627 18.8332 18.5324 18.7635H18.5325Z" fill="white"/>
</g>
<defs>
<clipPath id="clip0_16271_14005">
<rect width="32" height="32" fill="white"/>
</clipPath>
</defs>
</svg>
