<svg width="28" height="28" viewBox="0 0 28 28" fill="none" xmlns="http://www.w3.org/2000/svg">
<path d="M6.09371 20.8599C6.42825 21.2251 6.89413 21.4423 7.38887 21.4639C7.8836 21.4856 8.36666 21.3098 8.73177 20.9752C9.09689 20.6407 9.31415 20.1748 9.33577 19.6801C9.35738 19.1853 9.18158 18.7023 8.84704 18.3371L4.86871 13.9999L8.84611 9.65995C9.18065 9.29483 9.35645 8.81178 9.33483 8.31704C9.31322 7.82231 9.09595 7.35643 8.73084 7.02188C8.36572 6.68734 7.88267 6.51154 7.38793 6.53315C6.8932 6.55477 6.42732 6.77203 6.09277 7.13715L0.959439 12.7371C0.643832 13.0814 0.46875 13.5315 0.46875 13.9985C0.46875 14.4656 0.643832 14.9157 0.959439 15.2599L6.09371 20.8599Z" fill="white"/>
<path d="M21.9079 7.13996C21.5734 6.77484 21.1075 6.55758 20.6127 6.53596C20.118 6.51434 19.635 6.69015 19.2698 7.02469C18.9047 7.35923 18.6875 7.82512 18.6658 8.31985C18.6442 8.81458 18.82 9.29764 19.1546 9.66276L23.1329 14L19.1555 18.34C18.821 18.7051 18.6452 19.1881 18.6668 19.6829C18.6884 20.1776 18.9057 20.6435 19.2708 20.978C19.6359 21.3126 20.1189 21.4884 20.6137 21.4668C21.1084 21.4451 21.5743 21.2279 21.9088 20.8628L27.0422 15.2628C27.3578 14.9185 27.5329 14.4684 27.5329 14.0014C27.5329 13.5343 27.3578 13.0842 27.0422 12.74L21.9079 7.13996Z" fill="white"/>
<path d="M13.5595 5.29345L10.7595 22.0934C10.6786 22.5816 10.7947 23.0818 11.0824 23.4844C11.3702 23.8869 11.8059 24.1587 12.2939 24.2401C12.3962 24.2573 12.4997 24.266 12.6033 24.2662C13.045 24.2657 13.4721 24.1086 13.8088 23.8229C14.1455 23.5372 14.37 23.1413 14.4425 22.7057L17.2425 5.90572C17.3238 5.41733 17.2078 4.91664 16.9199 4.5138C16.6321 4.11096 16.196 3.83896 15.7076 3.75765C15.4658 3.71739 15.2184 3.72515 14.9796 3.78049C14.7407 3.83584 14.5152 3.93768 14.3157 4.0802C13.9129 4.36805 13.6409 4.80413 13.5595 5.29252V5.29345Z" fill="white"/>
</svg>
