<svg width="98" height="25" viewBox="0 0 98 25" fill="none" xmlns="http://www.w3.org/2000/svg">
<g clip-path="url(#clip0_20959_5805)">
<path d="M37.2806 12.9572C37.2806 9.98056 36.4321 8.45049 34.7351 8.36703C34.0535 8.33921 33.3998 8.43658 32.7599 8.68695C32.2453 8.86778 31.8975 9.04861 31.7167 9.22943V16.3373C32.8017 17.0189 33.7754 17.3388 34.6099 17.2832C36.3904 17.1858 37.2806 15.7392 37.2806 12.9572ZM39.381 13.0824C39.381 14.5986 39.0193 15.8505 38.3099 16.852C37.5171 17.9787 36.4043 18.5629 34.9994 18.5907C33.9423 18.6324 32.8434 18.2847 31.7167 17.5892V24.0572L29.8945 23.4035V9.06252C30.2005 8.70086 30.5761 8.38094 31.049 8.11665C32.134 7.49071 33.4554 7.15688 34.9994 7.14297L35.0272 7.17079C36.446 7.15688 37.5449 7.74109 38.3099 8.90951C39.0193 9.99447 39.381 11.3854 39.381 13.0824ZM50.5227 17.3249C50.5227 19.3557 50.3141 20.7606 49.9107 21.5396C49.5073 22.3185 48.7283 22.9445 47.5738 23.4174C46.6419 23.779 45.6404 23.9877 44.5554 24.0155L44.2494 22.861C45.3483 22.708 46.1272 22.555 46.5723 22.4159C47.4626 22.1099 48.0607 21.6509 48.3945 21.0388C48.6588 20.5381 48.7979 19.5783 48.7979 18.1734V17.7005C47.5738 18.2569 46.2246 18.549 44.8753 18.549C44.0129 18.5629 43.1644 18.2569 42.4968 17.7005C41.7317 17.0884 41.3423 16.2956 41.3423 15.3497V7.76891L43.1644 7.14297V14.7794C43.1644 15.6001 43.4287 16.226 43.9573 16.6712C44.4859 17.1163 45.1674 17.3249 46.002 17.311C46.8366 17.2971 47.7408 16.9633 48.6866 16.3373V7.43507H50.5088L50.5227 17.3249ZM57.6445 18.5072L57.0464 18.5351C56.0171 18.5351 55.2103 18.2847 54.64 17.7978C54.0697 17.311 53.7776 16.6155 53.7776 15.7531V8.57567H52.5257V7.43507H53.7776V4.37493L55.5998 3.72117V7.42116H57.6445V8.56176H55.5998V15.6975C55.5998 16.3791 55.7806 16.8659 56.1562 17.1441C56.4761 17.3806 56.9768 17.5057 57.6584 17.5475V18.5072H57.6445ZM68.6889 18.3542H66.8667V11.3159C66.8667 10.5926 66.6998 9.98056 66.3659 9.4659C65.9765 8.88169 65.4479 8.58958 64.7663 8.58958C63.9317 8.58958 62.8885 9.0347 61.6366 9.91101V18.3403H59.8144V1.52343L61.6227 0.953125V8.6174C62.7911 7.76891 64.0569 7.33771 65.4479 7.33771C66.4076 7.33771 67.2005 7.65763 67.7986 8.31139C68.3967 8.96515 68.7028 9.77191 68.7028 10.7317L68.6889 18.3542ZM78.384 12.6791C78.384 11.5385 78.1614 10.5926 77.7302 9.84146C77.2155 8.92342 76.4088 8.45049 75.3377 8.39485C73.3347 8.50613 72.3471 9.93883 72.3471 12.6791C72.3471 13.9448 72.5558 14.9881 72.9731 15.8366C73.5016 16.9076 74.3084 17.4362 75.3794 17.4223C77.3685 17.4084 78.384 15.8227 78.384 12.6791ZM80.3731 12.693C80.3731 14.3204 79.9558 15.6836 79.1212 16.7685C78.2031 17.9787 76.9373 18.5907 75.3238 18.5907C73.7242 18.5907 72.4723 17.9787 71.5821 16.7685C70.7614 15.6836 70.358 14.3343 70.358 12.693C70.358 11.1629 70.8031 9.86928 71.6795 8.82605C72.6114 7.71327 73.8355 7.15688 75.3516 7.15688C76.8678 7.15688 78.1058 7.71327 79.0516 8.82605C79.9279 9.86928 80.3731 11.149 80.3731 12.693ZM90.8332 18.3542H89.011V10.9125C89.011 10.0918 88.7606 9.4659 88.2738 9.00688C87.787 8.54785 87.1332 8.3253 86.3125 8.35312C85.4501 8.36703 84.6294 8.65913 83.8505 9.20161V18.3681H82.0144V8.96515C83.0576 8.20011 84.0313 7.69936 84.9076 7.46289C85.7422 7.24034 86.4794 7.14297 87.1054 7.14297C87.5366 7.14297 87.94 7.1847 88.3294 7.26816C89.0527 7.43507 89.623 7.74109 90.0821 8.1862C90.5828 8.68695 90.8332 9.28507 90.8332 9.98056V18.3542Z" fill="#D2D2D2"/>
<path d="M11.8822 1.59375C10.9502 1.59375 10.0461 1.67721 9.25322 1.81631C6.93029 2.21969 6.513 3.08209 6.513 4.66781V6.75427H12.0074V7.44976H4.45435C2.85473 7.44976 1.46375 8.40953 1.03255 10.2317C0.531799 12.3182 0.50398 13.6257 1.03255 15.8095C1.42202 17.437 2.35398 18.5915 3.9536 18.5915H5.84533V16.0877C5.84533 14.2795 7.41713 12.6798 9.26713 12.6798H14.7476C16.2776 12.6798 17.4878 11.428 17.4878 9.89788V4.66781C17.4878 3.17946 16.2359 2.06668 14.7476 1.81631C13.8017 1.6633 12.8419 1.59375 11.8822 1.59375ZM8.91938 3.27683C9.48969 3.27683 9.94871 3.74976 9.94871 4.32006C9.94871 4.89036 9.48969 5.3633 8.91938 5.3633C8.34908 5.3633 7.89006 4.89036 7.89006 4.32006C7.89006 3.74976 8.34908 3.27683 8.91938 3.27683Z" fill="url(#paint0_linear_20959_5805)"/>
<path d="M18.1659 7.46094V9.89515C18.1659 11.7869 16.5663 13.3726 14.7441 13.3726H9.26366C7.76141 13.3726 6.52344 14.6523 6.52344 16.1545V21.3846C6.52344 22.873 7.81705 23.7493 9.26366 24.1666C11.0024 24.6812 12.6716 24.7647 14.7441 24.1666C16.1212 23.7632 17.4843 22.9564 17.4843 21.3846V19.2981H12.0039V18.6027H20.2246C21.8242 18.6027 22.4084 17.4899 22.9648 15.8207C23.5351 14.0959 23.5073 12.4545 22.9648 10.2429C22.5753 8.65718 21.8242 7.46094 20.2246 7.46094H18.1659ZM15.0919 20.6891C15.6622 20.6891 16.1212 21.1621 16.1212 21.7324C16.1212 22.3166 15.6622 22.7756 15.0919 22.7756C14.5215 22.7756 14.0625 22.3027 14.0625 21.7324C14.0486 21.1621 14.5215 20.6891 15.0919 20.6891Z" fill="url(#paint1_linear_20959_5805)"/>
<path d="M94.3783 5.79416H94.6982V3.79115H95.4494V3.55469H93.6133V3.79115H94.3644L94.3783 5.79416ZM95.7415 5.79416H96.0197V3.95807L96.6178 5.79416H96.9238L97.5358 3.97198V5.79416H97.8279V3.55469H97.4385L96.7569 5.47423L96.1866 3.55469H95.7415V5.79416Z" fill="#D2D2D2"/>
</g>
<defs>
<linearGradient id="paint0_linear_20959_5805" x1="0.0782574" y1="2.24516" x2="12.6306" y2="13.1492" gradientUnits="userSpaceOnUse">
<stop stop-color="#5A9FD4"/>
<stop offset="1" stop-color="#306998"/>
</linearGradient>
<linearGradient id="paint1_linear_20959_5805" x1="17.5018" y1="19.7751" x2="13.0192" y2="13.3719" gradientUnits="userSpaceOnUse">
<stop stop-color="#FFD43B"/>
<stop offset="1" stop-color="#FFE873"/>
</linearGradient>
<clipPath id="clip0_20959_5805">
<rect width="97.1875" height="23.6466" fill="white" transform="translate(0.642578 0.953125)"/>
</clipPath>
</defs>
</svg>
