<svg width="30" height="34" viewBox="0 0 30 34" fill="none" xmlns="http://www.w3.org/2000/svg">
<path d="M25.0132 9.99136L22.5447 12.4598C26.6588 16.5739 26.6588 23.274 22.5447 27.3881C18.4306 31.5022 11.7305 31.5022 7.61645 27.3881C3.50236 23.274 3.50236 16.5739 7.61645 12.4598L14.199 5.87727L15.0218 4.93691V0L5.03045 9.99136C3.71761 11.291 2.67544 12.8379 1.96418 14.5428C1.25293 16.2477 0.886719 18.0767 0.886719 19.924C0.886719 21.7712 1.25293 23.6002 1.96418 25.3051C2.67544 27.01 3.71761 28.5569 5.03045 29.8565C6.33005 31.1694 7.87701 32.2116 9.58189 32.9228C11.2868 33.6341 13.1157 34.0003 14.963 34.0003C16.8103 34.0003 18.6393 33.6341 20.3442 32.9228C22.0491 32.2116 23.596 31.1694 24.8956 29.8565C30.5378 24.3319 30.5378 15.3985 25.0132 9.99136Z" fill="#EE4C2C"/>
<path d="M20.0741 9.28489C21.1128 9.28489 21.9548 8.44286 21.9548 7.40416C21.9548 6.36547 21.1128 5.52344 20.0741 5.52344C19.0354 5.52344 18.1934 6.36547 18.1934 7.40416C18.1934 8.44286 19.0354 9.28489 20.0741 9.28489Z" fill="#EE4C2C"/>
</svg>
