<svg width="27" height="28" viewBox="0 0 27 28" fill="none" xmlns="http://www.w3.org/2000/svg">
<g clip-path="url(#clip0_21195_27577)">
<path d="M15.4285 4.30859V8.61649L23.1425 12.9244V8.61649L15.4285 4.30859ZM0 8.61649V12.9244L3.85701 15.0779V10.7704L0 8.61649ZM11.571 10.7704L7.71402 12.9244V25.8472L11.571 28.0011V19.3858L15.4285 21.5397V17.2318L11.571 15.0779V10.7704Z" fill="#E55B2D"/>
<path d="M15.4309 4.30859L3.85938 10.7704V15.0779L11.5734 10.7704V15.0779L15.4309 12.9244V4.30859ZM27.0024 6.46254L23.1449 8.61649V12.9244L27.0024 10.7704V6.46254ZM19.2879 15.0779L15.4309 17.2318V21.5397L19.2879 19.3858V15.0779ZM15.4309 21.5397L11.5734 19.3858V28.0011L15.4309 25.8472V21.5397Z" fill="#ED8E24"/>
<path d="M15.4285 0L0 8.61535L3.85701 10.7693L15.4285 4.30745L23.1425 8.61535L27 6.4614L15.4285 0ZM15.4285 12.9232L11.571 15.0768L15.4285 17.2307L19.2855 15.0768L15.4285 12.9232Z" fill="#F8BF3C"/>
</g>
<defs>
<clipPath id="clip0_21195_27577">
<rect width="27" height="28" fill="white"/>
</clipPath>
</defs>
</svg>
