<svg width="32" height="32" viewBox="0 0 32 32" fill="none" xmlns="http://www.w3.org/2000/svg">
<path d="M29.9449 8.9248L19.1275 15.6931C18.1641 16.2959 17.0838 16.5974 16.0036 16.5974C14.9234 16.5974 13.8432 16.2959 12.8797 15.6931L2.06297 8.92518C2.03224 9.09839 2.01562 9.27571 2.01562 9.4556V12.1355L13.8737 19.5549C15.1875 20.3769 16.8197 20.3769 18.1336 19.5549L29.9917 12.1354V9.4556C29.9917 9.27496 29.9754 9.0977 29.9449 8.9248Z" fill="white"/>
<path d="M16.0036 22.0475C14.9234 22.0475 13.8432 21.7461 12.8798 21.1433L2.01562 14.3458V17.5232L13.8737 24.9427C15.1875 25.7647 16.8197 25.7647 18.1336 24.9427L29.9917 17.5232V14.3457L19.1275 21.1433C18.1641 21.7461 17.0838 22.0475 16.0036 22.0475Z" fill="white"/>
<path d="M18.1338 14.1047L29.0462 7.27701C28.9248 7.16583 28.7942 7.06433 28.6541 6.97663L18.7942 0.807377C17.9339 0.269146 16.9689 0 16.0039 0C15.0389 0 14.0738 0.269146 13.2136 0.807377L3.3537 6.97663C3.21291 7.0647 3.0823 7.16589 2.96094 7.27663L13.8738 14.1047C15.1877 14.9267 16.8201 14.9267 18.1338 14.1047Z" fill="white"/>
<path d="M16.0037 27.4352C14.9235 27.4352 13.8433 27.1338 12.8798 26.531L2.01562 19.7334V22.5439C2.01562 23.5617 2.52419 24.5041 3.35349 25.023L13.2133 31.1922C14.0736 31.7305 15.0386 31.9996 16.0036 31.9996C16.9686 31.9996 17.9337 31.7304 18.7939 31.1922L28.6539 25.023C29.4832 24.5041 29.9917 23.5617 29.9917 22.5439V19.7335L19.1275 26.531C18.164 27.1338 17.0838 27.4352 16.0037 27.4352Z" fill="white"/>
</svg>
