<svg xmlns="http://www.w3.org/2000/svg" width="84.783" height="82.006" viewBox="0 0 84.783 82.006">
  <g id="banner-check" transform="translate(-101.019 -39.085)">
    <path id="Path_110" data-name="Path 110" d="M302.075,49.132,264.047,90.078l-11.681-16.21h0a2.861,2.861,0,1,0-4.635,3.347l13.722,19.052a2.859,2.859,0,0,0,2.145,1.183h.172a2.86,2.86,0,0,0,2.1-.954l40.394-43.472a2.861,2.861,0,1,0-4.2-3.891Z" transform="translate(-121.223 -7.577)" fill="#56e995"/>
    <path id="Path_111" data-name="Path 111" d="M178.84,69.675a2.861,2.861,0,0,0-2.241,3.366,35.957,35.957,0,0,1,.706,7.066,35.282,35.282,0,1,1-18.519-31.048,2.867,2.867,0,1,0,2.746-5.034,41,41,0,1,0,21.492,36.082,41.826,41.826,0,0,0-.82-8.191,2.861,2.861,0,0,0-3.366-2.241Z" fill="#56e995"/>
  </g>
</svg>
