<svg width="133" height="28" viewBox="0 0 133 28" fill="none" xmlns="http://www.w3.org/2000/svg">
<path d="M10.86 15.78C10.86 15.14 10.62 14.62 10.14 14.22C9.68 13.82 9.09 13.46 8.37 13.14C7.67 12.8 6.9 12.46 6.06 12.12C5.24 11.76 4.47 11.33 3.75 10.83C3.05 10.31 2.46 9.67 1.98 8.91C1.52 8.15 1.29 7.18 1.29 6C1.29 4.98 1.46 4.1 1.8 3.36C2.14 2.6 2.62 1.97 3.24 1.47C3.88 0.97 4.63 0.6 5.49 0.360001C6.35 0.12 7.31 0 8.37 0C9.59 0 10.74 0.11 11.82 0.330001C12.9 0.530001 13.79 0.830001 14.49 1.23L13.2 4.68C12.76 4.4 12.1 4.15 11.22 3.93C10.34 3.69 9.39 3.57 8.37 3.57C7.41 3.57 6.67 3.76 6.15 4.14C5.65 4.52 5.4 5.03 5.4 5.67C5.4 6.27 5.63 6.77 6.09 7.17C6.57 7.57 7.16 7.94 7.86 8.28C8.58 8.62 9.35 8.97 10.17 9.33C11.01 9.69 11.78 10.13 12.48 10.65C13.2 11.15 13.79 11.78 14.25 12.54C14.73 13.28 14.97 14.21 14.97 15.33C14.97 16.45 14.78 17.42 14.4 18.24C14.04 19.04 13.52 19.71 12.84 20.25C12.18 20.79 11.37 21.19 10.41 21.45C9.47 21.71 8.43 21.84 7.29 21.84C5.79 21.84 4.47 21.7 3.33 21.42C2.19 21.14 1.35 20.86 0.809998 20.58L2.13 17.07C2.35 17.19 2.63 17.32 2.97 17.46C3.33 17.6 3.73 17.73 4.17 17.85C4.61 17.97 5.07 18.07 5.55 18.15C6.05 18.23 6.56 18.27 7.08 18.27C8.3 18.27 9.23 18.07 9.87 17.67C10.53 17.25 10.86 16.62 10.86 15.78Z" fill="black"/>
<path d="M17.9782 6.42H21.8782V21.42H17.9782V6.42ZM17.4082 2.19C17.4082 1.61 17.6182 1.12 18.0382 0.72C18.4782 0.3 19.0782 0.0900006 19.8382 0.0900006C20.5982 0.0900006 21.2082 0.3 21.6682 0.72C22.1482 1.12 22.3882 1.61 22.3882 2.19C22.3882 2.77 22.1482 3.26 21.6682 3.66C21.2082 4.04 20.5982 4.23 19.8382 4.23C19.0782 4.23 18.4782 4.04 18.0382 3.66C17.6182 3.26 17.4082 2.77 17.4082 2.19Z" fill="black"/>
<path d="M38.3648 21.42C38.3648 23.6 37.7748 25.2 36.5948 26.22C35.4148 27.26 33.7648 27.78 31.6448 27.78C30.2048 27.78 29.0648 27.68 28.2248 27.48C27.4048 27.28 26.7848 27.07 26.3648 26.85L27.1748 23.76C27.6348 23.94 28.1648 24.12 28.7648 24.3C29.3848 24.48 30.1448 24.57 31.0448 24.57C32.4048 24.57 33.3248 24.27 33.8048 23.67C34.3048 23.09 34.5548 22.27 34.5548 21.21V20.25H34.4348C33.7348 21.19 32.4948 21.66 30.7148 21.66C28.7748 21.66 27.3248 21.06 26.3648 19.86C25.4248 18.66 24.9548 16.78 24.9548 14.22C24.9548 11.54 25.5948 9.51 26.8748 8.13C28.1548 6.75 30.0148 6.06 32.4548 6.06C33.7348 6.06 34.8748 6.15 35.8748 6.33C36.8948 6.51 37.7248 6.72 38.3648 6.96V21.42ZM31.7648 18.54C32.5248 18.54 33.1048 18.37 33.5048 18.03C33.9248 17.69 34.2448 17.18 34.4648 16.5V9.75C33.8448 9.49 33.0748 9.36 32.1548 9.36C31.1548 9.36 30.3748 9.74 29.8148 10.5C29.2548 11.24 28.9748 12.43 28.9748 14.07C28.9748 15.53 29.2148 16.64 29.6948 17.4C30.1748 18.16 30.8648 18.54 31.7648 18.54Z" fill="black"/>
<path d="M50.9388 21.42V12.9C50.9388 11.68 50.7588 10.8 50.3988 10.26C50.0588 9.72 49.4688 9.45 48.6288 9.45C47.8888 9.45 47.2588 9.67 46.7388 10.11C46.2388 10.53 45.8788 11.06 45.6588 11.7V21.42H41.7588V6.42H44.8488L45.2988 8.4H45.4188C45.8788 7.76 46.4888 7.2 47.2488 6.72C48.0088 6.24 48.9888 6 50.1888 6C50.9288 6 51.5888 6.1 52.1688 6.3C52.7488 6.5 53.2388 6.83 53.6388 7.29C54.0388 7.75 54.3388 8.38 54.5388 9.18C54.7388 9.96 54.8388 10.93 54.8388 12.09V21.42H50.9388Z" fill="black"/>
<path d="M58.0165 7.29C58.8165 6.93 59.7665 6.65 60.8665 6.45C61.9665 6.23 63.1165 6.12 64.3165 6.12C65.3565 6.12 66.2265 6.25 66.9265 6.51C67.6265 6.75 68.1765 7.1 68.5765 7.56C68.9965 8.02 69.2865 8.57 69.4465 9.21C69.6265 9.85 69.7165 10.57 69.7165 11.37C69.7165 12.25 69.6865 13.14 69.6265 14.04C69.5665 14.92 69.5265 15.79 69.5065 16.65C69.5065 17.51 69.5365 18.35 69.5965 19.17C69.6565 19.97 69.8065 20.73 70.0465 21.45H66.8665L66.2365 19.38H66.0865C65.6865 20 65.1265 20.54 64.4065 21C63.7065 21.44 62.7965 21.66 61.6765 21.66C60.9765 21.66 60.3465 21.56 59.7865 21.36C59.2265 21.14 58.7465 20.84 58.3465 20.46C57.9465 20.06 57.6365 19.6 57.4165 19.08C57.1965 18.54 57.0865 17.94 57.0865 17.28C57.0865 16.36 57.2865 15.59 57.6865 14.97C58.1065 14.33 58.6965 13.82 59.4565 13.44C60.2365 13.04 61.1565 12.77 62.2165 12.63C63.2965 12.47 64.4965 12.42 65.8165 12.48C65.9565 11.36 65.8765 10.56 65.5765 10.08C65.2765 9.58 64.6065 9.33 63.5665 9.33C62.7865 9.33 61.9565 9.41 61.0765 9.57C60.2165 9.73 59.5065 9.94 58.9465 10.2L58.0165 7.29ZM62.9665 18.45C63.7465 18.45 64.3665 18.28 64.8265 17.94C65.2865 17.58 65.6265 17.2 65.8465 16.8V14.85C65.2265 14.79 64.6265 14.78 64.0465 14.82C63.4865 14.86 62.9865 14.95 62.5465 15.09C62.1065 15.23 61.7565 15.43 61.4965 15.69C61.2365 15.95 61.1065 16.28 61.1065 16.68C61.1065 17.24 61.2665 17.68 61.5865 18C61.9265 18.3 62.3865 18.45 62.9665 18.45Z" fill="black"/>
<path d="M77.0093 16.38C77.0093 17.08 77.0993 17.59 77.2793 17.91C77.4593 18.23 77.7493 18.39 78.1493 18.39C78.3893 18.39 78.6193 18.37 78.8393 18.33C79.0793 18.29 79.3693 18.2 79.7093 18.06L80.1293 21.12C79.8093 21.28 79.3193 21.44 78.6593 21.6C77.9993 21.76 77.3193 21.84 76.6193 21.84C75.4793 21.84 74.6093 21.58 74.0093 21.06C73.4093 20.52 73.1093 19.64 73.1093 18.42V0.42H77.0093V16.38Z" fill="black"/>
<path d="M93.6877 12.63H86.0077V21.42H81.8977V0.42H86.0077V8.97H93.6877V0.42H97.7977V21.42H93.6877V12.63Z" fill="#478ACC"/>
<path d="M101.709 6.42H105.609V21.42H101.709V6.42ZM101.139 2.19C101.139 1.61 101.349 1.12 101.769 0.72C102.209 0.3 102.809 0.0900006 103.569 0.0900006C104.329 0.0900006 104.939 0.3 105.399 0.72C105.879 1.12 106.119 1.61 106.119 2.19C106.119 2.77 105.879 3.26 105.399 3.66C104.939 4.04 104.329 4.23 103.569 4.23C102.809 4.23 102.209 4.04 101.769 3.66C101.349 3.26 101.139 2.77 101.139 2.19Z" fill="#478ACC"/>
<path d="M117.685 10.08C117.065 9.86 116.505 9.75 116.005 9.75C115.305 9.75 114.715 9.94 114.235 10.32C113.775 10.68 113.465 11.15 113.305 11.73V21.42H109.405V6.42H112.435L112.885 8.4H113.005C113.345 7.66 113.805 7.09 114.385 6.69C114.965 6.29 115.645 6.09 116.425 6.09C116.945 6.09 117.535 6.2 118.195 6.42L117.685 10.08Z" fill="#478ACC"/>
<path d="M131.923 20.13C131.323 20.61 130.503 21.02 129.463 21.36C128.443 21.68 127.353 21.84 126.193 21.84C123.773 21.84 122.003 21.14 120.883 19.74C119.763 18.32 119.203 16.38 119.203 13.92C119.203 11.28 119.833 9.3 121.093 7.98C122.353 6.66 124.123 6 126.403 6C127.163 6 127.903 6.1 128.623 6.3C129.343 6.5 129.983 6.83 130.543 7.29C131.103 7.75 131.553 8.37 131.893 9.15C132.233 9.93 132.403 10.9 132.403 12.06C132.403 12.48 132.373 12.93 132.313 13.41C132.273 13.89 132.203 14.39 132.103 14.91H123.103C123.163 16.17 123.483 17.12 124.063 17.76C124.663 18.4 125.623 18.72 126.943 18.72C127.763 18.72 128.493 18.6 129.133 18.36C129.793 18.1 130.293 17.84 130.633 17.58L131.923 20.13ZM126.343 9.12C125.323 9.12 124.563 9.43 124.063 10.05C123.583 10.65 123.293 11.46 123.193 12.48H128.773C128.853 11.4 128.683 10.57 128.263 9.99C127.863 9.41 127.223 9.12 126.343 9.12Z" fill="#478ACC"/>
</svg>
