<svg width="136" height="93" xmlns="http://www.w3.org/2000/svg"><g fill="none" fill-rule="evenodd"><path d="M43.19 0v69.104" stroke="#000" stroke-width=".517"/><path d="M83.964 20.497c2.162 0 3.394 1.78 3.394 3.856 0 2.076-1.232 3.839-3.394 3.839-.8 0-1.531-.38-1.864-.774v3.328h-2.063V20.662H82.1v.61c.333-.396 1.065-.775 1.864-.775zm35.175 0c.974 0 1.759.235 2.442.67v1.889c-.683-.535-1.468-.92-2.34-.92-.58 0-1.024.217-1.024.635 0 .402.29.535.82.702l.854.251c1.451.401 2.117 1.07 2.117 2.275 0 1.504-1.35 2.307-3.142 2.307-1.007 0-2.049-.268-2.698-.752V25.63c.734.652 1.793 1.036 2.63 1.036.632 0 1.126-.183 1.126-.635 0-.418-.34-.568-.87-.736l-.734-.2c-1.332-.352-2.169-.97-2.169-2.258 0-1.454 1.281-2.34 2.988-2.34zm-7.27 0c2.181 0 3.306 1.506 3.306 3.712v.67h-4.835c.168 1.22 1.058 1.721 2.166 1.721.823 0 1.41-.183 2.15-.651v1.705c-.622.451-1.461.652-2.469.652-2.283 0-3.844-1.472-3.844-3.846 0-2.341 1.477-3.963 3.525-3.963zm-11.092 0c1.717 0 2.686 1.129 2.686 2.82v4.989h-2.108v-4.544c0-.804-.408-1.35-1.24-1.35-.646 0-1.207.392-1.377 1.059v4.835H96.63v-7.638h2.108v.701c.408-.479 1.155-.872 2.04-.872zm-38.065 0c2.173 0 3.66 1.606 3.66 3.913 0 2.291-1.487 3.896-3.66 3.896s-3.66-1.605-3.66-3.896c0-2.307 1.487-3.913 3.66-3.913zm28.859 0c1.99 0 3.107 1.059 3.107 2.889v4.785h-1.925v-.403c-.243.252-.955.538-1.748.538-1.457 0-2.671-.873-2.671-2.435 0-1.427 1.214-2.401 2.8-2.401.63 0 1.327.218 1.619.437v-.42c0-.723-.6-1.176-1.619-1.176-.728 0-1.408.218-1.975.605V21.12c.518-.336 1.457-.622 2.412-.622zM55.389 17.57c1.125 0 2.015.305 2.687.813v2.184c-.79-.694-1.613-1.015-2.587-1.015-1.847 0-3.056 1.338-3.056 3.386 0 2.033 1.21 3.37 3.056 3.37.974 0 1.797-.304 2.587-.998v2.184c-.672.507-1.562.813-2.687.813-2.99 0-5.122-2.151-5.122-5.369 0-3.217 2.133-5.368 5.122-5.368zm51.795 3.319v7.418h-2.058v-7.418h2.058zm-31.08-.39c1.545 0 2.469 1.093 2.469 2.819v4.989h-2.084v-4.544c0-.821-.353-1.368-1.075-1.368-.537 0-1.025.342-1.16.991v4.92h-2.099v-4.543c0-.821-.337-1.368-1.059-1.368-.537 0-1.042.342-1.176.991v4.92h-2.084v-7.637h2.084v.632c.37-.478 1.059-.803 1.898-.803.891 0 1.597.41 2.017.974.488-.546 1.21-.974 2.268-.974zm15.37 4.432c-.631 0-1.28.286-1.28.924 0 .655.649.924 1.28.924.566 0 1.1-.252 1.279-.655v-.538c-.178-.403-.713-.655-1.279-.655zm-28.762-2.676c-1.036 0-1.604.903-1.604 2.156 0 1.237.568 2.14 1.604 2.14s1.604-.903 1.604-2.14c0-1.253-.568-2.156-1.604-2.156zm20.786.023c-.616 0-1.148.362-1.398.857v2.422c.25.51.799.856 1.398.856 1.114 0 1.78-.889 1.78-2.06 0-1.185-.666-2.075-1.78-2.075zm28.42-.124c-.688 0-1.275.435-1.51 1.371h2.837c-.05-.803-.504-1.371-1.326-1.371zm-5.763-4.584c.647 0 1.212.498 1.212 1.178 0 .697-.565 1.18-1.212 1.18-.663 0-1.228-.483-1.228-1.18 0-.68.565-1.178 1.228-1.178zM68.308 3.416c.841 0 1.498.357 1.834.73v-.568h2.087v6.454c0 2.66-2.037 3.633-4.09 3.633-1.026 0-1.985-.243-2.591-.617V11.07c.774.649 1.582.892 2.557.892 1.128 0 2.037-.552 2.037-1.735V10c-.336.372-.993.73-1.834.73-2.171 0-3.4-1.687-3.4-3.649 0-1.978 1.229-3.665 3.4-3.665zM76.288 0v4.03c.408-.463 1.156-.843 2.04-.843 1.716 0 2.685 1.091 2.685 2.726v4.824h-2.107V6.343c0-.776-.408-1.305-1.241-1.305-.646 0-1.207.38-1.377 1.024v4.675h-2.107V0h2.107zM63.75 3.319v7.418h-2.06V3.319h2.059zM130.948 0v4.03c.408-.463 1.156-.843 2.04-.843 1.716 0 2.685 1.091 2.685 2.726v4.824h-2.107V6.343c0-.776-.409-1.305-1.242-1.305-.645 0-1.206.38-1.376 1.024v4.675h-2.108V0h2.108zM52.861.488V4.56h4.573V.488h2.106v10.249h-2.106V6.43h-4.573v4.306h-2.106V.488h2.106zm73.478.976V3.44h1.525v1.633h-1.525v5.665h-1.99V5.072h-1.365V3.44h1.365V1.464h1.99zM93.133 0c1.171 0 2.21.322 2.945.864v2.168c-.836-.678-1.757-1.05-2.945-1.05-1.84 0-3.13 1.354-3.13 3.403 0 2.016 1.14 3.42 2.963 3.42.67 0 1.272-.168 1.724-.542V6.69h-1.74V4.911h3.68v4.352c-1.004 1.033-2.359 1.474-3.714 1.474-3.112 0-5.07-2.202-5.07-5.352C87.846 2.167 90.055 0 93.133 0zm14.478 2.928c2.173 0 3.66 1.605 3.66 3.913 0 2.29-1.487 3.896-3.66 3.896s-3.66-1.605-3.66-3.896c0-2.308 1.487-3.913 3.66-3.913zm5.72.488l1.33 4.668 1.214-4.668h1.58l1.23 4.668 1.329-4.668h1.994l-2.26 7.32h-1.895L116.64 6.25l-1.214 4.488h-1.895l-2.26-7.32h2.06zm-11.118-.488c.34 0 .648.069.762.137v2.12c-.276-.172-.633-.257-1.005-.257-.68 0-1.232.376-1.378 1.076v4.733h-2.01V3.099h2.01v.752a1.842 1.842 0 011.621-.923zM68.745 5.103c-1.11 0-1.75.827-1.75 1.978 0 1.135.64 1.962 1.75 1.962.623 0 1.161-.324 1.397-.746V5.85c-.236-.406-.774-.746-1.397-.746zm38.866-.419c-1.036 0-1.604.903-1.604 2.157 0 1.237.568 2.14 1.604 2.14s1.604-.903 1.604-2.14c0-1.254-.568-2.157-1.604-2.157zm-21.23.684V7.32h-3.904V5.368h3.905zM62.722 0c.647 0 1.211.498 1.211 1.178 0 .697-.564 1.18-1.212 1.18-.663 0-1.228-.483-1.228-1.18 0-.68.565-1.178 1.228-1.178zM54.14 36.114l2.96 7.809h-.987l-.875-2.353h-3.12l-.864 2.353h-.987l2.96-7.809h.913zm45.252 2.27v5.539H98.26v-5.538h1.132zm-39.34-.318c.627 0 1.202.178 1.653.495v.989c-.463-.393-.977-.672-1.653-.672-.575 0-1.05.253-1.05.735 0 .457.3.608.825.799l.852.29c.837.292 1.301.787 1.301 1.585 0 1.04-.914 1.636-2.077 1.636-.726 0-1.415-.229-1.827-.558V42.35c.512.482 1.15.76 1.827.76.612 0 1.15-.228 1.15-.786 0-.418-.312-.646-.8-.81l-.764-.266c-.838-.28-1.401-.685-1.401-1.598 0-.988.863-1.585 1.964-1.585zm36.817-2.44c.305 0 .52.038.737.126v.856a1.113 1.113 0 00-.597-.151c-.558 0-.926.352-.926 1.02v.856h1.269v.806h-1.27v4.784h-.94v-4.784h-.952v-.806h.952V37.4c0-1.12.737-1.775 1.727-1.775zm-32.615 2.759v5.538h-1.132v-5.538h1.132zm28.793 0v5.538h-1.131v-5.538h1.131zm-25.336-.319c1.306 0 2.077.737 2.077 1.932v3.824h-.908v-.42c-.211.229-.784.52-1.431.52-1.132 0-2.053-.686-2.053-1.803 0-1.054.921-1.766 2.103-1.766.573 0 1.144.241 1.381.458v-.737c0-.7-.51-1.13-1.319-1.13-.61 0-1.107.19-1.568.495v-.902c.374-.267 1.034-.47 1.718-.47zm21.982 0c.567 0 1.16.127 1.569.47v.963c-.422-.406-.936-.583-1.503-.583-1.043 0-1.887.785-1.887 2.078 0 1.293.844 2.08 1.887 2.08.567 0 1.08-.179 1.503-.584v.963c-.409.342-1.002.47-1.57.47-1.582 0-2.822-1.129-2.822-2.929 0-1.8 1.24-2.928 2.823-2.928zm13.664 0c.567 0 1.16.127 1.57.47v.963c-.422-.406-.937-.583-1.504-.583-1.042 0-1.886.785-1.886 2.078 0 1.293.844 2.08 1.886 2.08.567 0 1.082-.179 1.504-.584v.963c-.41.342-1.003.47-1.57.47-1.583 0-2.823-1.129-2.823-2.929 0-1.8 1.24-2.928 2.823-2.928zm-25.38-1.952c1.542 0 2.548.801 2.548 2.34 0 1.526-1.006 2.34-2.548 2.34H76.14v3.129h-.982v-7.809h2.82zm5.838 1.952c1.307 0 2.079.737 2.079 1.932v3.824h-.909v-.42c-.211.229-.784.52-1.43.52-1.133 0-2.054-.686-2.054-1.803 0-1.054.92-1.766 2.103-1.766.573 0 1.144.241 1.381.458v-.737c0-.7-.51-1.13-1.318-1.13-.61 0-1.108.19-1.569.495v-.902c.374-.267 1.034-.47 1.717-.47zM67.6 41.141c-.672 0-1.319.304-1.319.978 0 .686.647 1.004 1.319 1.004.585 0 1.132-.28 1.281-.7v-.583c-.149-.42-.696-.699-1.281-.699zm16.105 0c-.672 0-1.319.304-1.319.978 0 .686.647 1.004 1.319 1.004.585 0 1.132-.28 1.281-.7v-.583c-.149-.42-.696-.699-1.281-.699zm-10.011-1.122v.976h-2.928v-.976h2.928zM53.67 37.36l-1.233 3.332h2.467L53.67 37.36zm24.294-.369H76.14v2.913h1.826c1.032 0 1.59-.572 1.59-1.45 0-.89-.558-1.463-1.59-1.463zm-14.284-.877c.407 0 .74.263.74.599 0 .324-.333.599-.74.599-.393 0-.725-.275-.725-.599 0-.336.332-.599.725-.599zm28.793 0c.407 0 .74.263.74.599 0 .324-.333.599-.74.599-.392 0-.724-.275-.724-.599 0-.336.332-.599.724-.599zm6.345 0c.407 0 .74.263.74.599 0 .324-.333.599-.74.599-.393 0-.725-.275-.725-.599 0-.336.332-.599.725-.599z" fill="#000" fill-rule="nonzero"/><path d="M60.516 66.034v2.778H50.267v-.1l4.368-5.856c1.39-1.852 2.391-3.103 2.391-4.705 0-1.2-.756-2.002-2.171-2.002-1.635 0-3.197 1.05-4.198 2.002v-3.129c1.074-1.025 2.831-1.827 4.759-1.827 2.904 0 4.758 1.777 4.758 4.556 0 2.026-1.269 3.853-2.709 5.83l-1.83 2.453h4.88m4.615-5.03c0 2.809.858 5 2.95 5 2.067 0 2.95-2.191 2.95-5 0-2.807-.883-5-2.95-5-2.092 0-2.95 2.193-2.95 5zm-3.15 0c0-4.606 2.47-7.809 6.1-7.809 3.63 0 6.1 3.203 6.1 7.809s-2.47 7.808-6.1 7.808c-3.63 0-6.1-3.202-6.1-7.808zm23.425 5.03v2.778H75.157v-.1l4.368-5.856c1.39-1.852 2.39-3.103 2.39-4.705 0-1.2-.755-2.002-2.17-2.002-1.636 0-3.198 1.05-4.198 2.002v-3.129c1.074-1.025 2.83-1.827 4.759-1.827 2.903 0 4.758 1.777 4.758 4.556 0 2.026-1.27 3.853-2.709 5.83l-1.83 2.453h4.88m12.355 0v2.778H87.513v-.1l4.368-5.856c1.39-1.852 2.39-3.103 2.39-4.705 0-1.2-.755-2.002-2.17-2.002-1.636 0-3.197 1.05-4.198 2.002v-3.129c1.074-1.025 2.83-1.827 4.759-1.827 2.903 0 4.758 1.777 4.758 4.556 0 2.026-1.269 3.853-2.709 5.83l-1.83 2.453h4.88" fill="#F6C7A3" fill-rule="nonzero"/><path d="M1.687 63.444c.917 0 1.532.568 1.708 1.376l-.99.154c-.083-.414-.29-.645-.665-.645-.303 0-.51.144-.51.414 0 .808 2.186 1.135 2.186 2.674 0 .924-.687 1.395-1.635 1.395-1.02 0-1.604-.538-1.781-1.443l1.02-.26c.073.434.24.819.771.819.302 0 .521-.165.521-.453 0-.894-2.187-1.231-2.187-2.646 0-.817.687-1.385 1.562-1.385zM5.61 61.98v1.43h.735v.907H5.61v3.056c0 .276.118.433.373.433h.362v.947a1.89 1.89 0 01-.549.06c-.823 0-1.283-.385-1.283-1.194v-3.302h-.608v-.908h.608V61.98H5.61zm3.017 1.464c.993 0 1.556.462 1.556 1.404v3.32c0 .163.038.375.067.548H9.227c-.01-.144-.047-.279-.057-.404-.4.327-.735.5-1.25.5-.725 0-1.088-.5-1.088-1.164 0-1.135.745-1.76 2.28-2.347v-.308c0-.433-.17-.664-.524-.664-.487 0-.591.289-.61.731h-1.07c.058-1.048.717-1.616 1.718-1.616zm4.304-1.464v1.43h.735v.907h-.735v3.056c0 .276.117.433.373.433h.362v.947c-.147.04-.275.06-.549.06-.823 0-1.283-.385-1.283-1.194v-3.302h-.608v-.908h.608V61.98h1.097zm2.199 1.461v5.371h-.976v-5.37h.976zm2.664.003c.916 0 1.53.568 1.707 1.376l-.989.154c-.083-.414-.291-.645-.666-.645-.302 0-.51.144-.51.414 0 .808 2.186 1.135 2.186 2.674 0 .924-.687 1.395-1.634 1.395-1.021 0-1.604-.538-1.782-1.443l1.02-.26c.074.434.24.819.772.819.301 0 .52-.165.52-.453 0-.894-2.187-1.231-2.187-2.646 0-.817.687-1.385 1.563-1.385zm3.433-1.464v1.43h.735v.907h-.735v3.056c0 .276.118.433.373.433h.362v.947c-.147.04-.275.06-.548.06-.824 0-1.284-.385-1.284-1.194v-3.302h-.608v-.908h.608V61.98h1.097zm3.506 1.464c.992 0 1.555.462 1.555 1.404v3.32c0 .163.038.375.067.548h-1.021c-.01-.144-.048-.279-.058-.404-.4.327-.734.5-1.25.5-.725 0-1.088-.5-1.088-1.164 0-1.135.745-1.76 2.281-2.347v-.308c0-.433-.172-.664-.525-.664-.486 0-.591.289-.61.731h-1.069c.058-1.048.715-1.616 1.718-1.616zm10.406.795v4.334a.239.239 0 01-.239.24h-6.354a.24.24 0 01-.24-.24v-.49c.098.002 1.293.033 2.205-.442.88-.456 1.499-1.351 1.499-1.351l.233-.336.077-.108c.01-.012.046-.064.082-.115l.254-.366s.405-.586.95-.868c.443-.23 1.471-.251 1.471-.251a.318.318 0 00.062-.007zm-26.025 1.85c-.974.558-1.212.914-1.212 1.367 0 .337.172.472.496.472.296 0 .535-.222.716-.482V66.09zm16.105 0c-.973.558-1.212.914-1.212 1.367 0 .337.172.472.496.472.296 0 .535-.222.716-.482V66.09zM34.9 61.98a.24.24 0 01.24.239v.494l-.02-.002s-1.26-.055-2.212.44c-.88.456-1.5 1.351-1.5 1.351-.102.15-.207.3-.232.336a9.98 9.98 0 00-.159.223l-.254.366s-.406.586-.95.869c-.443.23-1.471.25-1.471.25a.19.19 0 00-.035.003v-4.33a.24.24 0 01.239-.239H34.9zm-19.77 0v1.019h-.976V61.98h.976z" fill="#000" fill-rule="nonzero"/><path d="M35.138 0v34.162H.976V0h34.162zM16.593 4.88c-.404.077-.858.128-2.146.128H4.88v.69c1.49 0 2.02.077 2.02 1.304v11.502c0 1.227-.53 1.303-2.02 1.303v.69h7.195v-.69c-2.045 0-2.348-.255-2.348-1.38v-5.495h1.843c1.994 0 2.095.306 2.247 1.891h.58v-4.626h-.58c-.152 1.584-.253 1.917-2.247 1.917H9.727V5.775h2.322c2.928 0 3.585.562 3.913 3.885h.631V4.88zm15.129 0c-.408.077-.867.128-2.167.128l-9.565-.001c-1.123-.006-1.55-.055-1.933-.127v4.78h.638c.331-3.323.994-3.885 3.951-3.885h.816v12.652c0 1.202-.484 1.38-2.397 1.38v.69h7.623v-.69c-1.912 0-2.371-.178-2.371-1.38V5.775h.816c2.958 0 3.62.562 3.952 3.884h.637V4.88z" fill="#F6C7A3" fill-rule="nonzero"/><path d="M2.325 40.412c0 .316.087.389.675.389v.194H.976V40.8c.4 0 .537-.037.537-.382v-3.206c0-.345-.138-.38-.537-.38v-.194h2.778c.37 0 .5-.015.617-.037l.021 1.23h-.166c-.094-.9-.32-.978-1.16-.978h-.74v1.783h.601c.573 0 .61-.093.653-.54h.16V39.4h-.16c-.044-.446-.08-.532-.653-.532h-.602v1.545m2.067.582v-.196c.413 0 .556-.037.556-.385v-3.232c0-.348-.143-.384-.556-.384v-.196h1.952v.196c-.412 0-.555.036-.555.384v3.232c0 .348.143.385.555.385v.196H4.392m6.156 0l-2.833-3.666v3.002c0 .35.233.4.623.4v.192H6.832v-.192c.39 0 .61-.05.61-.4v-3.33c-.185-.192-.315-.206-.61-.206v-.193h1.334l2.176 2.917v-2.325c0-.35-.232-.4-.622-.4v-.192h1.505v.193c-.39 0-.61.05-.61.399v3.8h-.067m2.121-1.969h1.133l-.59-1.56-.543 1.56zm.06 1.97h-1.504V40.8c.398 0 .577-.058.701-.41l1.36-3.789h.379l1.464 3.817c.13.339.192.382.488.382v.194h-1.746V40.8c.536 0 .584-.043.454-.382l-.433-1.157h-1.306l-.385 1.121c-.124.345.068.418.529.418v.194zm6.617 0l-2.777-3.666v3.002c0 .35.229.4.61.4v.192h-1.441v-.192c.355 0 .563-.05.563-.4v-3.323c-.201-.2-.355-.213-.684-.213v-.193h1.395l2.132 2.917v-2.325c0-.35-.228-.4-.61-.4v-.192h1.475v.193c-.382 0-.596.05-.596.399v3.8h-.067m4.736-4.329h.111l.067 1.27-.17.007c-.112-.73-.52-1.108-1.27-1.108-.83 0-1.47.673-1.47 1.712 0 1.325.884 2.077 1.812 2.077.4 0 .764-.106 1.113-.463l.127.126c-.29.386-.854.709-1.619.709-1.136 0-2.286-.807-2.286-2.161 0-1.306 1.047-2.232 2.316-2.232.601 0 .92.246 1.083.246.09 0 .142-.063.186-.183m.32 4.33v-.196c.413 0 .555-.037.555-.385v-3.232c0-.348-.142-.384-.555-.384v-.196h1.952v.196c-.413 0-.556.036-.556.384v3.232c0 .348.143.385.556.385v.196h-1.952m3.813-1.97h1.16l-.605-1.56-.555 1.56zm.063 1.97h-1.436V40.8c.317 0 .485-.058.612-.41l1.393-3.789h.388l1.499 3.817c.134.339.197.382.5.382v.194h-1.788V40.8c.549 0 .598-.043.464-.382l-.443-1.157H28.13l-.395 1.121c-.126.345.071.418.543.418v.194z" fill="#000" fill-rule="nonzero"/><path d="M31.234 40.995v-.196c.392 0 .528-.037.528-.385v-3.232c0-.348-.136-.384-.528-.384v-.196h1.847v.196c-.392 0-.52.036-.52.384v3.262c0 .29.142.326.377.326h.222c.834 0 1.105-.123 1.333-1.095l.157.022-.136 1.298h-3.28M4.86 42.947l.02 1.3h-.162c-.092-.934-.311-1.049-1.132-1.049h-.262v3.559c0 .338.128.388.658.388v.194H1.867v-.194c.53 0 .665-.05.665-.388v-3.559h-.261c-.821 0-1.04.115-1.132 1.05H.976l.021-1.301c.113.021.24.036.601.036h2.66c.36 0 .488-.015.601-.036m.021 4.392v-.196c.413 0 .556-.036.556-.384v-3.232c0-.348-.143-.385-.556-.385v-.195h1.952v.195c-.413 0-.555.037-.555.385v3.232c0 .348.142.384.555.384v.196H4.88m7.469-4.392v.192c-.375 0-.539.022-.505.364l.32 3.208c.035.328.157.363.525.363v.193h-1.765v-.193c.368 0 .498-.035.47-.363l-.333-3.372-1.301 4h-.055l-1.26-4-.314 3.365c-.034.342.191.37.566.37v.193H7.32v-.193c.375 0 .505-.063.532-.37l.313-3.201c.034-.342-.13-.364-.504-.364v-.192h1.451l.872 2.952.94-2.952h1.425m3.503 2.783h-.15c-.042-.45-.076-.536-.619-.536h-.63v1.594c0 .29.137.327.363.327h.343c.803 0 1.064-.124 1.283-1.095l.151.022-.144 1.297h-3.272v-.196c.377 0 .507-.036.507-.384v-3.232c0-.348-.13-.385-.507-.385v-.195h3.142l.013 1.094h-.158c-.096-.776-.28-.87-1.104-.87h-.618v1.79h.631c.543 0 .577-.093.618-.543h.151v1.312m3.468.75c0-.388-.247-.586-.67-.819l-.679-.353c-.508-.275-.812-.572-.812-1.108 0-.671.572-1.187 1.32-1.187.516 0 .777.248.926.248.098 0 .14-.064.183-.184h.12l.064 1.2-.156.007c-.084-.579-.5-1.03-1.087-1.03-.438 0-.734.26-.734.635 0 .41.31.572.65.762l.585.31c.55.298.94.602.94 1.173 0 .756-.65 1.3-1.469 1.3-.572 0-.854-.276-1.01-.276-.099 0-.148.085-.19.219h-.12l-.085-1.278.155-.022c.12.791.671 1.123 1.221 1.123.46 0 .848-.205.848-.72" fill="#000" fill-rule="nonzero"/><path d="M4.882 92.894v-.95h-3.17l.46-.41c.52-.46.947-.864 1.28-1.21.333-.347.622-.737.865-1.17.243-.434.365-.88.365-1.34 0-.42-.092-.794-.275-1.12a1.883 1.883 0 00-.795-.76c-.347-.18-.763-.27-1.25-.27-.673 0-1.228.201-1.665.605-.437.403-.665.985-.685 1.745h1.1c.013-.42.128-.755.345-1.005.217-.25.522-.375.915-.375.407 0 .705.11.895.33.19.22.285.52.285.9 0 .366-.122.738-.365 1.115a6.207 6.207 0 01-.915 1.095c-.367.353-.87.803-1.51 1.35l-.74.64v.83h4.86zm3.6.08c.953 0 1.625-.324 2.015-.97.39-.647.585-1.537.585-2.67 0-1.127-.195-2.014-.585-2.66-.39-.647-1.062-.97-2.015-.97-.953 0-1.625.323-2.015.97-.39.646-.585 1.533-.585 2.66 0 1.133.195 2.023.585 2.67.39.646 1.062.97 2.015.97zm0-1.04c-.42 0-.737-.117-.95-.35a1.81 1.81 0 01-.425-.9 7.346 7.346 0 01-.105-1.35c0-.527.035-.974.105-1.34.07-.367.212-.667.425-.9.213-.234.53-.35.95-.35.42 0 .737.116.95.35.213.233.355.533.425.9.07.366.105.813.105 1.34 0 .533-.035.983-.105 1.35a1.81 1.81 0 01-.425.9c-.213.233-.53.35-.95.35zm8.58.96v-.95h-3.17l.46-.41c.52-.46.947-.864 1.28-1.21.333-.347.622-.737.865-1.17.243-.434.365-.88.365-1.34 0-.42-.092-.794-.275-1.12a1.883 1.883 0 00-.795-.76c-.347-.18-.763-.27-1.25-.27-.673 0-1.228.201-1.665.605-.437.403-.665.985-.685 1.745h1.1c.013-.42.128-.755.345-1.005.217-.25.522-.375.915-.375.407 0 .705.11.895.33.19.22.285.52.285.9 0 .366-.122.738-.365 1.115a6.207 6.207 0 01-.915 1.095c-.367.353-.87.803-1.51 1.35l-.74.64v.83h4.86zm3.6.08c.953 0 1.625-.324 2.015-.97.39-.647.585-1.537.585-2.67 0-1.127-.195-2.014-.585-2.66-.39-.647-1.062-.97-2.015-.97-.953 0-1.625.323-2.015.97-.39.646-.585 1.533-.585 2.66 0 1.133.195 2.023.585 2.67.39.646 1.062.97 2.015.97zm0-1.04c-.42 0-.737-.117-.95-.35a1.81 1.81 0 01-.425-.9 7.346 7.346 0 01-.105-1.35c0-.527.035-.974.105-1.34.07-.367.212-.667.425-.9.213-.234.53-.35.95-.35.42 0 .737.116.95.35.213.233.355.533.425.9.07.366.105.813.105 1.34 0 .533-.035.983-.105 1.35a1.81 1.81 0 01-.425.9c-.213.233-.53.35-.95.35zm18.22.96v-.95h-3.17l.46-.41c.52-.46.947-.864 1.28-1.21.333-.347.622-.737.865-1.17.243-.434.365-.88.365-1.34 0-.42-.092-.794-.275-1.12a1.883 1.883 0 00-.795-.76c-.347-.18-.763-.27-1.25-.27-.673 0-1.228.201-1.665.605-.437.403-.665.985-.685 1.745h1.1c.013-.42.128-.755.345-1.005.217-.25.522-.375.915-.375.407 0 .705.11.895.33.19.22.285.52.285.9 0 .366-.122.738-.365 1.115a6.207 6.207 0 01-.915 1.095c-.367.353-.87.803-1.51 1.35l-.74.64v.83h4.86zm3.6.08c.953 0 1.625-.324 2.015-.97.39-.647.585-1.537.585-2.67 0-1.127-.195-2.014-.585-2.66-.39-.647-1.062-.97-2.015-.97-.953 0-1.625.323-2.015.97-.39.646-.585 1.533-.585 2.66 0 1.133.195 2.023.585 2.67.39.646 1.062.97 2.015.97zm0-1.04c-.42 0-.737-.117-.95-.35a1.81 1.81 0 01-.425-.9 7.346 7.346 0 01-.105-1.35c0-.527.035-.974.105-1.34.07-.367.212-.667.425-.9.213-.234.53-.35.95-.35.42 0 .737.116.95.35.213.233.355.533.425.9.07.366.105.813.105 1.34 0 .533-.035.983-.105 1.35a1.81 1.81 0 01-.425.9c-.213.233-.53.35-.95.35zm8.58.96v-.95h-3.17l.46-.41c.52-.46.947-.864 1.28-1.21.333-.347.622-.737.865-1.17.243-.434.365-.88.365-1.34 0-.42-.092-.794-.275-1.12a1.883 1.883 0 00-.795-.76c-.347-.18-.763-.27-1.25-.27-.673 0-1.228.201-1.665.605-.437.403-.665.985-.685 1.745h1.1c.013-.42.128-.755.345-1.005.217-.25.522-.375.915-.375.407 0 .705.11.895.33.19.22.285.52.285.9 0 .366-.122.738-.365 1.115a6.207 6.207 0 01-.915 1.095c-.367.353-.87.803-1.51 1.35l-.74.64v.83h4.86zm2.93.1v-7.1h-2.08v1.04h.93v6.06h1.15zm14.89-.1v-.95h-3.17l.46-.41c.52-.46.947-.864 1.28-1.21.333-.347.622-.737.865-1.17.243-.434.365-.88.365-1.34 0-.42-.092-.794-.275-1.12a1.883 1.883 0 00-.795-.76c-.347-.18-.763-.27-1.25-.27-.673 0-1.228.201-1.665.605-.437.403-.665.985-.685 1.745h1.1c.013-.42.128-.755.345-1.005.217-.25.522-.375.915-.375.407 0 .705.11.895.33.19.22.285.52.285.9 0 .366-.122.738-.365 1.115a6.207 6.207 0 01-.915 1.095c-.367.353-.87.803-1.51 1.35l-.74.64v.83h4.86zm3.6.08c.953 0 1.625-.324 2.015-.97.39-.647.585-1.537.585-2.67 0-1.127-.195-2.014-.585-2.66-.39-.647-1.062-.97-2.015-.97-.953 0-1.625.323-2.015.97-.39.646-.585 1.533-.585 2.66 0 1.133.195 2.023.585 2.67.39.646 1.062.97 2.015.97zm0-1.04c-.42 0-.737-.117-.95-.35a1.81 1.81 0 01-.425-.9 7.346 7.346 0 01-.105-1.35c0-.527.035-.974.105-1.34.07-.367.212-.667.425-.9.213-.234.53-.35.95-.35.42 0 .737.116.95.35.213.233.355.533.425.9.07.366.105.813.105 1.34 0 .533-.035.983-.105 1.35a1.81 1.81 0 01-.425.9c-.213.233-.53.35-.95.35zm8.58.96v-.95h-3.17l.46-.41c.52-.46.947-.864 1.28-1.21.333-.347.622-.737.865-1.17.243-.434.365-.88.365-1.34 0-.42-.092-.794-.275-1.12a1.883 1.883 0 00-.795-.76c-.347-.18-.763-.27-1.25-.27-.673 0-1.228.201-1.665.605-.437.403-.665.985-.685 1.745h1.1c.013-.42.128-.755.345-1.005.217-.25.522-.375.915-.375.407 0 .705.11.895.33.19.22.285.52.285.9 0 .366-.122.738-.365 1.115a6.207 6.207 0 01-.915 1.095c-.367.353-.87.803-1.51 1.35l-.74.64v.83h4.86zm5.77 0v-.95h-3.17l.46-.41c.52-.46.947-.864 1.28-1.21.333-.347.622-.737.865-1.17.243-.434.365-.88.365-1.34 0-.42-.092-.794-.275-1.12a1.883 1.883 0 00-.795-.76c-.347-.18-.763-.27-1.25-.27-.673 0-1.228.201-1.665.605-.437.403-.665.985-.685 1.745h1.1c.013-.42.128-.755.345-1.005.217-.25.522-.375.915-.375.407 0 .705.11.895.33.19.22.285.52.285.9 0 .366-.122.738-.365 1.115a6.207 6.207 0 01-.915 1.095c-.367.353-.87.803-1.51 1.35l-.74.64v.83h4.86zM41 79.5c0 .15.013.296.038.439H13v-.5h28v.061zm32-.062v.062c0 .15.013.296.038.439H45.962A2.55 2.55 0 0046 79.5l-.002-.062h27.003z" fill="#F6C7A3" fill-rule="nonzero"/><circle fill="#F6C7A3" fill-rule="nonzero" cx="75.5" cy="79.5" r="1.5"/><circle fill="#F6C7A3" fill-rule="nonzero" cx="43.5" cy="79.5" r="1.5"/><circle fill="#F6C7A3" fill-rule="nonzero" cx="10.5" cy="79.5" r="1.5"/></g></svg>