<?xml version="1.0" encoding="utf-8"?>
<!-- Generator: Adobe Illustrator 27.5.0, SVG Export Plug-In . SVG Version: 6.00 Build 0)  -->
<svg version="1.1" xmlns="http://www.w3.org/2000/svg" xmlns:xlink="http://www.w3.org/1999/xlink" x="0px" y="0px"
	 viewBox="0 0 750 500" style="enable-background:new 0 0 750 500;" xml:space="preserve">
<g id="Layer_2">
	<rect style="fill:#FFFFFF;" width="750" height="500"/>
</g>
<g id="Layer_1">
	<g>
		<path style="fill:#E7E7F7;" d="M258.259,268.412c0.012,0.489,0.025,0.996,0.056,1.484c0.542,11.947,2.548,23.782,6.31,35.141
			c1.22,3.674,2.608,7.307,4.183,10.878c4.94,11.104,12.305,21.395,21.46,29.554c5.462,4.885,11.583,9.001,18.204,12.09
			c20.321,9.498,38.76,1.592,60.088,0.911c15.146-0.471,30.43,0.088,45.324,3.14c14.895,3.052,29.195,8.657,41.801,17.238
			c14.482,9.87,21.754,24.018,33.909,35.582c3.852,3.665,9.584,7.284,17.28,9.743c3.913,1.576,8.023,2.753,12.252,3.4
			c4.248,0.665,8.633,0.8,13.152,0.293c21.098-2.331,40.478-15.507,53.93-31.902c14.363-17.527,24.245-37.557,29.72-58.605
			c3.52-13.458,5.225-27.304,5.18-41.2c-0.121-29.014-7.917-58.119-23.148-83.766c-43.929-73.978-137.547-126.257-223.961-104.453
			c-0.804,0.208-1.588,0.416-2.391,0.643c-0.486,0.106-0.99,0.25-1.476,0.394c-2.54,0.703-5.078,1.499-7.576,2.351
			c-6.545,2.25-12.909,4.966-18.997,8.183c-4.788,2.545-9.4,5.387-13.817,8.524c-5.099,3.644-10.007,7.433-14.648,11.385
			c-3.684,3.101-7.215,6.31-10.573,9.647c-7.672,7.563-14.502,15.725-20.411,24.655c-2.864,4.303-5.517,8.788-7.901,13.473
			c-3.212,6.192-6.002,12.73-8.349,19.653c-4.556,13.371-7.722,27.479-9.022,41.729C258.23,255.174,258.02,261.817,258.259,268.412z
			"/>
		<g>
			<g>
				<path style="fill:#2E2C41;" d="M471.598,250.814c0,0-15.967,7.463-29.239-6.53c-13.272-13.993-0.207-55.041-0.207-55.041
					l12.649-12.128c0,0,14.93-0.466,15.138,1.166s7.465,41.747,7.465,41.747L471.598,250.814z"/>
				<path style="fill:#2E2C41;" d="M426.392,132.335c0,0-31.097-9.941-40.214,26.91c-6.249,25.257,14.776,40.746,12.011,59.715
					c-2.765,18.969-11.21,9.857-18.039,25.557c-6.746,15.509,17.502,37.734,21.097,36.801c3.594-0.933,17.889-15.033,25.907-21.564
					c8.018-6.53,12.719-35.761,12.719-35.761l-8.018-70.589L426.392,132.335z"/>
				<g>
					<g>
						<path style="fill:#FDB096;" d="M464.958,205.911c0,0-2.349,15.785-0.664,24.929c2.607,14.142,8.857,34.342,8.857,34.342
							l-36.967,21.475c0,0-13.512-21.45-13.421-21.774s-2.008-29.808-2.008-29.808L464.958,205.911z"/>
						<path style="fill:#FDB096;" d="M403.247,142.326c0,0-17.758,16.95-13.176,48.446c4.582,31.495,22.097,55.804,36.46,53.816
							c14.363-1.987,34.23-25.203,39.623-40.314c5.393-15.111,7.313-43.751-6.887-60.878S419.104,131.596,403.247,142.326z"/>
						<path style="fill:#FFFFFF;" d="M418.491,224.543c0,0,8.207,8.172,13.951-1.826L418.491,224.543z"/>
						<g>
							<path style="fill:#2E2C41;" d="M406.59,187.929c0,0-7.386-5.212-11.417,3.324L406.59,187.929z"/>
							
								<ellipse transform="matrix(0.9942 -0.1074 0.1074 0.9942 -19.1482 44.688)" style="fill:#2E2C41;" cx="405.473" cy="200.186" rx="2.78" ry="3.755"/>
							
								<ellipse transform="matrix(0.9942 -0.1074 0.1074 0.9942 -18.6399 47.6425)" style="fill:#2E2C41;" cx="433.167" cy="196.942" rx="2.78" ry="3.755"/>
							
								<polyline style="fill:none;stroke:#2E2C41;stroke-width:1.0637;stroke-linecap:round;stroke-linejoin:round;stroke-miterlimit:10;" points="
								418.802,205.747 418.604,213.215 421.598,213.205 							"/>
							<path style="fill:#2E2C41;" d="M427.371,185.283c0,0,6.104-6.668,11.863,0.811L427.371,185.283z"/>
						</g>
					</g>
				</g>
				<path style="fill:#5D56D5;" d="M378.996,260.977c0,0-14.516,8.756-20.967,53.456s-12.673,66.819-12.673,66.819l-56.22,41.474
					l47.083,20.853c0,0,41.856-24.309,51.995-51.959c10.138-27.649,13.825-116.819,13.825-116.819L378.996,260.977z"/>
				<path style="fill:#5D56D5;" d="M395.662,428.257c2.041-14.423,2.686-32.392-2.847-46.655
					c-11.066-28.578-9.562-38.489-5.882-64.301c3.706-25.785-7.924-56.324-7.924-56.324l41.229-16.142
					c0,0,0.108,24.442,19.929,21.675c19.822-2.767,26.967-32.151,26.967-32.151s41.229-0.107,57.371,7.95
					c0,0-2.417,50.925-1.504,90.086c0.645,27.531,5.399,71.929,8.165,95.861H395.662z"/>
				
					<path style="fill:none;stroke:#2E2C41;stroke-width:1.0637;stroke-linecap:round;stroke-linejoin:round;stroke-miterlimit:10;" d="
					M392.821,381.598c-11.06-28.571-9.562-38.479-5.876-64.285c0.888-6.218,0.887-12.71,0.373-18.983"/>
				<g>
					<path style="fill:#2E2C41;" d="M478.769,260.353c14.85-27.734,9.609-20.855,17.47-21.947
						c12.433-1.727,8.021-12.719-6.879-33.739c-8.788-12.398-11.289-31.961-11.465-46.187
						c-0.328-26.533-31.446-46.187-51.504-26.145c0,0-9.746,1.788-14.032,18.425c0,0,17.554,27.7,43.753,31.96
						c20.145,3.276,9.116,18.952,7.043,33.412S473.446,270.294,478.769,260.353z"/>
					<g>
						<path style="fill:#FDB096;" d="M465.255,205.959c8.301-2.847,13.341-23.002,7.136-25.875s-8.566,4.415-8.566,4.415
							L465.255,205.959z"/>
						<g>
							
								<path style="fill:none;stroke:#2E2C41;stroke-width:1.0637;stroke-linecap:round;stroke-linejoin:round;stroke-miterlimit:10;" d="
								M465.998,195.574c0,0-0.226-10.489,2.722-11.184c2.262-0.533,3.245,3.323,3.245,3.323"/>
							
								<path style="fill:none;stroke:#2E2C41;stroke-width:1.0637;stroke-linecap:round;stroke-linejoin:round;stroke-miterlimit:10;" d="
								M466.639,188.328c0,0,1.577-3.077,3.684-0.988"/>
						</g>
					</g>
					<path style="fill:#2E2C41;" d="M412.36,150.76c0,0-22.069,14.918-21.378,44.615c0,0-7.787-22.845,0.088-39.329
						c10.94-22.898,34.008-23.012,34.008-23.012S419.807,133.804,412.36,150.76z"/>
				</g>
				<g>
					<path style="fill:#2E2C41;" d="M449.635,430.615l0.758,2.14c0.712,2.01-0.069,4.245-1.877,5.375l-51.5,10.09h-8l-4.836-5
						l57.23-11.304L449.635,430.615z"/>
					<polygon style="fill:#2E2C41;" points="391.989,442.024 449.635,430.615 358.911,427.482 					"/>
					
						<line style="fill:none;stroke:#FFFFFF;stroke-width:0.6715;stroke-miterlimit:10;" x1="391.438" y1="441.252" x2="449.635" y2="430.615"/>
					<path style="fill:#2E2C41;" d="M231.008,445.131h161.538l-31.783-97.433c-0.622-1.907-2.401-3.198-4.407-3.198H204.57
						c-3.151,0-5.384,3.077-4.407,6.073L231.008,445.131z"/>
					<path style="fill:#2E2C41;" d="M231.008,445.131l158.008,3.09l-31.626-96.95c-0.716-2.195-2.763-3.68-5.072-3.68H202.003
						c-3.627,0-6.197,3.541-5.072,6.989L231.008,445.131z"/>
					
						<ellipse transform="matrix(0.971 -0.239 0.239 0.971 -86.8696 80.558)" style="fill:#E7E7F7;" cx="288.79" cy="398.533" rx="8.853" ry="10.754"/>
					<path style="fill:none;stroke:#FFFFFF;stroke-width:0.6715;stroke-miterlimit:10;" d="M389.016,448.22l-31.626-96.95
						c-0.716-2.195-2.763-3.68-5.072-3.68H202.003"/>
				</g>
				<g>
					<g>
						<path style="fill:#FDB096;" d="M387.938,422.872c0.555-6.402,8.653-15.91,8.653-15.91s-8.493,1.59-9.632,5.045
							C385.823,415.472,387.938,422.872,387.938,422.872z"/>
						<path style="fill:#FDB096;" d="M391.222,426.934c0,0-1.058,6.809,4.776,7.097c0,0,2.131,4.371,6.662,3.092
							c0,0,0.662,2.984,7.227,0.548c6.554-2.443,10.692-4.171,17.107-5.06c6.424-0.891,18.958-6.576,18.958-6.576l-6.123-22.901
							c0,0-18.251-6.967-22.169-6.746c-3.928,0.223-15.566,6.496-17.481,7.552c-1.913,1.066-3.588,3.021-3.588,3.021
							s-8.098,9.508-8.653,15.91C387.938,422.872,388.026,427.312,391.222,426.934z"/>
						<polygon style="fill:#FDB096;" points="445.952,426.035 463.327,418.826 458.239,403.217 449.798,398.476 440.895,399.516 
							435.46,399.632 429.795,401.482 440.432,417.67 						"/>
						
							<path style="fill:none;stroke:#2E2C41;stroke-width:1.0637;stroke-linecap:round;stroke-linejoin:round;stroke-miterlimit:10;" d="
							M391.222,426.935c0,0,6.958-8.382,10.755-11.388c3.796-3.006,12.948-8.061,12.948-8.061"/>
						
							<path style="fill:none;stroke:#2E2C41;stroke-width:1.0637;stroke-linecap:round;stroke-linejoin:round;stroke-miterlimit:10;" d="
							M396.003,434.032c0,0,7.284-7.165,11.072-9.688s11.416-6.347,11.416-6.347"/>
						
							<path style="fill:none;stroke:#2E2C41;stroke-width:1.0637;stroke-linecap:round;stroke-linejoin:round;stroke-miterlimit:10;" d="
							M402.665,437.126c0,0,4.732-2.844,10.062-5.505c5.33-2.661,9.712-4.244,9.712-4.244"/>
					</g>
				</g>
				<path style="fill:#5D56D5;" d="M524.501,242.314c0,0,24.4,9.677,25.783,57.142s6.912,101.842-14.286,113.363
					c-21.198,11.521-96.815,16.266-96.815,16.266s11.24-28.938-6.271-28.708l72.119-27.419c0,0,1.494-58.898,0.115-77.418
					C502.727,263.051,517.589,243.005,524.501,242.314z"/>
				
					<path style="fill:none;stroke:#2E2C41;stroke-width:1.0637;stroke-linecap:round;stroke-linejoin:round;stroke-miterlimit:10;" d="
					M432.912,400.376l72.119-27.419c0,0,1.494-58.898,0.115-77.418"/>
				
					<path style="fill:none;stroke:#2E2C41;stroke-width:1.0637;stroke-linecap:round;stroke-linejoin:round;stroke-miterlimit:10;" d="
					M505.031,372.957c0,0,16.359-2.074,23.272,4.147"/>
				
					<path style="fill:none;stroke:#2E2C41;stroke-width:1.0637;stroke-linecap:round;stroke-linejoin:round;stroke-miterlimit:10;" d="
					M426.392,132.335c0,0-11.543,8.084-14.032,18.425"/>
			</g>
			<g>
				<path style="fill:#2E2C41;" d="M110.186,225.124h171.053c1.451,0,2.628,1.177,2.628,2.629v70.982
					c0,1.452-1.177,2.629-2.628,2.629h-7.391v12.87l-23.387-12.87H110.186c-1.451,0-2.628-1.177-2.628-2.629v-70.982
					C107.558,226.301,108.735,225.124,110.186,225.124z"/>
				<path style="fill:#FFFFFF;stroke:#2E2C41;stroke-width:1.2343;stroke-miterlimit:10;" d="M114.101,218.813h171.053
					c1.451,0,2.628,1.177,2.628,2.629v70.982c0,1.452-1.177,2.629-2.628,2.629h-7.391v12.87l-23.387-12.87H114.101
					c-1.451,0-2.628-1.177-2.628-2.629v-70.982C111.472,219.99,112.65,218.813,114.101,218.813z"/>
				<path style="fill:#2E2C41;" d="M362.653,150.715H191.601c-1.451,0-2.628,1.177-2.628,2.629v70.982
					c0,1.452,1.177,2.629,2.628,2.629h7.391v12.87l23.387-12.87h140.276c1.451,0,2.628-1.177,2.628-2.629v-70.982
					C365.282,151.892,364.105,150.715,362.653,150.715z"/>
				<path style="fill:#FFFFFF;stroke:#2E2C41;stroke-width:1.2343;stroke-miterlimit:10;" d="M366.808,144.643H195.755
					c-1.451,0-2.628,1.177-2.628,2.629v70.982c0,1.452,1.177,2.629,2.628,2.629h7.391v12.87l23.387-12.87h140.276
					c1.451,0,2.628-1.177,2.628-2.629v-70.982C369.436,145.82,368.259,144.643,366.808,144.643z"/>
				<g>
					<g>
						<circle style="fill:#9F9FE6;" cx="334.008" cy="183.841" r="20.366"/>
						<g>
							<circle style="fill:#FFFFFF;" cx="334.008" cy="178.344" r="4.788"/>
							<path style="fill:#FFFFFF;" d="M326.434,194.126h15.15v-6.46c0-1.01-0.819-1.829-1.829-1.829h-11.491
								c-1.01,0-1.829,0.819-1.829,1.829V194.126z"/>
						</g>
					</g>
					<g>
						
							<line style="fill:none;stroke:#5D56D5;stroke-width:1.376;stroke-miterlimit:10;" x1="290.847" y1="169.381" x2="208.172" y2="169.381"/>
						
							<line style="fill:none;stroke:#5D56D5;stroke-width:1.376;stroke-miterlimit:10;" x1="290.847" y1="183.841" x2="208.172" y2="183.841"/>
						
							<line style="fill:none;stroke:#5D56D5;stroke-width:1.376;stroke-miterlimit:10;" x1="258.639" y1="198.301" x2="208.966" y2="198.301"/>
					</g>
				</g>
				<g>
					<g>
						<circle style="fill:#5D56D5;" cx="144.502" cy="259.712" r="20.366"/>
						<g>
							<circle style="fill:#FFFFFF;" cx="144.502" cy="254.215" r="4.788"/>
							<path style="fill:#FFFFFF;" d="M152.077,269.996h-15.15v-6.46c0-1.01,0.819-1.829,1.829-1.829h11.491
								c1.01,0,1.829,0.819,1.829,1.829V269.996z"/>
						</g>
					</g>
					<g>
						
							<line style="fill:none;stroke:#5D56D5;stroke-width:1.376;stroke-miterlimit:10;" x1="187.663" y1="245.252" x2="270.338" y2="245.252"/>
						
							<line style="fill:none;stroke:#5D56D5;stroke-width:1.376;stroke-miterlimit:10;" x1="187.663" y1="259.712" x2="270.338" y2="259.712"/>
						
							<line style="fill:none;stroke:#5D56D5;stroke-width:1.376;stroke-miterlimit:10;" x1="187.663" y1="274.171" x2="237.336" y2="274.171"/>
					</g>
				</g>
			</g>
			<g>
				<circle style="fill:#9F9FE6;" cx="609.987" cy="353.031" r="32.453"/>
				<g>
					<path style="fill:#FFFFFF;" d="M594.866,337.416c0.016-0.014,0.033-0.024,0.055-0.038c0.622-0.446,1.194-0.942,1.735-1.427
						l0.203-0.175c0.322-0.282,0.621-0.546,0.961-0.814c1.547-1.257,3.293-1.098,4.56,0.414l4.305,5.064
						c0.62,0.682,0.927,1.491,0.861,2.292c-0.065,0.795-0.488,1.542-1.222,2.165l-3.15,2.671c-0.099,0.089-0.204,0.191-0.215,0.319
						c-0.002,0.025-0.007,0.082,0.04,0.211c0.009,0.021,0.019,0.038,0.029,0.058c0.147,0.299,0.282,0.625,0.415,0.963
						c0.123,0.306,0.26,0.651,0.428,0.967c1.434,2.738,3.392,5.283,5.997,7.766c0.007,0.009,0.012,0.017,0.018,0.026
						c1.429,1.317,2.632,2.203,3.89,2.85l0.011,0.005c0.281,0.117,0.348,0.123,0.568-0.061c0.005-0.006,0.011-0.009,0.017-0.015
						c0.714-0.677,1.427-1.289,2.277-1.992c0.178-0.157,0.358-0.31,0.542-0.464l0.253-0.207c1.546-1.31,3.25-1.171,4.562,0.372
						l2.123,2.498c0.129,0.152,0.265,0.299,0.39,0.456c0.126,0.141,0.247,0.277,0.37,0.416c0.541,0.622,0.99,1.145,1.43,1.695
						l0.007,0.008c0.597,0.706,0.878,1.493,0.813,2.286c-0.063,0.773-0.463,1.516-1.155,2.142c-0.011,0.012-0.02,0.018-0.032,0.031
						l-3.139,2.668c-1.005,0.848-2.185,1.286-3.507,1.293c-1.794,0.003-3.594-0.467-5.829-1.52
						c-3.513-1.635-6.718-3.928-10.092-7.225c-4.05-3.995-7.122-8.65-9.135-13.855c-0.745-1.945-1.591-4.532-1.543-7.32
						c0.006-0.151,0.018-0.32,0.03-0.471C592.879,339.771,593.575,338.445,594.866,337.416z"/>
				</g>
			</g>
			<g>
				<g>
					<circle style="fill:#5D56D5;" cx="602.605" cy="242.325" r="32.453"/>
				</g>
				<g>
					<path style="fill:#FFFFFF;" d="M617.835,253.788h-30.459c-1.153,0-2.087-0.934-2.087-2.087v-18.754
						c0-1.152,0.934-2.087,2.087-2.087h30.459c1.152,0,2.087,0.934,2.087,2.087v18.754
						C619.922,252.854,618.988,253.788,617.835,253.788z"/>
					
						<polyline style="fill:none;stroke:#2E2C41;stroke-width:0.6035;stroke-linecap:round;stroke-linejoin:round;stroke-miterlimit:10;" points="
						617.492,232.629 602.605,243.461 587.718,232.629 					"/>
				</g>
			</g>
			<g>
				<g>
					<path style="fill:#E7E7F7;" d="M422.433,64.866c0,0,7.888-0.866,6.32-12.963c0,0,5.192-1.089,5.904,3.216
						c0.711,4.306,0.509,8.214,0.509,8.214l12.527-1.22c2.659-0.259,5.063,1.603,5.459,4.245c0.998,6.658,1.932,18.245-3.241,20.087
						c-7.329,2.61-13.628,2.324-15.128,1.887c-1.501-0.437-7.414-0.76-10.159-0.493L422.433,64.866z"/>
					<path style="fill:#2E2C41;" d="M423.986,88.533l-6.792,0.662c-0.651,0.063-1.23-0.413-1.293-1.064l-2.149-22.057
						c-0.063-0.651,0.413-1.23,1.064-1.293l6.792-0.662c0.651-0.063,1.23,0.413,1.293,1.064l2.149,22.057
						C425.113,87.891,424.637,88.47,423.986,88.533z"/>
				</g>
			</g>
			
				<text transform="matrix(0.8865 0.4627 -0.4627 0.8865 286.98 103.5548)" style="fill:#E7E7F7; font-family:'Poppins-Bold'; font-size:62.8269px;">?</text>
			<g>
				<g>
					<g>
						<circle style="fill:#9F9FE6;" cx="547.387" cy="155.536" r="32.453"/>
					</g>
				</g>
				<g>
					<g>
						<path style="fill:#FFFFFF;" d="M548.303,177.746c-12.282,0-22.273-9.993-22.273-22.274c0-6.914,3.131-13.32,8.587-17.575
							l2.441,3.129c-4.487,3.498-7.06,8.763-7.06,14.446c0,10.094,8.211,18.306,18.305,18.306s18.307-8.212,18.307-18.306
							s-8.213-18.306-18.307-18.306v-3.968c12.282,0,22.275,9.993,22.275,22.274S560.585,177.746,548.303,177.746z"/>
					</g>
					<g>
						<polygon style="fill:#FFFFFF;" points="542.065,135.118 548.803,130.102 548.803,140.133 						"/>
					</g>
					<g>
						<g>
							<path style="fill:#FFFFFF;" d="M537.921,160.108c2.961-2.445,6.113-4.872,6.113-7.221c0-1.012-0.459-1.662-1.453-1.662
								c-0.975,0-1.546,0.764-1.546,2.083h-3.152c0.095-3.382,2.292-4.833,4.832-4.833c3.172,0,4.584,1.853,4.584,4.202
								c0,3.056-2.73,5.501-4.946,7.202h5.158v2.655h-9.589V160.108z"/>
						</g>
						<g>
							<path style="fill:#FFFFFF;" d="M555.438,160.242h-6.419v-2.637l6.037-8.634h3.648v8.444h1.565v2.828h-1.565v2.483h-3.267
								V160.242z M555.667,157.414v-4.851l-3.208,4.851H555.667z"/>
						</g>
					</g>
				</g>
			</g>
		</g>
		
			<ellipse transform="matrix(0.9937 -0.112 0.112 0.9937 -18.4814 53.5405)" style="fill:#5D56D5;" cx="467.131" cy="191.207" rx="11.474" ry="16.103"/>
		
			<ellipse transform="matrix(0.9937 -0.112 0.112 0.9937 -18.4344 53.8169)" style="fill:#FFFFFF;" cx="469.614" cy="190.927" rx="8.976" ry="12.597"/>
		<path style="fill:#E7E7F7;" d="M469.434,189.708c0,0-28.947-56.981-54.243-58.415c0,0,9.388-4.694,15.517-2.217
			s26.861,23.036,42.768,56.068"/>
		<path style="fill:none;stroke:#2E2C41;stroke-width:1.343;stroke-miterlimit:10;" d="M470.434,192.098
			c0,0-9.562,26.948-34.076,36.162"/>
		
			<ellipse transform="matrix(0.9937 -0.112 0.112 0.9937 -18.3432 54.1591)" style="fill:#E7E7F7;" cx="472.704" cy="190.287" rx="4.422" ry="6.207"/>
		
			<ellipse transform="matrix(0.9588 -0.2842 0.2842 0.9588 -47.3711 132.5865)" style="fill:#5D56D5;" cx="433.169" cy="229.52" rx="6.101" ry="4.173"/>
	</g>
</g>
</svg>
