<svg width="200" height="50" viewBox="0 0 200 50" fill="none" xmlns="http://www.w3.org/2000/svg">
<g clip-path="url(#clip0_4_3993)">
<path d="M90.8125 14.2092C89.7011 13.5652 88.3234 13.2419 86.6766 13.2419C84.913 13.2419 83.3913 13.6821 82.1087 14.5625C81.0163 15.3125 80.1386 16.2636 79.4728 17.4103C79.4457 17.3397 79.4185 17.2663 79.3913 17.1957C78.875 15.9647 78.0734 14.9973 76.9837 14.2935C75.894 13.5924 74.4837 13.2391 72.75 13.2391C71.0163 13.2391 69.481 13.6875 68.1821 14.5815C67.3995 15.1223 66.7228 15.769 66.1522 16.5163V13.5815H62.5V36.4049H66.1522V23.7255C66.1522 22.9239 66.2527 22.1114 66.4538 21.2853C66.6549 20.462 66.9837 19.7065 67.4429 19.019C67.9022 18.3315 68.5027 17.7772 69.2473 17.3533C69.9918 16.9321 70.9103 16.7201 71.9973 16.7201C73.0842 16.7201 73.913 16.9076 74.5217 17.2799C75.1304 17.6522 75.5788 18.1277 75.8641 18.7092C76.1495 19.2908 76.3342 19.9049 76.413 20.5571C76.4919 21.2092 76.5326 21.8152 76.5326 22.3723V36.4049H80.163V23.4022C80.163 22.6848 80.2554 21.9375 80.4429 21.1576C80.6277 20.3777 80.9402 19.6495 81.3777 18.9755C81.8152 18.3016 82.4022 17.7582 83.1413 17.3424C83.8777 16.9266 84.7989 16.7201 85.9022 16.7201C87.0054 16.7201 87.8886 16.9022 88.5136 17.269C89.1359 17.6332 89.5924 18.1005 89.8777 18.6658C90.163 19.231 90.3424 19.837 90.4158 20.481C90.4864 21.125 90.5245 21.7283 90.5245 22.2853V36.4049H94.1766V21.0815C94.1766 19.4783 93.894 18.0924 93.3288 16.9239C92.7636 15.7554 91.9239 14.8505 90.8152 14.2065L90.8125 14.2092Z" fill="#191919"/>
<path d="M105.294 32.4402L99.2365 13.5869H95.4104L103.275 36.538L102.587 38.5571C102.315 39.375 101.965 40.1087 101.535 40.7609C101.106 41.413 100.576 41.9293 99.9457 42.3071C99.3153 42.6875 98.5408 42.8777 97.6251 42.8777C97.1957 42.8777 96.7664 42.8478 96.3343 42.7908C95.905 42.7337 95.5952 42.663 95.4104 42.5761V45.7554C95.5245 45.8125 95.818 45.8723 96.2908 45.9375C96.7637 46.0027 97.2854 46.0353 97.8588 46.0353C99.6767 46.0353 101.144 45.6848 102.253 44.981C103.361 44.2799 104.253 43.3478 104.919 42.1875C105.584 41.0272 106.155 39.7527 106.628 38.3614L114.986 13.5842H111.226L105.291 32.4375L105.294 32.4402Z" fill="#191919"/>
<path d="M120.853 30.875C120.976 30.7717 121.092 30.682 121.206 30.6005C122.628 31.2201 124.296 31.5299 126.215 31.5299C128.291 31.5299 130.035 31.1331 131.448 30.3369C132.859 29.5407 133.973 28.4674 134.791 27.1141C135.606 25.7608 136.144 24.2445 136.402 22.5679L137.821 13.5842H134.383L133.967 16.7473C133.891 16.6467 133.812 16.5435 133.728 16.4429C132.962 15.5271 131.918 14.7636 130.601 14.1549C129.283 13.5462 127.742 13.2418 125.981 13.2418C124.019 13.2418 122.277 13.6467 120.758 14.4565C119.239 15.2663 118.054 16.3695 117.201 17.7663C116.348 19.163 115.921 20.7364 115.921 22.4837C115.921 24.231 116.329 25.7473 117.147 27.1141C117.581 27.8451 118.125 28.4891 118.764 29.0543C118.549 29.1848 118.323 29.3587 118.081 29.5842C117.63 30.0081 117.236 30.5271 116.899 31.1413C116.562 31.7581 116.394 32.4103 116.394 33.0978C116.394 34.2147 116.848 35.1657 117.758 35.9456C118.668 36.7255 119.845 37.1739 121.293 37.288L129.976 37.932C131.122 38.019 132.084 38.1712 132.867 38.394C133.647 38.6168 134.038 39.1929 134.038 40.125C134.038 40.7418 133.758 41.2771 133.201 41.7364C132.644 42.1956 131.791 42.5462 130.644 42.788C129.497 43.0326 128.03 43.1522 126.239 43.1522C123.845 43.1522 121.997 42.9185 120.696 42.4538C119.391 41.9891 118.739 41.182 118.739 40.0353C118.739 39.606 118.793 39.2282 118.899 38.9076C119.005 38.5869 119.117 38.3451 119.234 38.1875L115.753 37.6712C115.581 37.9429 115.427 38.2989 115.291 38.7337C115.155 39.1712 115.087 39.6766 115.087 40.25C115.087 42.0679 116.011 43.5054 117.859 44.5598C119.706 45.6141 122.443 46.1386 126.068 46.1386C128.633 46.1386 130.761 45.8723 132.451 45.3424C134.141 44.8125 135.402 44.0788 136.234 43.1386C137.065 42.2011 137.481 41.1223 137.481 39.9049C137.481 38.8016 137.215 37.9103 136.685 37.2282C136.155 36.5462 135.421 36.0326 134.481 35.682C133.543 35.3315 132.456 35.106 131.226 35.0054L123.166 34.3614C121.932 34.2608 121.109 34.0435 120.693 33.7065C120.277 33.3695 120.071 32.9375 120.071 32.4076C120.071 31.8206 120.331 31.307 120.856 30.8723L120.853 30.875ZM120.361 19.3261C120.927 18.4375 121.715 17.7473 122.726 17.2527C123.736 16.7581 124.899 16.5108 126.217 16.5108C127.535 16.5108 128.777 16.75 129.774 17.231C130.769 17.7119 131.538 18.3913 132.073 19.2717C132.611 20.1521 132.88 21.1956 132.88 22.3994C132.88 23.6032 132.611 24.7065 132.073 25.5788C131.535 26.4538 130.769 27.1195 129.774 27.5788C128.777 28.038 127.587 28.2663 126.196 28.2663C124.804 28.2663 123.614 28.038 122.617 27.5788C121.62 27.1195 120.853 26.4565 120.318 25.5896C119.78 24.7228 119.511 23.682 119.511 22.4619C119.511 21.2418 119.793 20.2119 120.359 19.3233L120.361 19.3261Z" fill="#191919"/>
<path d="M159.644 34.8206C159.543 34.4619 159.473 34.0461 159.429 33.5733C159.386 33.1005 159.364 32.6141 159.364 32.1114V20.7228C159.364 19.0896 158.924 17.7173 158.043 16.6059C157.163 15.4972 155.973 14.6575 154.476 14.0923C152.978 13.5271 151.299 13.2445 149.435 13.2445C147.399 13.2445 145.606 13.5597 144.052 14.1902C142.497 14.8206 141.283 15.7336 140.408 16.9293C139.533 18.1249 139.098 19.576 139.098 21.2798H142.709C142.709 19.6331 143.296 18.4402 144.47 17.701C145.644 16.9619 147.294 16.595 149.413 16.595C151.533 16.595 153.003 16.9211 154.076 17.5733C155.149 18.2255 155.688 19.2092 155.688 20.5271V20.5923C155.688 21.2228 155.092 21.6766 153.905 21.9565C152.715 22.2364 150.717 22.519 147.908 22.8043C146.046 22.9918 144.413 23.3641 143.008 23.9211C141.603 24.4809 140.516 25.2581 139.742 26.2527C138.967 27.2499 138.582 28.4918 138.582 29.9809C138.582 31.4701 138.94 32.6412 139.655 33.6657C140.372 34.6902 141.378 35.4755 142.674 36.019C143.97 36.5624 145.486 36.8342 147.22 36.8342C148.739 36.8342 150.101 36.6684 151.304 36.3396C152.508 36.0108 153.535 35.5516 154.389 34.9646C154.946 34.5787 155.416 34.1548 155.799 33.6902C155.807 33.7527 155.81 33.8179 155.818 33.8804C155.875 34.3179 155.954 34.6793 156.054 34.9646C156.182 35.3233 156.318 35.6331 156.462 35.8994C156.606 36.1657 156.712 36.3315 156.785 36.4048H160.459C160.359 36.3043 160.231 36.1222 160.073 35.8559C159.916 35.5896 159.772 35.2445 159.644 34.8124V34.8206ZM154.636 30.8641C153.935 31.7527 152.989 32.4211 151.799 32.8722C150.609 33.3233 149.277 33.5489 147.802 33.5489C145.91 33.5489 144.514 33.2309 143.611 32.5923C142.709 31.9537 142.258 31.0135 142.258 29.7662C142.258 28.4483 142.807 27.5108 143.902 26.951C144.997 26.3912 146.628 26.0135 148.791 25.8124C150.28 25.6684 151.709 25.4864 153.079 25.2635C154.068 25.1032 154.938 24.9076 155.69 24.6739V27.5516C155.69 28.8695 155.34 29.9728 154.636 30.8614V30.8641Z" fill="#191919"/>
<path d="M169.345 6.19836H165.671V11.2011C165.671 11.7745 165.658 12.2228 165.628 12.5435C165.598 12.8668 165.524 13.1033 165.402 13.2527C165.28 13.4022 165.084 13.4973 164.812 13.5326C164.541 13.5679 164.16 13.587 163.674 13.587H160.106V16.8098H165.671V31.0136C165.671 32.2038 165.829 33.1739 166.144 33.9266C166.459 34.6793 166.886 35.2581 167.424 35.6685C167.962 36.0761 168.565 36.3587 169.239 36.5163C169.913 36.6739 170.601 36.7527 171.302 36.7527C171.845 36.7527 172.337 36.712 172.774 36.6359C173.212 36.5571 173.552 36.4755 173.796 36.3886V33.2092C173.609 33.2826 173.331 33.3533 172.959 33.4239C172.587 33.4946 172.193 33.5326 171.777 33.5326C170.745 33.5326 170.082 33.1875 169.791 32.5C169.497 31.8125 169.351 30.8587 169.351 29.6413V16.8125H176.486V13.5897H169.351V6.20108L169.345 6.19836Z" fill="#191919"/>
<path d="M198.625 18.8641C197.706 17.1222 196.405 15.7527 194.715 14.7499C193.024 13.7472 191.024 13.2445 188.72 13.2445C186.416 13.2445 184.443 13.7472 182.682 14.7499C180.918 15.7527 179.538 17.1385 178.535 18.9076C177.533 20.6766 177.03 22.7282 177.03 25.0652C177.03 27.4021 177.527 29.413 178.524 31.1902C179.519 32.9673 180.891 34.3559 182.638 35.3586C184.386 36.3614 186.408 36.8641 188.698 36.8641C190.432 36.8641 191.965 36.6412 193.296 36.1983C194.628 35.7554 195.753 35.163 196.671 34.4266C197.587 33.6874 198.296 32.8695 198.799 31.9646C199.302 31.0597 199.587 30.1521 199.658 29.2364H196.005C195.948 29.7391 195.769 30.2391 195.467 30.7418C195.166 31.2445 194.725 31.7065 194.147 32.1277C193.565 32.5516 192.831 32.8885 191.943 33.1385C191.054 33.3885 190.008 33.5135 188.804 33.5135C187.114 33.5135 185.652 33.1684 184.421 32.4809C183.187 31.7934 182.239 30.8124 181.573 29.5353C181.103 28.6331 180.802 27.6086 180.663 26.4619H199.916C199.943 26.3342 199.965 26.0815 199.981 25.7092C199.994 25.3369 200.003 25.0353 200.003 24.807C200.003 22.5869 199.543 20.6059 198.628 18.8641H198.625ZM184.484 17.5842C185.715 16.8967 187.141 16.5516 188.761 16.5516C190.38 16.5516 191.712 16.8804 192.802 17.5407C193.891 18.201 194.709 19.076 195.261 20.1739C195.728 21.1005 195.994 22.1086 196.065 23.1929H180.706C180.864 22.1956 181.163 21.2961 181.603 20.4972C182.291 19.2445 183.25 18.2717 184.484 17.5842Z" fill="#191919"/>
<path d="M8.33423 2.28261V5.32609C8.33423 6.58696 9.35597 7.6087 10.6168 7.6087H12.5H18.5516C19.8125 7.6087 20.8342 8.63043 20.8342 9.8913V20.5435C20.8342 21.8043 21.856 22.8261 23.1168 22.8261H26.8859C28.1467 22.8261 29.1685 21.8043 29.1685 20.5435V9.8288C29.1685 8.56793 30.1902 7.5462 31.4511 7.5462H39.3859C40.6467 7.5462 41.6685 8.56793 41.6685 9.8288V20.5435C41.6685 21.8043 42.6902 22.8261 43.9511 22.8261H47.7201C48.981 22.8261 50.0027 21.8043 50.0027 20.5435V2.28261C50.0027 1.02174 48.981 0 47.7201 0H10.6168C9.35597 0 8.33423 1.02174 8.33423 2.28261Z" fill="#191919"/>
<path d="M0 9.89127L0 20.5434C0 21.8041 1.02196 22.826 2.28261 22.826H6.05163C7.31228 22.826 8.33424 21.8041 8.33424 20.5434V9.89127C8.33424 8.63062 7.31228 7.60866 6.05163 7.60866H2.28261C1.02196 7.60866 0 8.63062 0 9.89127Z" fill="#191919"/>
<path d="M26.8832 27.174H2.28261C1.02174 27.174 0 28.1957 0 29.4566V47.7174C0 48.9783 1.02174 50 2.28261 50H26.8832C28.144 50 29.1658 48.9783 29.1658 47.7174V29.4566C29.1658 28.1957 28.144 27.174 26.8832 27.174ZM20.8342 40.1087C20.8342 41.3696 19.8125 42.3913 18.5516 42.3913H10.6168C9.35598 42.3913 8.33424 41.3696 8.33424 40.1087V37.0653C8.33424 35.8044 9.35598 34.7826 10.6168 34.7826H18.5516C19.8125 34.7826 20.8342 35.8044 20.8342 37.0653V40.1087Z" fill="#191919"/>
<path d="M47.7174 27.174H35.6168C34.356 27.174 33.3342 28.1957 33.3342 29.4566V47.7174C33.3342 48.9783 34.356 50 35.6168 50H39.3859C40.6467 50 41.6685 48.9783 41.6685 47.7174V34.7826H47.7201C48.981 34.7826 50.0027 33.7609 50.0027 32.5V29.4566C50.0027 28.1957 48.981 27.174 47.7201 27.174H47.7174Z" fill="#191919"/>
</g>
<defs>
<clipPath id="clip0_4_3993">
<rect width="200" height="50" fill="white"/>
</clipPath>
</defs>
</svg>
