<svg width="590" height="560" viewBox="0 0 590 560" fill="none" xmlns="http://www.w3.org/2000/svg">
<path d="M296 530C435.728 530 549 416.728 549 277C549 137.272 435.728 24 296 24C156.272 24 43 137.272 43 277C43 416.728 156.272 530 296 530Z" fill="#E5F6FF"/>
<path d="M255.451 91.1042C256.119 91.1033 256.788 91.1025 257.476 91.1016C267.142 91.1102 276.313 91.4735 285.708 93.9442C286.742 94.1977 287.776 94.4511 288.842 94.7123C305.436 99.0897 320.874 106.458 334.644 116.664C335.357 117.18 336.07 117.696 336.804 118.228C348.398 127.015 358.169 137.733 366.102 149.87C366.634 150.614 367.165 151.357 367.713 152.123C379.901 169.74 387.127 193.856 387.243 215.159C387.25 215.896 387.257 216.633 387.265 217.392C387.286 219.813 387.301 222.235 387.313 224.656C387.318 225.488 387.323 226.32 387.327 227.177C387.351 231.578 387.368 235.979 387.38 240.38C387.392 244.009 387.416 247.637 387.452 251.265C387.495 255.663 387.517 260.061 387.523 264.46C387.529 266.128 387.542 267.796 387.563 269.465C387.76 286.034 387.76 286.034 382.705 293.181C382.219 293.974 381.732 294.767 381.231 295.584C375.974 300.699 369.945 303.789 362.624 303.753C361.607 303.75 360.59 303.747 359.543 303.744C358.481 303.737 357.42 303.73 356.326 303.722C355.254 303.718 354.182 303.714 353.078 303.71C350.429 303.7 347.779 303.686 345.13 303.668C345.083 304.279 345.036 304.891 344.988 305.521C343.171 327.563 334.673 348.99 318.914 364.837C319.174 365.591 319.434 366.345 319.702 367.123C320.3 368.963 320.848 370.822 321.318 372.699C323.586 381.415 326.891 390.95 334.997 395.806C345.219 400.787 356.432 403.556 367.387 406.431C398.067 414.605 423.35 435.844 439.34 462.952C450.316 482.11 456.965 503.187 457.31 525.352C457.343 526.159 457.375 526.966 457.409 527.797C457.419 528.58 457.429 529.362 457.44 530.168C457.457 530.869 457.474 531.571 457.492 532.294C456.714 535.454 455.113 536.699 452.613 538.732C450.209 539.163 448.345 539.322 445.946 539.282C445.279 539.289 444.611 539.295 443.923 539.302C441.678 539.318 439.434 539.302 437.188 539.287C435.566 539.292 433.943 539.299 432.32 539.308C427.855 539.326 423.39 539.317 418.925 539.304C414.112 539.294 409.299 539.309 404.486 539.321C395.054 539.34 385.623 539.336 376.192 539.324C368.529 539.314 360.866 539.312 353.203 539.317C352.113 539.318 351.024 539.318 349.901 539.319C347.688 539.321 345.475 539.322 343.262 539.323C323.088 539.335 302.915 539.323 282.741 539.3C264.32 539.279 245.899 539.281 227.478 539.302C206.787 539.325 186.097 539.335 165.407 539.321C163.202 539.32 160.997 539.318 158.792 539.317C157.707 539.316 156.622 539.316 155.504 539.315C147.847 539.311 140.191 539.318 132.535 539.328C123.208 539.34 113.881 539.337 104.554 539.314C99.7924 539.302 95.0312 539.298 90.2699 539.312C85.9146 539.325 81.5597 539.318 77.2045 539.295C75.6256 539.29 74.0468 539.292 72.468 539.303C70.3274 539.316 68.1886 539.303 66.0482 539.282C65.43 539.292 64.8118 539.303 64.175 539.313C60.8057 539.249 59.4601 538.797 56.8138 536.634C54.9413 534.274 54.4652 533.416 54.4934 530.475C54.4936 529.742 54.4938 529.009 54.494 528.254C54.5209 527.476 54.5477 526.699 54.5753 525.898C54.5915 525.085 54.6075 524.273 54.6241 523.436C55.6548 490.1 70.7706 460.34 93.4616 436.492C94.3047 435.565 94.3047 435.565 95.1649 434.618C110.641 418.135 131.732 410.136 152.719 403.286C154.705 402.626 156.69 401.965 158.674 401.303C162.284 400.1 165.897 398.904 169.513 397.719C170.654 397.335 170.654 397.335 171.819 396.944C173.855 396.295 173.855 396.295 176.843 395.612C180.129 394.061 181.222 391.523 182.73 388.383C183.038 387.773 183.345 387.163 183.661 386.535C184.304 385.248 184.938 383.956 185.564 382.661C186.526 380.677 187.52 378.712 188.52 376.746C189.141 375.492 189.76 374.237 190.377 372.981C190.675 372.393 190.973 371.805 191.281 371.199C192.852 368.013 192.852 368.013 192.504 364.601C190.211 361.642 187.856 358.743 185.472 355.857C182.535 352.191 180.732 348.796 178.935 344.465C177.659 341.6 177.659 341.6 175.603 339.495C171.982 338.643 168.775 338.614 165.083 338.693C160.16 338.591 156.918 336.921 152.883 334.252C152.09 333.766 151.297 333.279 150.48 332.778C146.804 329 142.484 323.116 142.356 317.658C142.392 316.686 142.392 316.686 142.428 315.693C142.899 307.669 142.899 307.669 139.707 300.78C137.443 299.535 137.443 299.535 135.038 298.575C130.056 296.31 127.536 291.059 125.488 286.199C124.496 283.132 124.556 280.124 124.581 276.925C124.576 276.198 124.572 275.471 124.567 274.722C124.555 272.33 124.563 269.938 124.572 267.546C124.57 265.866 124.568 264.187 124.564 262.507C124.56 258.986 124.566 255.464 124.578 251.943C124.593 247.471 124.585 242.999 124.569 238.527C124.559 235.054 124.562 231.581 124.569 228.108C124.571 226.462 124.569 224.816 124.563 223.169C124.457 186.932 138.4 154.225 163.369 128.024C165.606 125.86 167.946 123.87 170.36 121.907C171.167 121.243 171.973 120.578 172.804 119.893C196.431 100.829 225.169 91.1317 255.451 91.1042ZM225.413 113.169C224.775 113.351 224.138 113.534 223.481 113.722C205.782 118.994 190.719 128.484 177.351 141.132C176.631 141.795 175.911 142.459 175.17 143.143C162.043 155.655 152.916 171.924 147.64 189.194C147.308 190.274 146.975 191.354 146.633 192.467C144.584 199.59 143.603 206.259 143.271 213.661C148.75 213.661 154.229 213.661 159.874 213.661C160.072 211.228 160.27 208.795 160.475 206.288C162.64 184.374 172.6 162.579 189.585 148.123C205.596 135.326 223.965 127.108 244.682 126.942C245.531 126.935 246.381 126.928 247.256 126.921C249.055 126.909 250.853 126.899 252.652 126.892C254.465 126.882 256.277 126.865 258.089 126.839C284.056 126.467 306.823 133.522 325.905 151.618C343.204 168.484 350.07 190.086 352.12 213.661C357.6 213.661 363.079 213.661 368.724 213.661C367.602 184.882 352.946 158.18 332.404 138.596C318.168 125.507 301.57 117.535 283.086 112.295C281.98 111.978 280.874 111.662 279.734 111.336C262.369 107.287 242.496 108.243 225.413 113.169ZM195.429 167.566C186.087 178.333 180.12 191.682 178.225 205.797C178.857 205.153 179.489 204.51 180.14 203.848C195.407 188.792 215.567 179.027 237.252 178.915C244.151 179.222 247.096 182.492 251.628 187.446C253.552 189.145 255.555 190.732 257.581 192.307C258.364 192.918 258.364 192.918 259.163 193.541C264.272 197.468 269.602 200.891 275.222 204.049C275.723 204.334 276.224 204.618 276.74 204.911C293.018 214.02 314.824 222.467 333.77 221.526C334.591 199.043 328.586 180.519 313.125 163.743C296.325 147.699 274.666 143.309 252.201 143.624C230.112 144.185 210.921 151.431 195.429 167.566ZM186.528 224.844C185.631 226.064 184.743 227.291 183.864 228.525C182.594 230.264 182.594 230.264 181.291 231.804C177.885 235.963 177.707 239.046 178.17 244.301C178.252 245.515 178.252 245.515 178.337 246.753C178.555 249.708 178.823 252.656 179.099 255.606C179.21 256.841 179.321 258.077 179.432 259.312C180.798 274.306 182.49 289.238 184.888 304.104C185.068 305.224 185.248 306.343 185.433 307.496C186.225 312.214 187.111 316.624 188.711 321.144C192.66 321.425 196.606 321.595 200.562 321.745C202.236 321.866 202.236 321.866 203.943 321.989C207.272 322.084 209.968 322.046 213.179 321.144C215.378 318.878 216.647 316.759 218.006 313.918C220.7 308.933 226.299 306.283 231.529 304.541C233.893 304.346 236.166 304.234 238.53 304.217C239.202 304.209 239.873 304.201 240.565 304.193C241.983 304.181 243.401 304.173 244.82 304.17C246.964 304.159 249.107 304.116 251.251 304.072C260.42 303.978 266.881 304.926 274.184 310.931C280.486 318.674 282.081 325.294 281.541 335.149C280.838 341.151 277.187 346.248 272.6 349.981C265.047 355.19 258.876 355.491 249.926 355.578C248.489 355.597 247.053 355.627 245.617 355.668C236.4 355.93 228.821 355.659 221.043 349.981C218.312 347.123 216.306 344.308 214.885 340.608C213.412 338.478 213.412 338.478 211.414 338.274C209.165 338.19 206.961 338.241 204.713 338.348C203.933 338.368 203.153 338.388 202.349 338.408C200.423 338.46 198.5 338.531 196.576 338.621C206.81 354.985 221.475 367.087 240.377 371.991C259.209 375.672 277.274 372.384 293.573 362.215C312.598 348.658 322.959 328.993 326.779 306.289C330.3 284.514 333.77 261.975 333.77 239.877C333.095 239.781 332.419 239.685 331.724 239.587C297.851 234.665 261.93 224.224 237.496 198.56C235.905 196.779 235.905 196.779 233.004 196.621C213.488 197.78 197.837 209.714 186.528 224.844ZM142.397 231.138C142.332 237.622 142.285 244.106 142.253 250.59C142.24 252.794 142.222 254.999 142.199 257.203C142.167 260.377 142.152 263.55 142.141 266.724C142.127 267.705 142.114 268.687 142.1 269.698C142.099 274.993 142.338 278.943 145.019 283.569C149.154 286.482 152.985 286.313 157.921 286.249C158.834 286.242 158.834 286.242 159.765 286.236C161.258 286.225 162.751 286.208 164.243 286.191C164.138 285.133 164.138 285.133 164.03 284.054C162.289 266.43 160.912 248.817 159.874 231.138C154.107 231.138 148.339 231.138 142.397 231.138ZM352.12 231.138C351.952 233.575 351.783 236.011 351.608 238.522C349.287 271.773 349.287 271.773 347.751 286.191C357.845 286.955 357.845 286.955 366.976 283.569C370.148 278.094 369.939 272.932 369.853 266.724C369.848 265.195 369.848 265.195 369.842 263.635C369.828 260.394 369.795 257.154 369.761 253.913C369.748 251.709 369.736 249.506 369.725 247.303C369.697 241.914 369.651 236.526 369.597 231.138C363.83 231.138 358.063 231.138 352.12 231.138ZM159.874 303.668C159.571 309.243 159.452 313.712 162.495 318.523C164.52 319.783 166.313 320.407 168.612 321.144C169.758 317.383 169.012 314.209 168.23 310.44C168.101 309.789 167.972 309.138 167.839 308.467C167.521 306.866 167.194 305.266 166.865 303.668C164.558 303.668 162.251 303.668 159.874 303.668ZM232.403 323.766C230.261 326.979 229.935 329.646 230.656 333.378C233.014 336.458 234.748 337.935 238.52 338.621C241.376 338.833 244.232 338.823 247.095 338.84C247.861 338.858 248.628 338.876 249.418 338.895C254.33 338.924 257.8 338.414 262.114 336C264.256 332.787 264.582 330.12 263.862 326.388C261.503 323.308 259.77 321.831 255.997 321.144C253.142 320.933 250.285 320.943 247.423 320.926C246.656 320.908 245.889 320.89 245.1 320.871C240.188 320.842 236.717 321.352 232.403 323.766ZM300.939 383.57C300.299 384.209 299.659 384.847 299 385.505C297.99 386.521 297.99 386.521 296.959 387.557C296.305 388.207 295.652 388.857 294.979 389.526C291.322 393.19 287.827 396.937 284.449 400.859C282.631 402.932 280.692 404.859 278.717 406.782C275.032 410.422 271.584 414.196 268.231 418.142C271.639 422.221 275.18 426.086 278.956 429.826C279.453 430.321 279.95 430.817 280.462 431.328C282.026 432.888 283.594 434.444 285.162 436.001C286.233 437.067 287.303 438.134 288.374 439.201C290.978 441.796 293.586 444.388 296.194 446.978C298.638 444.841 299.798 442.616 301.151 439.684C301.585 438.747 302.019 437.81 302.466 436.845C302.919 435.845 303.373 434.846 303.84 433.816C304.537 432.287 304.537 432.287 305.247 430.728C307.941 424.767 310.607 418.795 313.07 412.735C313.329 412.125 313.587 411.515 313.853 410.886C315.815 405.881 315.684 402.434 313.563 397.51C312.32 394.91 311.016 392.352 309.684 389.796C309.23 388.907 308.775 388.017 308.307 387.101C307.19 384.919 306.065 382.741 304.933 380.566C303.249 380.566 302.051 382.459 300.939 383.57ZM205.314 384.061C203.813 386.834 202.349 389.623 200.89 392.418C200.466 393.2 200.042 393.982 199.605 394.788C197.181 399.481 195.848 402.392 197.449 407.655C198.654 411.124 199.991 414.524 201.382 417.923C201.768 418.879 202.154 419.834 202.552 420.819C206.064 429.406 209.948 437.787 214.052 446.105C216.605 446.37 216.605 446.37 217.998 445.093C218.457 444.624 218.917 444.156 219.391 443.674C219.904 443.158 220.416 442.642 220.944 442.11C221.481 441.554 222.019 440.998 222.573 440.425C223.125 439.863 223.677 439.301 224.246 438.723C227.49 435.401 230.628 432.016 233.629 428.471C236.27 425.462 239.153 422.685 242.016 419.889C238.149 415.266 234.08 410.94 229.823 406.676C229.175 406.025 228.527 405.374 227.859 404.704C226.5 403.34 225.14 401.978 223.779 400.617C221.688 398.524 219.604 396.424 217.521 394.324C216.197 392.998 214.872 391.671 213.547 390.346C212.923 389.715 212.298 389.084 211.655 388.434C211.077 387.859 210.5 387.284 209.904 386.692C209.396 386.182 208.888 385.673 208.365 385.148C207.121 383.875 207.121 383.875 205.314 384.061ZM240.268 390.178C244.623 395.451 249.373 400.244 254.249 405.034C257.554 403.694 259.4 401.685 261.732 399.026C262.4 398.271 263.068 397.517 263.756 396.739C265.323 394.887 266.804 393.013 268.231 391.052C267.238 391.062 266.244 391.073 265.22 391.083C256.851 391.141 248.61 390.929 240.268 390.178ZM173.807 415.658C172.773 415.992 172.773 415.992 171.718 416.332C170.977 416.578 170.236 416.823 169.473 417.077C168.308 417.459 168.308 417.459 167.119 417.849C165.47 418.393 163.822 418.94 162.175 419.489C159.705 420.31 157.23 421.114 154.754 421.917C136.511 427.922 120.772 435.858 106.903 449.311C105.937 450.241 104.949 451.148 103.954 452.047C86.454 468.25 76.198 493.617 73.363 516.886C73.363 518.328 73.363 519.77 73.363 521.255C128.153 521.255 182.943 521.255 239.394 521.255C234.977 513.119 234.977 513.119 230.055 505.362C229.5 504.539 229.5 504.539 228.935 503.699C227.01 500.849 225.056 498.02 223.081 495.204C205.622 470.269 191.731 443.054 180.846 414.646C177.935 414.646 176.45 414.797 173.807 415.658ZM331.148 414.646C330.895 415.286 330.641 415.925 330.38 416.584C319.094 444.87 306.09 473.014 287.442 497.3C283.871 501.992 280.775 506.956 277.68 511.971C276.922 513.197 276.922 513.197 276.149 514.449C273.799 517.652 273.799 517.652 272.6 521.255C327.391 521.255 382.181 521.255 438.631 521.255C437.849 511.819 437.849 511.819 435.901 502.741C435.71 502.038 435.52 501.335 435.323 500.61C427.425 472.596 409.658 447.443 384.05 433.044C375.343 428.503 366.373 425.146 357.067 422.048C354.659 421.245 352.257 420.426 349.856 419.604C348.307 419.08 346.758 418.558 345.208 418.036C344.146 417.674 344.146 417.674 343.062 417.305C339.079 415.987 335.321 415.102 331.148 414.646ZM252 435.045C251.088 435.959 250.182 436.879 249.279 437.803C248.566 438.525 248.566 438.525 247.838 439.262C244.858 442.298 242.021 445.419 239.268 448.661C236.387 451.881 233.266 454.869 230.178 457.888C226.612 461.148 226.612 461.148 225.392 465.531C226.721 469.127 228.812 472.072 230.983 475.215C231.453 475.908 231.924 476.601 232.408 477.315C234.686 480.666 236.991 483.998 239.299 487.329C240.095 488.479 240.892 489.63 241.688 490.78C242.076 491.339 242.463 491.898 242.863 492.474C247.169 498.726 251.157 505.173 255.123 511.643C258.192 510.62 258.369 510.125 259.895 507.414C260.302 506.709 260.708 506.004 261.127 505.277C261.561 504.512 261.995 503.747 262.442 502.959C266.054 496.751 269.858 490.82 274.13 485.045C277.493 480.477 280.813 475.911 283.851 471.118C284.686 469.811 284.686 469.811 285.537 468.476C286.749 466.359 286.749 466.359 286.385 464.509C285.569 462.339 284.548 461.22 282.909 459.584C282.32 458.989 281.731 458.394 281.124 457.782C280.484 457.15 279.844 456.518 279.185 455.867C278.531 455.213 277.877 454.558 277.203 453.884C275.82 452.503 274.434 451.125 273.044 449.75C270.911 447.638 268.79 445.513 266.669 443.388C265.326 442.049 263.981 440.711 262.636 439.373C261.998 438.734 261.36 438.095 260.703 437.437C260.111 436.854 259.519 436.27 258.909 435.669C258.388 435.152 257.867 434.634 257.329 434.101C254.884 432.074 254.302 432.949 252 435.045Z" fill="#1E3238"/>
<path d="M386.202 453.969C388.878 455.389 388.878 455.389 391.445 457.464C391.909 457.815 392.373 458.165 392.852 458.526C401.797 465.604 413.011 478.664 414.602 490.398C414.087 493.811 413.088 495.243 410.67 497.661C407.616 499.188 404.39 499.018 401.057 498.535C396.976 495.717 394.803 491.221 392.244 487.056C390.082 483.822 387.573 481.053 384.895 478.242C383.581 476.689 383.581 476.689 383.581 474.941C383.071 474.718 382.562 474.495 382.038 474.265C378.546 472.349 376.113 469.529 373.968 466.203C373.206 463.453 373.44 462.141 373.968 459.212C377.201 454.147 380.315 453.185 386.202 453.969Z" fill="#1E3238"/>
<path d="M356.489 437.366C359.22 439.004 359.22 439.004 360.858 441.735C361.722 446.127 361.537 449.342 359.22 453.204C355.358 455.522 352.143 455.707 347.751 454.843C345.02 453.204 345.02 453.204 343.381 450.474C342.517 446.082 342.703 442.867 345.02 439.004C348.882 436.687 352.097 436.502 356.489 437.366Z" fill="#1E3238"/>
</svg>
