<svg width="590" height="560" viewBox="0 0 590 560" fill="none" xmlns="http://www.w3.org/2000/svg">
<path d="M314 521C453.728 521 567 407.728 567 268C567 128.272 453.728 15 314 15C174.272 15 61 128.272 61 268C61 407.728 174.272 521 314 521Z" fill="#E5F6FF"/>
<path d="M268.894 61.4412C271.646 62.6456 273.876 64.3362 276.236 66.1782C276.913 66.68 277.589 67.1817 278.286 67.6987C280.541 69.3812 282.771 71.0935 285 72.81C286.666 74.0765 288.332 75.3422 290 76.607C292.57 78.5611 295.139 80.5181 297.701 82.4833C302.8 86.3934 307.944 90.2115 313.194 93.9164C324.146 101.654 334.868 109.718 345.584 117.778C352.693 123.119 359.859 128.383 367.023 133.65C371.538 136.971 376.05 140.297 380.562 143.623C384.346 146.412 388.132 149.2 391.919 151.984C399.555 157.6 407.17 163.241 414.745 168.938C421.854 174.279 429.019 179.543 436.183 184.809C439.95 187.58 443.714 190.355 447.479 193.129C448.964 194.224 450.449 195.318 451.935 196.412C455.084 198.732 458.232 201.054 461.379 203.377C462.185 203.971 462.99 204.565 463.82 205.177C465.351 206.307 466.882 207.437 468.412 208.567C469.796 209.588 471.186 210.601 472.582 211.606C474.48 213.025 474.48 213.025 476.049 214.44C481.173 218.846 486.572 218.334 493.073 218.236C495.177 218.204 497.282 218.193 499.386 218.206C500.311 218.191 501.237 218.175 502.19 218.16C506.081 218.98 507.282 220.155 509.534 223.446C510.241 227.137 510.22 230.77 510.196 234.519C510.206 236.132 510.206 236.132 510.217 237.778C510.224 240.049 510.219 242.32 510.203 244.592C510.185 248.067 510.222 251.539 510.265 255.014C510.265 257.222 510.262 259.43 510.255 261.638C510.27 262.677 510.284 263.715 510.299 264.785C510.284 265.755 510.269 266.726 510.254 267.726C510.252 269.002 510.252 269.002 510.249 270.303C509.534 272.711 509.534 272.711 503.849 277.448C496.659 277.448 489.468 277.448 482.059 277.448C482.059 339.038 482.059 400.629 482.059 464.086C488.312 464.086 494.565 464.086 501.007 464.086C506.927 467.638 506.927 467.638 508.586 470.717C508.947 473.731 508.947 473.731 508.954 477.334C508.961 478.322 508.962 478.322 508.969 479.329C508.982 481.5 508.973 483.671 508.964 485.843C508.966 487.355 508.968 488.868 508.972 490.38C508.976 493.549 508.97 496.718 508.957 499.887C508.941 503.943 508.95 507.999 508.967 512.056C508.977 515.179 508.974 518.303 508.967 521.426C508.965 522.922 508.967 524.417 508.974 525.912C508.981 528.006 508.97 530.098 508.954 532.191C508.952 533.381 508.95 534.571 508.947 535.796C508.553 539.223 507.875 540.975 505.744 543.667C502.196 546.163 498.311 545.826 494.148 545.803C492.951 545.808 492.951 545.808 491.73 545.812C489.038 545.82 486.347 545.815 483.655 545.809C481.713 545.812 479.771 545.816 477.829 545.82C472.478 545.83 467.127 545.828 461.776 545.824C456.011 545.821 450.246 545.83 444.481 545.837C433.181 545.849 421.881 545.851 410.581 545.848C401.4 545.847 392.219 545.848 383.037 545.852C381.719 545.853 380.401 545.854 379.083 545.854C377.097 545.855 375.111 545.856 373.125 545.857C354.654 545.865 336.183 545.869 317.712 545.865C316.667 545.865 316.667 545.865 315.601 545.864C312.07 545.864 308.539 545.863 305.008 545.862C304.307 545.862 303.606 545.862 302.883 545.862C301.465 545.861 300.047 545.861 298.629 545.861C276.558 545.856 254.488 545.863 232.418 545.881C207.633 545.9 182.849 545.91 158.064 545.906C155.423 545.906 152.782 545.906 150.14 545.905C149.49 545.905 148.84 545.905 148.169 545.905C138.34 545.904 128.511 545.91 118.682 545.92C107.508 545.932 96.3329 545.933 85.1581 545.922C79.453 545.916 73.7481 545.915 68.043 545.926C62.8251 545.937 57.6073 545.934 52.3894 545.92C50.4972 545.918 48.6049 545.92 46.7127 545.928C44.1491 545.937 41.586 545.929 39.0224 545.917C38.2805 545.924 37.5386 545.931 36.7742 545.938C32.5033 545.895 29.7363 545.393 26.3595 542.72C24.0173 539.207 24.209 537.392 24.1744 533.194C24.1665 532.518 24.1587 531.841 24.1505 531.144C24.1277 528.906 24.1194 526.669 24.1131 524.431C24.1046 522.874 24.096 521.318 24.0872 519.761C24.0716 516.498 24.0643 513.234 24.0616 509.97C24.0565 505.791 24.0208 501.613 23.9775 497.435C23.9493 494.219 23.9424 491.004 23.9415 487.789C23.9375 486.248 23.9257 484.708 23.9059 483.168C23.8805 481.011 23.885 478.856 23.8969 476.698C23.8921 475.472 23.8873 474.246 23.8823 472.982C24.613 468.952 26.0708 467.581 29.2017 465.033C35.4223 461.923 43.0897 464.086 50.0445 464.086C50.0445 402.495 50.0445 340.905 50.0445 277.448C43.479 277.448 36.9135 277.448 30.1491 277.448C24.4647 272.711 24.4647 272.711 23.7492 270.303C23.7476 269.453 23.7459 268.602 23.7442 267.726C23.7294 266.755 23.7145 265.785 23.6992 264.785C23.7209 263.227 23.7209 263.227 23.7431 261.638C23.7399 260.563 23.7367 259.487 23.7334 258.379C23.7337 256.108 23.7481 253.837 23.7757 251.566C23.8132 248.09 23.7953 244.619 23.7708 241.143C23.778 238.935 23.7884 236.727 23.8023 234.519C23.7957 233.481 23.789 232.442 23.7822 231.373C23.9147 224.223 23.9147 224.223 26.6158 220.407C29.2517 218.676 30.2665 218.168 33.3429 218.372C34.4997 218.406 34.4997 218.406 35.6799 218.44C36.8991 218.486 36.8991 218.486 38.1428 218.532C47.6771 218.43 52.5353 215.938 59.5985 209.817C63.1268 206.844 66.8848 204.164 70.5913 201.419C72.223 200.193 73.8538 198.966 75.4837 197.737C82.3271 192.592 89.2276 187.525 96.1271 182.456C99.8747 179.701 103.618 176.941 107.362 174.181C108.862 173.076 110.362 171.971 111.862 170.866C112.605 170.318 113.347 169.771 114.112 169.208C120.863 164.234 120.863 164.234 123.113 162.576C124.613 161.47 126.114 160.364 127.615 159.258C131.352 156.504 135.089 153.752 138.83 151.004C146.527 145.345 154.201 139.657 161.838 133.917C170.212 127.622 178.635 121.394 187.078 115.191C190.825 112.436 194.569 109.676 198.313 106.916C199.813 105.811 201.313 104.706 202.813 103.6C203.555 103.053 204.298 102.506 205.063 101.942C211.813 96.9687 211.813 96.9687 214.064 95.3102C215.562 94.2066 217.059 93.1028 218.557 91.999C222.341 89.2101 226.126 86.4229 229.914 83.6384C231.44 82.516 232.966 81.3934 234.492 80.2707C235.23 79.7277 235.968 79.1846 236.728 78.625C242.459 74.4022 248.158 70.138 253.833 65.8391C259.113 61.8541 262.28 60.5093 268.894 61.4412ZM264.157 83.2314C263.192 83.9775 262.227 84.7237 261.233 85.4925C253.351 91.5663 245.396 97.5113 237.31 103.311C232.659 106.651 228.051 110.042 223.478 113.489C215.74 119.321 207.942 125.068 200.135 130.807C196.367 133.578 192.603 136.353 188.839 139.128C184.307 142.468 179.774 145.807 175.238 149.142C168.223 154.302 161.218 159.473 154.259 164.707C146.537 170.515 138.759 176.244 130.975 181.967C127.207 184.738 123.443 187.513 119.678 190.287C118.188 191.385 116.698 192.483 115.208 193.581C112.108 195.865 109.01 198.149 105.912 200.435C105.128 201.012 104.345 201.59 103.539 202.185C102.004 203.317 100.469 204.449 98.9344 205.581C93.9529 209.255 88.9458 212.889 83.903 216.478C83.3595 216.901 82.8161 217.325 82.2561 217.762C82.2561 218.074 82.2561 218.387 82.2561 218.709C94.2162 220.125 105.763 221.362 115.886 213.912C119.148 211.212 122.323 208.436 125.446 205.576C128.965 202.458 132.765 199.789 136.613 197.097C137.994 196.11 139.373 195.122 140.751 194.132C141.749 193.418 141.749 193.418 142.767 192.689C146.751 189.818 150.699 186.898 154.645 183.974C159.312 180.531 161.603 179.364 167.522 179.866C170.316 181.323 171.83 182.387 172.859 185.428C173.415 188.56 173.532 190.454 172.285 193.444C169.499 197.111 166.036 199.614 162.371 202.367C161.612 202.947 160.853 203.527 160.071 204.125C156.617 206.76 153.141 209.366 149.658 211.963C149.128 212.358 148.598 212.753 148.052 213.161C146.649 214.203 145.239 215.237 143.83 216.27C143.207 216.763 142.584 217.255 141.942 217.762C141.942 218.074 141.942 218.387 141.942 218.709C222.917 218.709 303.891 218.709 387.319 218.709C384.301 215.691 381.725 213.178 378.4 210.66C377.611 210.06 376.821 209.46 376.008 208.841C374.748 207.893 374.748 207.893 373.463 206.926C372.142 205.925 372.142 205.925 370.793 204.903C364.398 200.071 357.954 195.307 351.487 190.572C345.751 186.362 340.09 182.061 334.442 177.734C329.072 173.621 323.693 169.545 318.159 165.655C311.748 161.149 305.543 156.385 299.323 151.62C291.495 145.632 283.586 139.756 275.609 133.968C274.24 132.949 272.894 131.899 271.568 130.824C270.907 130.294 270.245 129.763 269.564 129.217C268.979 128.733 268.393 128.249 267.79 127.75C266.103 126.634 266.103 126.634 264.173 126.973C262.007 127.864 260.362 128.947 258.487 130.353C257.765 130.891 257.042 131.429 256.298 131.983C255.53 132.562 254.763 133.142 253.972 133.739C253.178 134.329 252.383 134.92 251.564 135.528C247.659 138.434 243.791 141.379 239.972 144.398C239.306 144.918 238.639 145.437 237.953 145.973C236.707 146.948 235.471 147.936 234.246 148.938C230.004 152.244 226.929 153.209 221.524 153.339C218.267 152.036 218.267 152.036 215.84 149.549C214.749 146.027 214.24 142.647 215.637 139.168C216.934 136.985 218.148 135.961 220.21 134.494C220.915 133.986 221.619 133.477 222.345 132.953C223.11 132.411 223.874 131.87 224.662 131.312C226.292 130.136 227.92 128.96 229.547 127.781C230.401 127.164 231.255 126.547 232.134 125.911C237.498 121.986 242.754 117.916 248.021 113.862C249.565 112.677 251.116 111.5 252.672 110.331C254.328 109.079 255.952 107.785 257.566 106.479C261.482 104.441 264.575 104.069 268.894 105.021C272.008 106.586 274.602 108.636 277.302 110.824C278.891 112.053 280.479 113.282 282.069 114.51C282.871 115.141 283.674 115.772 284.5 116.422C288.197 119.299 291.989 122.042 295.776 124.798C303.04 130.132 310.21 135.582 317.366 141.059C323.523 145.763 329.742 150.374 335.994 154.951C341.728 159.16 347.388 163.461 353.035 167.787C358.405 171.899 363.784 175.976 369.318 179.866C375.729 184.372 381.935 189.136 388.154 193.901C395.989 199.895 403.88 205.821 411.906 211.558C413.846 213.025 413.846 213.025 415.576 214.651C421.387 219.883 427.169 219.374 434.689 219.065C436.468 219.026 436.468 219.026 438.283 218.987C441.192 218.92 444.098 218.827 447.005 218.709C444.646 216.273 442.281 214.111 439.541 212.114C438.834 211.597 438.127 211.079 437.398 210.545C436.641 209.996 435.884 209.446 435.104 208.88C433.474 207.688 431.844 206.497 430.215 205.305C429.383 204.698 428.551 204.092 427.694 203.467C423.858 200.665 420.037 197.844 416.215 195.024C414.718 193.921 413.222 192.818 411.726 191.716C410.984 191.169 410.242 190.622 409.477 190.059C407.19 188.375 404.902 186.692 402.614 185.01C394.979 179.394 387.363 173.754 379.788 168.056C372.68 162.715 365.514 157.452 358.351 152.185C353.835 148.864 349.324 145.537 344.811 142.211C341.027 139.422 337.242 136.635 333.454 133.85C325.818 128.234 318.203 122.594 310.628 116.896C304.299 112.141 297.925 107.448 291.546 102.76C288.331 100.397 285.122 98.025 281.917 95.6475C281.105 95.0459 280.292 94.4442 279.455 93.8244C277.901 92.6729 276.348 91.5199 274.796 90.3651C271.337 87.8063 267.912 85.3482 264.157 83.2314ZM43.4127 237.657C43.4127 244.223 43.4127 250.788 43.4127 257.553C190.98 257.553 338.547 257.553 490.586 257.553C490.586 250.987 490.586 244.422 490.586 237.657C343.019 237.657 195.452 237.657 43.4127 237.657ZM69.9399 277.448C69.9399 339.038 69.9399 400.629 69.9399 464.086C71.8158 464.086 73.6916 464.086 75.6243 464.086C75.5456 462.503 75.5456 462.503 75.4652 460.888C75.2777 449.241 78.3923 442.368 85.7289 433.425C86.3547 432.657 86.3547 432.657 86.9931 431.874C87.4811 431.344 87.9691 430.814 88.4719 430.268C90.2931 427.351 90.1852 425.339 90.1771 421.91C90.1808 420.982 90.1808 420.982 90.1845 420.036C90.1892 417.966 90.1735 415.896 90.158 413.826C90.1572 412.342 90.1576 410.857 90.1593 409.372C90.1601 405.342 90.1433 401.312 90.1235 397.282C90.1058 393.071 90.1041 388.859 90.1007 384.647C90.0919 376.672 90.0685 368.696 90.04 360.721C90.0083 351.641 89.9926 342.561 89.9784 333.481C89.9486 314.803 89.8981 296.126 89.8353 277.448C83.2698 277.448 76.7044 277.448 69.9399 277.448ZM109.731 277.448C109.731 324.657 109.731 371.866 109.731 420.505C118.172 420.505 126.613 420.505 135.311 420.505C135.311 373.296 135.311 326.087 135.311 277.448C126.869 277.448 118.428 277.448 109.731 277.448ZM155.206 277.448C154.874 303.851 154.874 303.851 154.651 330.254C154.584 341.031 154.505 351.806 154.348 362.582C154.234 370.432 154.162 378.281 154.136 386.132C154.122 390.284 154.087 394.433 154.004 398.585C152.819 420.484 152.819 420.484 162.42 439.276C163.788 440.617 165.18 441.931 166.575 443.243C168.47 447.032 168.47 447.032 169.417 464.086C185.987 464.086 202.557 464.086 219.629 464.086C219.942 458.458 220.254 452.831 220.577 447.032C223.033 442.316 225.317 438.712 228.834 434.805C234.647 427.693 234.75 421.089 234.593 412.321C234.591 410.844 234.592 409.368 234.596 407.892C234.598 403.911 234.559 399.931 234.513 395.95C234.471 391.78 234.467 387.61 234.459 383.44C234.439 375.555 234.384 367.671 234.318 359.786C234.23 349.123 234.194 338.46 234.155 327.797C234.093 311.014 233.961 294.231 233.84 277.448C207.891 277.448 181.942 277.448 155.206 277.448ZM253.736 277.448C253.736 324.657 253.736 371.866 253.736 420.505C262.177 420.505 270.618 420.505 279.315 420.505C279.315 373.296 279.315 326.087 279.315 277.448C270.874 277.448 262.433 277.448 253.736 277.448ZM299.211 277.448C298.852 303.805 298.852 303.805 298.609 330.162C298.537 340.922 298.451 351.68 298.282 362.439C298.158 370.277 298.079 378.115 298.052 385.954C298.036 390.099 297.999 394.24 297.909 398.384C297.074 422.235 297.074 422.235 308.783 442.347C309.286 442.826 309.789 443.305 310.308 443.799C314.841 448.777 313.14 459.291 313.422 464.086C329.992 464.086 346.562 464.086 363.634 464.086C363.947 458.145 364.259 452.205 364.581 446.085C366.58 441.974 367.977 439.397 370.74 436.019C371.315 435.25 371.89 434.48 372.483 433.687C376.111 428.871 376.111 428.871 377.845 427.137C377.937 425.207 377.961 423.273 377.959 421.34C377.96 420.728 377.961 420.116 377.961 419.486C377.963 417.42 377.958 415.354 377.953 413.289C377.952 411.814 377.952 410.339 377.953 408.864C377.953 404.847 377.948 400.831 377.941 396.814C377.935 392.622 377.935 388.429 377.933 384.236C377.931 376.291 377.923 368.345 377.913 360.4C377.901 349.667 377.896 338.935 377.89 328.202C377.881 311.284 377.862 294.366 377.845 277.448C351.896 277.448 325.946 277.448 299.211 277.448ZM397.74 277.448C397.74 324.657 397.74 371.866 397.74 420.505C406.182 420.505 414.623 420.505 423.32 420.505C423.32 373.296 423.32 326.087 423.32 277.448C414.879 277.448 406.438 277.448 397.74 277.448ZM443.216 277.448C442.929 296.777 442.71 316.106 442.578 335.437C442.514 344.415 442.428 353.391 442.287 362.368C442.163 370.2 442.084 378.031 442.057 385.865C442.041 390.006 442.004 394.144 441.913 398.284C441.219 422.426 441.219 422.426 452.787 443.09C453.291 443.608 453.794 444.127 454.313 444.661C457.194 448.027 456.788 452.479 457.012 456.684C457.053 457.394 457.094 458.104 457.136 458.836C457.236 460.586 457.332 462.336 457.427 464.086C458.99 464.086 460.553 464.086 462.164 464.086C462.164 402.495 462.164 340.905 462.164 277.448C455.911 277.448 449.658 277.448 443.216 277.448ZM96.976 449.801C94.907 454.601 94.907 454.601 95.5197 464.086C113.34 464.086 131.161 464.086 149.522 464.086C149.623 451.864 149.623 451.864 143.252 442.856C138.074 438.273 131.452 438.54 124.877 438.743C122.515 438.802 120.185 438.724 117.824 438.634C107.644 438.542 102.302 440.971 96.976 449.801ZM241.419 449.875C240.794 450.813 240.169 451.751 239.525 452.717C239.525 456.469 239.525 460.22 239.525 464.086C257.345 464.086 275.166 464.086 293.526 464.086C293.526 454.178 293.142 450.131 287.266 443.087C283.248 439.188 278.86 438.826 273.449 438.733C271.891 438.759 270.334 438.809 268.777 438.88C266.399 438.98 264.043 438.958 261.663 438.92C251.646 438.986 246.432 440.51 241.419 449.875ZM384.764 448.969C382.937 453.859 382.937 453.859 383.529 464.086C401.35 464.086 419.171 464.086 437.531 464.086C437.531 454.199 437.17 450.129 431.296 443.1C426.657 438.612 421.008 438.58 414.844 438.634C413.649 438.678 413.649 438.678 412.43 438.724C409.99 438.802 407.58 438.744 405.14 438.671C395.102 438.637 390.176 440.398 384.764 448.969ZM43.4127 483.981C43.4127 497.737 43.4127 511.494 43.4127 525.667C85.932 525.667 128.451 525.667 172.259 525.667C172.259 511.91 172.259 498.154 172.259 483.981C129.74 483.981 87.2205 483.981 43.4127 483.981ZM192.155 483.981C192.155 487.733 192.155 491.484 192.155 495.35C241.239 495.35 290.324 495.35 340.896 495.35C340.896 491.598 340.896 487.846 340.896 483.981C291.812 483.981 242.727 483.981 192.155 483.981ZM360.792 483.981C360.792 497.737 360.792 511.494 360.792 525.667C402.999 525.667 445.205 525.667 488.691 525.667C488.691 511.91 488.691 498.154 488.691 483.981C446.484 483.981 404.278 483.981 360.792 483.981ZM192.155 515.245C192.155 518.684 192.155 522.123 192.155 525.667C241.239 525.667 290.324 525.667 340.896 525.667C340.896 522.228 340.896 518.789 340.896 515.245C291.812 515.245 242.727 515.245 192.155 515.245Z" fill="#1E3238"/>
<path d="M278.783 158.017C285.235 161.846 290.203 167.057 292.579 174.242C294.568 182.689 293.571 189.15 289.737 196.92C285.368 203.545 280.079 206.771 272.684 209.236C262.825 210.134 255.928 209.04 248.026 203.041C242.708 198.297 240.067 192.626 239.166 185.592C238.84 177.401 240.904 171.201 245.387 164.412C254.149 156.04 267.47 152.89 278.783 158.017ZM260.842 177.557C259.118 179.894 259.118 179.894 259.48 183.242C260.399 187.039 260.399 187.039 263.21 189.341C266.34 189.74 268.238 189.66 271.085 188.275C273.33 185.781 273.631 184.153 273.631 180.814C272.361 177.963 272.361 177.963 269.842 176.077C266.061 175.47 264.107 175.517 260.842 177.557Z" fill="#1E3238"/>
<path d="M198.788 157.129C202.144 159.61 203.323 161.159 204.472 165.182C204.472 169.746 203.061 171.698 200.031 174.952C196.814 176.604 193.757 176.722 190.261 176.077C187.599 174.378 185.989 173.217 184.577 170.393C184.251 165.421 184.039 162.039 187.419 158.076C191.317 155.695 194.449 155.967 198.788 157.129Z" fill="#1E3238"/>
</svg>
