<svg width="590" height="560" viewBox="0 0 590 560" fill="none" xmlns="http://www.w3.org/2000/svg">
<g clip-path="url(#clip0_420_13088)">
<mask id="mask0_420_13088" style="mask-type:luminance" maskUnits="userSpaceOnUse" x="0" y="0" width="590" height="560">
<path d="M590 0H0V560H590V0Z" fill="white"/>
</mask>
<g mask="url(#mask0_420_13088)">
<path d="M336.461 520C476.189 520 589.461 406.728 589.461 267C589.461 127.272 476.189 14 336.461 14C196.733 14 83.4609 127.272 83.4609 267C83.4609 406.728 196.733 520 336.461 520Z" fill="#E5F6FF"/>
<path d="M227.044 514.706C210.82 508.195 195.652 502.544 179.621 496.138C171.947 493.071 164.098 490.129 155.909 486.854C125.971 474.88 134.774 478.283 96.488 478.283C96.488 484.456 97.981 497.283 87.488 497.283H9.5C7.11589 497.274 4.83205 496.323 3.14622 494.637C1.46039 492.951 0.509218 490.667 0.5 488.283V309.304C0.5 298.925 20.511 301.304 24.5 301.304H55.5C49.449 275.329 53.133 237.437 59.7 213.521C62.117 204.721 69.583 174.321 80.492 174.321C86.608 174.321 91.492 176.921 91.492 183.321C91.492 194.762 68.602 219.065 74.466 289.337C75.344 299.87 74.607 299.987 77.675 301.125C79.401 301.601 81.2105 301.69 82.975 301.387C85.563 301.158 88.352 300.929 91.161 302.642C98.312 306.999 96.496 314.853 96.496 325.303H118.496V225.314C118.505 222.93 119.456 220.646 121.142 218.96C122.828 217.274 125.112 216.323 127.496 216.314H207.486V160.323C207.523 157.682 208.589 155.161 210.456 153.293C212.324 151.426 214.845 150.36 217.486 150.323H304.475C314.907 150.323 317.475 156.923 317.475 167.323V267.309H395.466C397.651 267.304 399.784 267.979 401.568 269.241C403.352 270.502 404.699 272.288 405.423 274.35C407.623 280.366 406.464 377.611 406.464 386.295C411.364 383.014 420.005 368.919 423.407 363.242C438.954 337.295 449.458 303.922 449.458 270.309C449.458 247.095 445.458 234.674 445.458 224.315C445.458 215.568 461.823 210.797 465.517 224.254C467.669 232.092 471.297 265.367 469.878 274.731C469.048 280.206 469.127 287.37 468.541 292.393C464.907 323.62 455.232 350.109 439.892 375.73C434.777 384.274 412.901 414.572 406.462 416.292V439.292C410.034 437.578 418.462 436.218 423.262 435.092C436.369 432.023 461.145 425.262 472.513 426.152C496.682 428.047 510.847 446.779 512.449 466.39V473.864C511.828 482.107 508.755 489.975 503.624 496.457C491.474 511.617 477.988 512.674 460.254 517.078L385.468 536.278C362.568 541.951 352.968 546.278 326.474 546.278C299.89 546.274 252.342 524.855 227.044 514.706ZM96.488 457.286H133.488C139.594 457.286 152.03 463.5 158.109 465.658C166.431 468.612 172.839 471.723 181.109 474.658C204.723 483.041 250.373 501.629 273.759 510.993C302.415 522.466 306.01 525.278 336.459 525.278C349.235 525.278 428.513 504.414 441.025 500.859C459.062 495.735 480.492 493.833 488.038 482.881C492.638 476.202 493.745 465.928 489.287 458.441C477.421 438.51 458.206 448.696 436.365 453.206C412.482 458.137 376.771 467.876 354.765 471.594C320.088 477.453 287.998 463.574 256.75 451.008L220.05 436.708C208.727 432.402 188.476 427.801 188.476 418.289C188.442 416.835 188.703 415.389 189.244 414.039C189.785 412.69 190.594 411.463 191.622 410.435C192.65 409.407 193.877 408.598 195.227 408.057C196.576 407.516 198.022 407.255 199.476 407.289C201.744 407.289 233.263 419.789 238.04 421.718C244.663 424.395 271.161 435.285 276.466 435.285C303.893 435.285 311.011 407.246 298.251 393.502C293.658 388.555 290.905 387.439 284.031 384.725C271.161 379.643 190.915 345.296 187.477 345.296H96.488V457.286ZM20.498 477.286H75.491V322.304H20.5L20.498 477.286ZM317.46 382.295C317.46 386.395 331.985 406.442 319.785 430.613C316.335 437.445 317.46 440.885 317.46 450.287C332.014 453.677 348.76 452.561 363.06 448.892C367.135 447.846 370.693 447.228 374.46 446.297C378.214 445.371 380.72 444.286 385.448 444.286V288.307H317.46V382.295ZM227.473 339.3C233.884 340.794 290.159 365.828 296.463 367.3V171.321H227.473V339.3ZM138.484 325.3H192.477C195.888 325.3 203.047 329.267 207.477 330.3V236.313H138.483L138.484 325.3ZM403.45 184.32C403.45 170.163 415.85 158.343 429.329 158.703C442.918 159.067 454.444 169.641 454.444 184.32C454.444 197.742 443.086 209.32 431.444 209.32C414.6 209.318 403.45 198.566 403.45 184.32ZM424.45 183.32C424.45 191.392 433.45 189.945 433.45 185.32C433.45 180.755 431.511 179.176 429.432 179.177C427.03 179.177 424.447 181.279 424.447 183.32H424.45ZM351.459 194.32C351.459 190.62 353.705 187.604 355.683 185.546L425.6 105.478C432.547 96.799 437.341 89.332 445.449 89.332C448.586 89.332 460.774 96.346 450.249 108.125L387.6 180.467C383.984 184.96 379.425 189.154 375.878 193.741C369.699 201.73 364.751 204.395 360.968 204.395C354.521 204.394 351.456 196.659 351.456 194.318L351.459 194.32ZM91.489 150.324C91.899 148.002 92.7134 145.771 93.895 143.731C98.795 137.247 112.486 140.07 112.486 149.325C112.486 156.869 107.393 160.253 102.223 160.253C96.9 160.249 91.489 156.659 91.489 150.324ZM351.1 123.683C348.059 118.327 348.456 115.283 348.456 109.329C348.456 92.796 371.55 77.044 390.183 92.6C397.915 99.055 398.449 105.22 398.449 114.328C398.449 127.393 385.926 137.056 373.035 137.056C364.827 137.055 356.468 133.137 351.1 123.683ZM369.453 115.327C371.696 115.85 371.753 116.327 374.453 116.327C378.3 116.327 382.302 107.327 372.453 107.327C367.672 107.33 368.746 112.291 369.454 115.328L369.453 115.327ZM118.485 119.327C118.485 111.41 138.059 99.258 143.685 95.527C200.528 57.804 265.309 49.001 330.1 70.694C351.779 77.953 339.862 92.331 332.461 92.331C329.837 92.331 294.19 79.331 260.47 79.331C214.17 79.331 171.479 97.538 136.817 126.657C134.297 128.961 131.049 130.309 127.638 130.467C122.506 130.468 118.486 126.555 118.486 119.328L118.485 119.327Z" fill="#1E3238"/>
</g>
</g>
<defs>
<clipPath id="clip0_420_13088">
<rect width="590" height="560" fill="white"/>
</clipPath>
</defs>
</svg>
