<svg width="590" height="560" viewBox="0 0 590 560" fill="none" xmlns="http://www.w3.org/2000/svg">
<g clip-path="url(#clip0_420_13071)">
<mask id="mask0_420_13071" style="mask-type:luminance" maskUnits="userSpaceOnUse" x="0" y="0" width="590" height="560">
<path d="M590 0H0V560H590V0Z" fill="white"/>
</mask>
<g mask="url(#mask0_420_13071)">
<path d="M295 508C434.728 508 548 394.728 548 255C548 115.272 434.728 2 295 2C155.272 2 42 115.272 42 255C42 394.728 155.272 508 295 508Z" fill="#E5F6FF"/>
<path fill-rule="evenodd" clip-rule="evenodd" d="M108.522 397.239V266.007C200.622 266.007 245.228 228.207 247.36 227.969C250.355 228.769 251.638 230.22 253.871 231.919C256.109 233.559 258.484 235.003 260.971 236.235C297.265 256.46 342.582 266.958 386.203 266.958V405.799C386.203 427.88 378.966 449.466 370.087 464.807C364.265 474.867 352.487 492.007 343.96 498.59C333.115 506.959 324.184 515.805 309.175 522.765C299.291 527.436 288.975 531.134 278.375 533.808C256.956 539.169 239.475 539.282 218.061 533.998C208.761 531.703 194.251 526.654 185.861 522.457L169.197 512.495C165.222 509.852 163.087 508.21 159.325 505.251C142.786 492.242 130.025 475.232 120.558 455.578C113.124 440.14 108.526 419.741 108.526 397.24L108.522 397.239ZM241.706 70.1113C220.176 70.9698 199.246 77.4492 180.996 88.9051C162.747 100.361 147.814 116.394 137.683 135.411C129.904 149.887 122.783 168.011 122.783 188.031V246.039C114.847 246.039 110.877 247.073 102.791 246.968C95.072 246.868 89.5 248.25 89.5 255.549V408.649C89.5 462.658 132.608 521.938 181.606 541.92C209.508 553.299 220.3 556.999 253.066 556.999C264.608 556.999 277.415 554.532 286.899 551.843C310.532 545.143 332.105 534.521 350.729 518.676C356.056 514.144 361.461 509.6 365.679 504.146C370.179 498.323 371.213 499.103 378.791 487.777C384.408 479.377 388.659 472.545 392.883 462.877C401.152 443.956 406.169 424.477 406.169 397.235V259.351C406.169 243.964 389.718 246.988 372.885 246.988C372.885 212.588 375.985 177.701 362.985 146.581C354.967 127.389 338.645 106.416 322.492 94.8313C301.921 79.85 277.396 71.2529 251.974 70.1113H241.706ZM185.549 235.577C196.549 233.013 208.709 227.31 218.198 222.577C223.203 220.15 227.999 217.311 232.534 214.09C234.796 212.586 236.959 210.937 239.008 209.153C245.454 203.302 249.457 203.837 255.795 209.071C269.106 220.06 292.772 231.752 309.172 235.571C309.172 221.943 309.107 208.299 309.179 194.671C309.499 133.487 228.204 109.215 194.851 162.137C182.613 181.555 185.551 205.137 185.551 235.568L185.549 235.577ZM165.578 240.331C165.578 219.47 163.884 186.571 170.458 168.184C174.332 157.225 180.497 147.218 188.541 138.828C196.585 130.438 206.324 123.858 217.11 119.527C227.896 115.195 239.481 113.211 251.094 113.707C262.707 114.203 274.08 117.167 284.458 122.402C288.773 124.608 292.909 127.149 296.826 130.002C300.387 132.745 303.702 135.794 306.733 139.113C334.714 172.404 329.142 192.376 329.142 241.279C332.17 241.279 351.289 244.302 352.916 245.079C352.916 188.598 359.98 147.803 308.499 108.814C267.683 77.9013 208.169 85.2463 172.47 120.739C136.771 156.232 141.8 195.606 141.8 244.135C148.227 244.135 159.9 241.654 165.578 240.331Z" fill="#1E3238"/>
<path fill-rule="evenodd" clip-rule="evenodd" d="M150.363 375.368C150.363 390.845 151.571 402.445 155.312 416.068C161.978 440.329 174.678 465.068 194.494 480.541C199.145 484.171 201.451 486.634 209.322 486.634H287.299C297.015 486.634 314.877 469.934 314.877 461.909C314.877 456.49 309.877 452.399 304.416 452.399C298.131 452.399 290.716 466.663 285.396 466.663H209.323C206.237 466.663 196.03 454.975 194.088 452.419C160.326 407.967 161.088 335.934 202.427 294.302C205.068 291.643 207.453 287.884 212.175 287.884H284.448C291.767 287.884 309.807 315.137 313.617 323.379C320.323 337.887 325.338 359.36 325.338 376.322C325.338 385.222 319.36 404.851 333.897 404.851C335.727 404.85 337.519 404.334 339.069 403.361C340.619 402.388 341.863 400.998 342.66 399.351C345.05 393.851 344.36 377.551 344.36 370.618C344.36 347.293 335.879 322.641 327.293 307.805C324.646 303.231 322.58 299.671 319.632 295.495C311.653 284.195 309.644 283.127 300.372 274.816C296.728 271.55 292.797 267.916 286.351 267.916H208.369C194.241 267.916 172.418 298.741 166.839 309.116C158.095 325.379 150.363 350.765 150.363 375.368Z" fill="#1E3238"/>
<path fill-rule="evenodd" clip-rule="evenodd" d="M238.799 321.164V326.874C226.699 326.874 217.877 337.474 217.877 349.697C217.877 362.979 215.752 376.479 230.043 384.128C236.975 387.838 248.431 386.784 258.768 386.784C259.699 390.779 262.121 408.656 255.915 408.656C229.735 408.656 241.488 409.299 236.346 399.698C231.514 390.675 217.877 393.998 217.877 404.853C217.877 417.073 226.696 427.676 238.799 427.676C238.799 432.376 238.399 442.891 247.357 442.891C259.17 442.891 257.818 434.659 257.818 427.676C269.638 427.676 278.739 417.694 278.739 405.804C278.739 386.839 281.75 366.584 251.167 366.809C235.614 366.922 237.848 370.244 237.848 348.746C237.848 344.205 244.214 345.893 255.916 345.893C262.131 345.893 256.642 358.256 269.23 358.256C285.952 358.256 279.611 326.874 257.818 326.874C257.818 320.635 258.977 311.659 248.308 311.659C247.056 311.644 245.813 311.88 244.653 312.353C243.493 312.825 242.439 313.525 241.553 314.41C240.667 315.296 239.967 316.349 239.494 317.509C239.022 318.669 238.785 319.912 238.799 321.164Z" fill="#1E3238"/>
<path fill-rule="evenodd" clip-rule="evenodd" d="M314.879 429.572C314.879 439.818 324.717 443.562 331.046 438.136C337.339 432.736 333.986 421.014 324.388 421.014C320.068 421.014 314.879 425.532 314.879 429.572Z" fill="#1E3238"/>
</g>
</g>
<defs>
<clipPath id="clip0_420_13071">
<rect width="590" height="560" fill="white"/>
</clipPath>
</defs>
</svg>
