<svg width="590" height="560" viewBox="0 0 590 560" fill="none" xmlns="http://www.w3.org/2000/svg">
<g clip-path="url(#clip0_420_13081)">
<mask id="mask0_420_13081" style="mask-type:luminance" maskUnits="userSpaceOnUse" x="0" y="0" width="590" height="560">
<path d="M590 0H0V560H590V0Z" fill="white"/>
</mask>
<g mask="url(#mask0_420_13081)">
<path d="M330 520C469.728 520 583 406.728 583 267C583 127.272 469.728 14 330 14C190.272 14 77 127.272 77 267C77 406.728 190.272 520 330 520Z" fill="#E5F6FF"/>
<path fill-rule="evenodd" clip-rule="evenodd" d="M101.168 46.0162C96.3004 50.8842 97.0084 53.7162 108.517 75.3782L118.63 94.4162L115.285 94.9972C100.691 97.5362 105.022 115.405 120.232 115.405H125.65V122.952L118.621 123.452C100.971 124.715 101.128 143.713 118.79 143.713H125.746L125.454 149.162L125.162 154.608L118.244 157.296C74.3724 174.337 42.3854 212.223 31.7894 259.696C29.7634 268.772 29.6474 272.227 28.9894 342.871C28.1414 433.746 28.0014 435.006 13.2894 483.871C2.59939 519.379 5.01839 531.588 24.5474 540.681L29.4924 542.981L235.518 542.99C463.04 543.001 445.828 543.477 460.027 536.782C500.445 517.726 518.499 458.989 498.299 412.268C493.311 400.729 490.307 396.831 451.762 351.88L415.596 309.703V296.009H420.891C428.491 296.009 432.191 292.829 432.191 286.302C432.191 281.175 429.026 276.484 425.567 276.484C422.029 276.484 422.58 275.031 436.225 248.376C451.566 218.403 451.88 217.219 445.877 211.808L442.899 209.123H376.481C288.534 209.123 293.772 205.658 315.637 249.364C322.945 263.972 328.458 276.079 327.889 276.264C316.971 279.903 319.808 296.004 331.365 296.004H335.538V309.475L323.091 324.303L310.644 339.132L310.079 305.121C309.346 260.994 307.286 250.061 295.031 225.227C287.522 210.009 285.365 207.655 278.939 207.655C268.339 207.655 266.157 215.884 273.391 228.548C280.291 240.635 283.901 250.34 287.861 267.488C288.54 270.425 289.179 298.718 289.632 345.794C290.502 436.368 291.022 440.994 305.769 489.1C313.895 515.6 313.731 519.89 304.501 522.454C299.493 523.845 39.6644 523.846 34.6564 522.454C25.5944 519.937 25.2694 515.449 32.4474 491.954C48.1894 440.428 48.6094 436.802 49.5034 344.817C50.2704 265.798 50.1644 267.442 55.5264 251.098C61.0262 234.531 70.0437 219.349 81.9606 206.593C93.8775 193.838 108.412 183.81 124.567 177.198L134.921 173.022L169.578 173.042L204.234 173.063L211.557 175.955C222.378 180.229 227.372 179.594 230.639 173.526C234.312 166.704 230.888 161.151 220.601 157.246L214.513 154.936L214.499 149.323L214.484 143.71H221.85C240.4 143.71 239.865 124.423 221.286 123.373L214.486 122.988V115.405H220.88C231.14 115.405 234.987 112.473 234.987 104.655C234.987 98.8022 230.947 94.9032 224.887 94.9032H220.487L230.18 74.9862C240.332 54.1232 240.78 52.6402 238.397 48.0252C235.838 43.0762 237.071 43.1622 168.594 43.1622H104.023L101.168 46.0162ZM148.908 70.7402C150.567 75.1702 153.257 82.4402 154.885 86.8872L157.847 94.9812L149.96 94.6972L142.074 94.4152L133.863 78.8382C129.346 70.2712 125.652 63.1322 125.652 62.9742C129.018 62.688 132.396 62.5922 135.772 62.6872H145.892L148.909 70.7412M212.374 63.5302C212.194 63.9922 208.784 71.2412 204.793 79.6372L197.538 94.9032H179.768L174.185 79.5282C171.115 71.0712 168.603 63.8222 168.604 63.4202C168.605 63.0182 178.526 62.6882 190.652 62.6882C202.778 62.6882 212.552 63.0672 212.374 63.5302ZM193.988 119.31V123.21H146.151V115.4H193.987V119.3M193.987 148.1V152.494H146.151V143.708H193.987V148.1ZM248.413 179.907C243.357 182.851 242.435 190.988 246.624 195.677C254.188 204.142 267.686 195.297 263.314 184.741C261.173 179.573 253.347 177.034 248.414 179.908M370.705 230.838C370.714 231.509 369.968 241.838 369.048 253.78L367.375 275.502H351.475L340.96 253.78C335.176 241.833 330.227 231.509 329.96 230.838C329.584 229.886 333.994 229.618 350.083 229.618C365.908 229.618 370.693 229.9 370.706 230.838M411.006 252.316L399.486 275.016L393.728 275.316L387.97 275.616L388.579 267.997C388.914 263.807 389.709 253.459 390.343 245.002L391.499 229.627H422.526L411.006 252.327M154.295 245.717C79.2663 259.327 50.4584 352.27 104.659 405.856C162.838 463.374 261.638 424.247 264.938 342.38C267.376 281.931 213.601 234.95 154.292 245.712M185.379 266.187C236.679 277.06 261.164 335.764 232.464 379.087C196.898 432.778 114.881 418.345 99.1714 355.632C86.3944 304.626 133.95 255.284 185.379 266.184M166.052 279.346C162.796 280.733 159.815 285.22 159.815 288.739C159.815 291.494 159.415 292.039 156.943 292.576C146.523 294.865 142.243 302.786 142.243 319.783C142.243 341.261 148.396 347.728 168.843 347.741H177.385V363.361H162.838L162.202 359.975C161.476 356.104 157.743 351.909 154.621 351.453C137.287 348.924 138.111 376.391 155.549 382.379C158.71 383.465 159.423 384.215 159.884 386.944C161.046 393.825 163.938 396.553 170.071 396.553C176.204 396.553 179.097 393.825 180.259 386.944C180.72 384.215 181.432 383.465 184.594 382.379C194.711 378.905 197.894 372.426 197.894 355.313C197.894 333.47 193.194 327.996 173.894 327.383L162.745 327.029V312.523L170.186 312.808L177.626 313.094L178.726 316.51C180.299 321.391 185.826 324.049 191.113 322.464C203.856 318.647 197.793 295.788 183.187 292.579C180.694 292.032 180.315 291.509 180.315 288.625C180.315 282.051 172.156 276.745 166.05 279.348M395.089 299.914V303.814H356.039V296.004H395.089V299.904M437.013 366.532C469.213 404.087 473.701 409.725 477.573 417.54C493.973 450.632 485.709 493.279 459.032 513.227C446.132 522.873 441.958 523.419 380.876 523.444L332.007 523.463L332.378 514.921C332.734 506.697 332.513 505.613 326.449 485.878C313.893 445.016 310.166 422.641 310.158 388.094V372.314L330.189 348.314L350.22 324.314H400.81L437.016 366.536M371.442 371.719C368.106 373.528 366.78 375.963 366.78 380.275C366.78 383.375 366.494 383.7 363.28 384.304C353.127 386.21 347.686 396.94 348.441 413.571C349.299 432.486 355.507 438.534 374.068 438.534H384.357V454.162H368.738V451.288C368.738 447.016 365.138 443.409 360.215 442.75C343.252 440.474 345.715 468.659 362.924 473.816C366.397 474.857 366.785 475.293 366.785 478.161C366.785 482.131 370.666 486.981 374.52 487.827C380.596 489.162 387.287 483.627 387.287 477.259C387.287 475.47 387.954 474.712 389.971 474.22C400.93 471.543 405.107 463.372 404.687 445.434C404.196 424.403 399.357 419.216 379.348 418.268L368.658 417.762L368.942 410.824L369.226 403.886L376.626 403.604L384.026 403.322L385.176 407.158C386.583 411.858 389.84 414.137 395.138 414.137C410.732 414.137 406.264 387.682 390.087 384.224C387.938 383.765 387.429 383.014 386.974 379.624C386.814 377.892 386.218 376.229 385.241 374.79C384.264 373.351 382.939 372.183 381.389 371.394C379.839 370.605 378.115 370.222 376.376 370.279C374.638 370.337 372.943 370.834 371.448 371.724" fill="#1E3238"/>
</g>
</g>
<defs>
<clipPath id="clip0_420_13081">
<rect width="590" height="560" fill="white"/>
</clipPath>
</defs>
</svg>
