<svg width="590" height="560" viewBox="0 0 590 560" fill="none" xmlns="http://www.w3.org/2000/svg">
<path d="M317 516C456.728 516 570 402.728 570 263C570 123.272 456.728 10 317 10C177.272 10 64 123.272 64 263C64 402.728 177.272 516 317 516Z" fill="#E5F6FF"/>
<path d="M278.155 59.0764C279.262 59.0293 280.369 58.9822 281.51 58.9336C284.588 59.4371 284.588 59.4371 286.899 61.455C288.762 64.8402 288.831 66.9625 288.676 70.8005C288.641 71.9178 288.607 73.0351 288.571 74.1862C288.526 75.0331 288.482 75.8801 288.436 76.7527C289.539 76.8606 289.539 76.8606 290.664 76.9707C303.086 78.4953 313.594 82.7234 323.863 89.9123C325.956 91.4322 325.956 91.4322 328.839 91.1824C330.846 89.574 332.638 87.8064 334.483 86.0155C336.853 84.2056 338.389 83.7344 341.344 83.4865C345.081 84.6461 347.412 85.5771 349.942 88.597C351.178 91.7231 351.441 93.6165 350.964 96.9542C348.864 100.705 346.411 103.655 343.268 106.574C344.505 109.901 345.968 112.739 347.898 115.712C353.328 124.607 357.897 135.453 357.698 146.015C358.464 145.97 359.231 145.925 360.02 145.879C370.298 145.529 370.298 145.529 375.014 149.863C376.677 153.188 376.447 156.808 375.976 160.444C374.25 163.205 373.106 164.765 370.204 166.216C368.08 166.284 365.955 166.297 363.831 166.276C362.687 166.268 361.544 166.259 360.366 166.25C359.045 166.233 359.045 166.233 357.698 166.216C357.638 167.347 357.579 168.478 357.518 169.643C356.215 180.877 351.644 190.502 345.745 199.957C343.926 202.803 343.926 202.803 344.23 206.619C345.163 207.472 346.095 208.325 347.056 209.204C350.263 212.198 350.922 214.688 351.133 219.012C350.891 221.935 349.962 223.639 348.078 225.859C344.687 228.12 342.841 228.343 338.861 228.297C335.159 227.478 333.075 225.193 330.5 222.522C328.849 220.73 328.849 220.73 325.953 221.049C323.863 222.184 321.847 223.358 319.82 224.596C309.508 230.663 300.407 233.483 288.436 235.478C288.436 245.319 288.436 255.16 288.436 265.3C300.816 265.3 313.197 265.3 325.953 265.3C326.27 263.078 326.588 260.855 326.915 258.566C331.652 247.517 338.84 239.232 349.867 234.231C367.871 227.658 387.17 230.852 404.168 238.724C410.884 241.96 416.564 245.939 422.15 250.87C422.95 251.532 423.75 252.194 424.574 252.877C431.128 258.454 438.643 265.478 441.326 273.886C441.452 279.696 438.699 283.783 434.832 287.931C434.377 288.399 433.922 288.867 433.454 289.349C432.738 290.101 432.738 290.101 432.008 290.869C430.651 292.291 429.287 293.706 427.922 295.121C427.367 295.748 426.811 296.376 426.239 297.022C413.406 311.125 393.122 319.37 374.394 320.437C361.503 320.89 349.56 319.151 339.42 310.513C331.734 303.244 327.452 295.994 325.953 285.501C313.572 285.501 301.191 285.501 288.436 285.501C288.436 295.977 288.436 306.453 288.436 317.246C291.352 317.604 294.269 317.961 297.274 318.329C325.178 322.15 352.176 333.511 375.014 349.954C375.565 350.347 376.117 350.741 376.685 351.147C378.424 352.397 380.148 353.666 381.868 354.944C382.404 355.333 382.94 355.721 383.492 356.122C386.687 358.552 388.427 360.475 389.443 364.383C389.369 368.544 388.911 370.552 386.377 373.883C383.284 376.22 381.766 376.889 377.899 376.889C373.466 375.61 370.644 373.654 367.137 370.696C341.667 349.766 307.756 338.008 274.968 338.049C274.322 338.049 273.675 338.049 273.009 338.049C248.068 337.977 248.068 337.977 225.907 347.068C226.769 347.414 227.63 347.761 228.518 348.117C246.045 355.171 263.542 362.296 280.979 369.568C282.767 370.313 284.555 371.057 286.343 371.799C322.37 386.759 322.37 386.759 329.865 404.302C334.221 416.781 333.213 428.813 328.136 440.905C326.016 445.002 323.147 448.417 320.181 451.923C318.895 453.524 317.612 455.126 316.333 456.733C327.302 459.256 327.302 459.256 338.458 460.581C339.459 460.657 339.459 460.657 340.48 460.735C357.116 461.392 374.371 456.011 390.405 452.224C393.546 451.486 396.687 450.75 399.829 450.018C401.764 449.566 403.699 449.111 405.632 448.653C406.498 448.45 407.363 448.247 408.254 448.039C409.013 447.86 409.772 447.68 410.554 447.496C412.531 447.113 412.531 447.113 415.417 447.113C416.19 439.31 414.619 432.758 412.149 425.43C410.588 420.501 410.429 417.425 412.531 412.482C415.419 409.922 417.382 408.788 421.188 408.153C424.945 408.779 427.389 409.575 429.846 412.482C434.599 421.896 436.969 431.801 436.58 442.303C437.454 442.059 438.329 441.815 439.229 441.563C473.778 432.102 473.778 432.102 490.15 440.56C500.08 446.604 506.961 454.428 510.532 465.571C513.532 478.29 512.014 490.552 505.181 501.705C496.027 514.37 483.574 518.698 468.964 522.328C467.517 522.696 466.07 523.065 464.623 523.435C460.765 524.419 456.904 525.389 453.042 526.357C449.031 527.363 445.024 528.382 441.016 529.4C433.789 531.232 426.559 533.053 419.328 534.869C413.737 536.273 408.148 537.684 402.56 539.1C396.285 540.689 390.009 542.272 383.731 543.852C382.706 544.111 381.68 544.37 380.622 544.637C377.743 545.362 374.862 546.083 371.981 546.802C371.167 547.007 370.354 547.213 369.516 547.425C336.576 555.597 308.714 549.691 277.854 537.539C277.069 537.231 276.285 536.922 275.477 536.605C265.036 532.5 254.606 528.366 244.181 524.222C235.764 520.876 227.339 517.549 218.907 514.241C217.856 513.829 216.805 513.416 215.723 512.991C210.479 510.934 205.232 508.886 199.978 506.855C191.151 503.433 182.375 499.989 173.758 496.065C153.887 487.148 136.016 485.716 114.318 486.554C114.332 487.285 114.346 488.015 114.36 488.768C114.371 489.724 114.382 490.68 114.393 491.665C114.407 492.613 114.421 493.562 114.435 494.539C114.249 498.656 112.713 500.673 109.883 503.485C106.63 505.39 103.56 505.242 99.8943 505.221C98.7369 505.23 98.7368 505.23 97.556 505.24C95.0077 505.258 92.46 505.254 89.9117 505.249C88.1386 505.253 86.3655 505.258 84.5924 505.264C80.8765 505.273 77.1608 505.27 73.445 505.261C68.6854 505.25 63.9265 505.269 59.167 505.297C55.5052 505.315 51.8437 505.315 48.1819 505.309C46.4272 505.309 44.6725 505.315 42.9179 505.327C40.463 505.341 38.0094 505.331 35.5546 505.314C34.8313 505.324 34.1081 505.333 33.3629 505.343C28.6555 505.276 26.2296 504.346 22.9303 500.984C21.5094 498.142 21.819 495.258 21.8138 492.141C21.8089 491.42 21.804 490.699 21.799 489.956C21.7838 487.527 21.7756 485.098 21.7675 482.669C21.7583 480.933 21.7488 479.197 21.739 477.46C21.7088 471.748 21.6893 466.035 21.6715 460.322C21.6683 459.35 21.665 458.379 21.6618 457.379C21.6322 448.224 21.6065 439.07 21.5903 429.916C21.5692 418.196 21.5288 406.476 21.4619 394.756C21.4165 386.521 21.3931 378.286 21.3861 370.05C21.3814 365.129 21.3668 360.208 21.3287 355.286C21.2933 350.657 21.2851 346.028 21.2979 341.399C21.2978 339.699 21.2879 337.999 21.2673 336.299C21.2408 333.979 21.2498 331.662 21.2677 329.341C21.2516 328.668 21.2353 327.995 21.2188 327.301C21.2695 324.679 21.5 322.64 23.169 320.56C27.1405 317.04 30.6336 316.556 35.7368 316.624C36.9087 316.611 36.9087 316.611 38.1043 316.599C40.6738 316.577 43.2416 316.591 45.8111 316.608C47.603 316.604 49.3949 316.6 51.1868 316.594C54.9366 316.587 58.6858 316.597 62.4354 316.619C67.2384 316.647 72.04 316.631 76.8428 316.602C80.5409 316.585 84.2387 316.59 87.9368 316.603C89.7076 316.606 91.4784 316.602 93.2491 316.591C95.7248 316.579 98.1985 316.597 100.674 316.624C101.403 316.614 102.132 316.605 102.884 316.595C106.682 316.67 108.377 317.112 111.383 319.51C114.609 323.673 114.439 327.293 114.378 332.337C114.374 333.013 114.369 333.688 114.365 334.383C114.354 336.046 114.336 337.709 114.318 339.372C124.337 339.425 134.356 339.435 144.375 339.394C149.029 339.377 153.683 339.372 158.337 339.401C162.841 339.429 167.343 339.418 171.847 339.383C173.553 339.376 175.258 339.382 176.964 339.402C189.487 339.538 197.822 337.024 208.592 330.714C211.36 329.417 214.154 328.257 217.009 327.167C217.713 326.896 218.417 326.626 219.142 326.347C234.987 320.466 251.35 317.246 268.234 317.246C268.234 306.77 268.234 296.295 268.234 285.501C255.219 285.819 242.203 286.136 228.793 286.463C227.206 290.59 225.619 294.717 223.983 298.969C221.786 302.203 219.872 304.828 217.249 307.627C216.677 308.239 216.104 308.852 215.513 309.483C205.42 319.241 192.966 320.519 179.661 320.335C158.529 319.678 140.777 309.458 125.862 295.121C124.803 294.12 124.803 294.12 123.724 293.099C121.816 291.252 119.976 289.368 118.166 287.425C117.656 286.884 117.147 286.344 116.621 285.787C113.529 282.079 112.321 278.614 112.593 273.766C116.659 259.406 133.852 247.601 146.026 240.446C151.554 237.37 157.312 235.341 163.379 233.554C164.041 233.331 164.703 233.108 165.385 232.878C178.196 228.962 194.107 229.788 206.277 235.182C216.905 240.962 223.887 250.083 227.831 261.452C227.831 262.722 227.831 263.991 227.831 265.3C241.164 265.3 254.497 265.3 268.234 265.3C267.917 255.459 267.599 245.618 267.272 235.478C264.971 234.943 262.669 234.407 260.298 233.855C249.151 231.116 239.876 227.118 230.717 220.087C227.851 221.368 225.987 222.784 223.803 225.017C221.114 227.371 219.272 228.259 215.686 228.444C212.453 228.196 211.402 227.732 208.592 225.859C206.221 222.303 205.276 219.553 205.706 215.277C207.269 212.271 207.269 212.271 209.554 209.505C209.993 208.964 210.432 208.424 210.884 207.867C212.024 206.472 213.191 205.101 214.364 203.733C214.003 203.22 213.642 202.706 213.27 202.178C206.606 192.475 200.358 181.309 199.81 169.26C199.673 166.389 199.507 164.85 198.01 162.368C193.814 159.384 188.985 157.438 184.219 155.554C182.618 154.672 182.618 154.672 180.694 151.786C179.983 147.368 180.108 144.067 182.498 140.243C185.663 137.264 187.672 137.228 191.983 137.135C194.806 137.422 197.274 138.319 199.934 139.281C200.272 138.165 200.611 137.049 200.96 135.899C203.574 127.542 206.306 120.105 211.075 112.714C212.827 109.821 212.827 109.821 213.402 106.574C212.062 104.692 212.062 104.692 210.155 102.966C207.729 100.35 206.145 98.4631 205.525 94.91C205.742 90.4294 206.466 88.6529 209.554 85.4105C213.096 83.8361 215.338 83.3481 219.173 83.9074C223.126 85.9662 225.826 88.8615 228.793 92.1443C230.237 91.311 230.237 91.311 231.709 90.4609C255.747 76.7527 255.747 76.7527 268.234 76.7527C268.201 76.0558 268.167 75.3589 268.133 74.6409C267.978 69.1256 267.983 65.1674 271.12 60.3991C272.92 58.5995 275.742 59.1462 278.155 59.0764ZM241.299 109.46C240.617 109.984 239.935 110.509 239.232 111.049C230.972 117.775 225.864 126.554 222.059 136.395C221.751 137.191 221.442 137.987 221.124 138.807C216.24 153.662 218.689 170.556 225.607 184.313C228.861 189.831 232.948 194.397 237.451 198.923C238.02 199.526 238.589 200.129 239.176 200.75C243.219 204.694 247.792 207.256 252.782 209.806C253.414 210.131 254.045 210.456 254.695 210.791C267.898 217.233 284.547 217.44 298.368 212.781C314.154 206.808 325.699 195.71 333.145 180.661C339.857 165.51 340.207 150.06 334.513 134.452C327.227 117.648 315.501 106.91 299.017 99.5057C279.321 92.0393 257.544 96.5364 241.299 109.46ZM139.833 270.361C138.073 272.369 137.307 274.334 136.443 276.843C147.727 289.47 162.82 298.917 180.018 300.16C188.329 300.339 195.596 300.031 201.986 294.215C204.566 291.379 206.409 289.163 207.63 285.501C206.225 285.488 206.225 285.488 204.792 285.474C201.304 285.435 197.818 285.372 194.331 285.302C192.824 285.274 191.317 285.254 189.81 285.241C187.639 285.22 185.469 285.175 183.298 285.125C182.294 285.124 182.294 285.124 181.269 285.122C176.68 284.985 174.275 283.979 171.075 280.691C169.745 276.952 170.049 275.133 171.195 271.312C173.278 267.702 173.934 267.391 177.808 266.262C180.063 266.045 182.327 265.921 184.591 265.863C185.542 265.835 185.542 265.835 186.512 265.807C188.52 265.75 190.529 265.705 192.539 265.66C193.907 265.624 195.276 265.586 196.644 265.548C199.985 265.456 203.326 265.375 206.668 265.3C204.389 259.206 200.368 255.678 194.763 252.433C173.878 247.461 155.423 257.106 139.833 270.361ZM352.888 256.642C348.793 260.401 348.793 260.401 347.116 265.3C348.193 265.314 349.271 265.328 350.38 265.342C354.393 265.398 358.405 265.472 362.417 265.552C364.151 265.584 365.884 265.611 367.618 265.633C370.116 265.665 372.613 265.716 375.111 265.769C375.881 265.776 376.651 265.782 377.444 265.788C382.128 265.91 385.361 266.612 389.443 269.148C391.108 271.102 391.395 272.305 391.292 274.852C390.958 277.888 390.409 280.679 389.443 283.577C386.864 284.542 384.361 284.676 381.626 284.737C380.856 284.756 380.086 284.775 379.293 284.795C378.471 284.811 377.649 284.827 376.802 284.844C375.954 284.864 375.105 284.884 374.231 284.904C371.526 284.967 368.82 285.024 366.115 285.08C364.279 285.122 362.443 285.164 360.606 285.206C356.11 285.309 351.613 285.407 347.116 285.501C348.076 290.237 350.668 293.546 354.568 296.312C363.648 301.682 374.74 301.041 384.693 298.488C397.176 294.449 407.517 287.412 416.379 277.805C416.855 276.377 416.855 276.377 417.341 274.919C410.488 264.261 395.632 255.9 383.611 252.433C372.605 250.686 362.031 249.125 352.888 256.642ZM41.2078 337.448C41.2078 386.018 41.2078 434.588 41.2078 484.63C58.6677 484.63 76.1275 484.63 94.1165 484.63C94.1165 436.06 94.1165 387.49 94.1165 337.448C76.6566 337.448 59.1968 337.448 41.2078 337.448ZM114.318 359.573C114.318 394.811 114.318 430.048 114.318 466.353C127.651 466.67 140.984 466.988 154.721 467.315C162.954 469.544 169.877 471.709 177.448 475.191C179.393 476.02 181.341 476.841 183.291 477.656C187.389 479.375 191.472 481.124 195.547 482.896C205.349 487.125 215.32 490.931 225.272 494.792C230.916 496.986 236.551 499.205 242.186 501.424C243.855 502.08 243.855 502.08 245.559 502.75C252.421 505.45 259.279 508.16 266.135 510.877C270.616 512.652 275.099 514.422 279.582 516.191C281.685 517.023 283.788 517.857 285.889 518.694C306.436 527.012 306.436 527.012 328.117 531.166C328.875 531.256 329.633 531.347 330.413 531.44C347.939 533.108 365.164 527.821 381.941 523.496C385.288 522.635 388.639 521.786 391.989 520.934C396.88 519.69 401.769 518.441 406.657 517.186C414.486 515.176 422.322 513.196 430.162 511.234C434.976 510.028 439.788 508.813 444.598 507.594C447.873 506.764 451.148 505.939 454.426 505.123C458.071 504.216 461.71 503.287 465.349 502.355C466.419 502.092 467.488 501.829 468.59 501.558C476.662 499.465 483.851 496.714 488.527 489.44C491.498 484.028 492.365 479.232 491.413 473.087C489.144 465.954 485.399 461.364 478.907 457.695C471.498 454.369 464.467 455.99 456.886 457.772C455.488 458.091 455.488 458.091 454.063 458.416C450.994 459.118 447.928 459.831 444.862 460.543C442.719 461.035 440.575 461.527 438.432 462.018C432.792 463.311 427.154 464.612 421.516 465.915C412.508 467.997 403.497 470.066 394.485 472.134C391.35 472.855 388.216 473.58 385.081 474.305C383.139 474.752 381.197 475.2 379.255 475.647C378.395 475.847 377.535 476.047 376.649 476.253C347.766 482.885 322.698 481.048 294.982 470.719C293.849 470.298 292.716 469.877 291.549 469.444C279.803 465.064 268.101 460.57 256.41 456.046C252.881 454.681 249.351 453.319 245.821 451.957C240.211 449.791 234.606 447.613 229.002 445.429C226.03 444.275 223.053 443.135 220.075 441.996C218.33 441.32 216.585 440.643 214.841 439.966C214.059 439.671 213.277 439.377 212.472 439.073C208.495 437.514 205.532 436.142 202.82 432.684C202.114 429.738 202.263 426.997 202.82 424.026C204.625 421.619 205.936 420.544 208.592 419.216C215.487 418.359 221.189 421.156 227.504 423.676C229.301 424.377 231.099 425.078 232.896 425.778C235.407 426.761 237.914 427.754 240.421 428.746C244.166 430.226 247.916 431.692 251.667 433.159C254.594 434.304 257.521 435.452 260.445 436.608C266.08 438.827 271.73 440.996 277.42 443.069C278.498 443.463 279.576 443.857 280.687 444.264C287.478 446.403 292.641 445.653 298.954 442.48C306.237 438.308 309.948 432.682 312.136 424.668C313.246 417.854 311.059 412.574 308.096 406.53C300.792 398.102 288.354 394.624 278.275 390.537C276.539 389.827 274.804 389.115 273.069 388.403C269.451 386.919 265.831 385.439 262.211 383.96C256.744 381.725 251.288 379.465 245.834 377.197C244.955 376.831 244.075 376.466 243.169 376.089C240.581 375.013 237.994 373.937 235.407 372.861C232.238 371.543 229.069 370.226 225.9 368.911C225.237 368.635 224.574 368.359 223.89 368.075C222.504 367.5 221.113 366.936 219.718 366.381C217.862 365.602 216.036 364.748 214.229 363.859C203.487 358.899 193.745 358.817 182.051 359.01C180.308 359.018 178.566 359.024 176.823 359.027C170.437 359.057 164.052 359.138 157.667 359.213C136.209 359.391 136.209 359.391 114.318 359.573Z" fill="#1E3238"/>
<path d="M282.667 101.765C285.493 103.208 285.493 103.208 287.477 105.613C287.955 107.48 287.954 107.48 288.318 109.521C288.651 111.543 288.651 111.543 289.4 113.308C292.538 115.031 292.538 115.031 296.134 116.194C300.408 119.235 303.12 121.76 304.792 126.776C305.398 131.854 305.665 135.904 302.989 140.364C299.849 143.135 297.563 143.514 293.351 143.468C289.693 142.857 288.053 141.003 285.552 138.32C285.076 136.415 285.076 136.415 284.59 134.472C280.463 134.154 276.338 133.837 272.086 133.51C272.086 137.637 272.086 141.764 272.086 146.016C273.408 145.982 274.728 145.949 276.09 145.914C277.841 145.887 279.593 145.861 281.344 145.835C282.648 145.799 282.648 145.799 283.978 145.762C290.19 145.694 294.383 146.377 299.099 150.765C299.648 151.42 300.199 152.075 300.765 152.749C301.326 153.404 301.887 154.059 302.466 154.734C306.027 159.6 305.046 165.932 305.093 171.688C305.121 172.804 305.148 173.919 305.177 175.068C305.225 181.582 304.97 186.864 300.944 192.191C298.81 194.205 298.811 194.205 296.616 195.557C295.892 196.024 295.168 196.49 294.422 196.97C292.287 197.962 292.287 197.962 288.439 197.962C288.519 198.974 288.598 199.986 288.68 201.029C288.403 205.253 287.582 206.6 284.59 209.506C281.076 210.677 278.668 210.844 274.972 210.468C271.825 208.603 269.652 207.267 268.629 203.625C268.358 201.51 268.357 201.51 268.237 197.962C267.423 197.923 266.611 197.883 265.773 197.842C260.219 196.428 256.84 193.076 253.927 188.222C252.114 183.589 251.45 179.916 251.884 174.875C253.439 171.931 254.843 169.833 257.416 167.72C260.835 166.865 263.894 167.197 267.275 168.141C270.629 170.378 271.046 171.604 271.844 175.596C271.924 176.628 272.004 177.66 272.086 178.723C276.213 178.723 280.338 178.723 284.59 178.723C284.59 174.279 284.59 169.834 284.59 165.255C282.658 165.356 282.659 165.356 280.687 165.458C263.912 166.075 263.912 166.075 258.197 161.201C252.319 154.484 251.694 148.094 251.644 139.522C251.624 138.686 251.604 137.851 251.584 136.99C251.545 130.491 252.256 124.985 256.566 119.809C257.204 119.291 257.841 118.773 258.498 118.239C259.174 117.684 259.849 117.13 260.546 116.559C262.466 115.232 262.466 115.232 265.171 114.331C267.387 113.525 267.387 113.525 268.072 111.629C268.545 110.26 269.009 108.888 269.467 107.514C271.805 101.118 276.604 100.725 282.667 101.765Z" fill="#1E3238"/>
<path d="M407.722 380.737C410.373 382.835 411.989 384.461 413.494 387.471C413.989 391.759 413.787 393.725 411.51 397.451C408.148 400.456 406.42 400.938 401.95 400.938C398.728 400.189 397.324 399.188 394.916 396.91C392.82 393.417 392.728 391.49 393.293 387.471C396.957 380.874 400.387 379.571 407.722 380.737Z" fill="#1E3238"/>
</svg>
