<svg width="142" height="139" viewBox="0 0 142 139" fill="none" xmlns="http://www.w3.org/2000/svg">
<g clip-path="url(#clip0_72_281)">
<path d="M1.45285 58.5866L-0.300998 55.415C0.771636 54.8223 1.8762 54.2549 3.00928 53.7105L4.57607 56.9788C3.50648 57.4916 2.46521 58.0294 1.45285 58.5866Z" fill="#D81E5B"/>
<path d="M129.7 87.8055C128.015 86.2448 126.295 84.7112 124.582 83.2514L126.937 80.4958C128.686 81.9886 130.445 83.5554 132.166 85.1492L129.7 87.8055ZM119.283 78.9112C117.484 77.5004 115.642 76.1178 113.806 74.8035L115.917 71.8578C117.793 73.202 119.679 74.6148 121.519 76.0608L119.283 78.9112ZM108.159 70.9436C106.245 69.6992 104.286 68.4883 102.341 67.3481L104.172 64.2214C106.169 65.3908 108.174 66.6322 110.134 67.907L108.159 70.9436ZM96.3614 64.0286C94.3387 62.9694 92.2768 61.9534 90.2292 61.0081L91.7515 57.7174C93.851 58.6882 95.9683 59.732 98.0429 60.8168L96.3614 64.0286ZM10.7936 54.3796L9.56234 50.9722C11.7362 50.1853 14.0127 49.4785 16.328 48.8689L17.2502 52.3727C15.0396 52.9571 12.8668 53.6312 10.7936 54.3796ZM83.9561 58.3006C81.8383 57.45 79.6859 56.6503 77.5551 55.9221L78.7277 52.4938C80.9164 53.2428 83.1303 54.0636 85.3075 54.9388L83.9561 58.3006ZM23.8695 50.9243L23.2348 47.3563C25.5174 46.9509 27.8717 46.626 30.2293 46.3889L30.5921 49.9953C28.3248 50.222 26.063 50.5349 23.8695 50.9243ZM71.039 53.8884C68.8508 53.2707 66.6238 52.7091 64.422 52.2193L65.2089 48.6826C67.4766 49.1866 69.7693 49.7644 72.023 50.4L71.039 53.8884ZM37.3754 49.5557L37.2675 45.9345C39.5853 45.8663 41.955 45.8746 44.3127 45.9619L44.1801 49.583C41.9004 49.4986 39.6127 49.4898 37.3754 49.5557ZM57.726 50.9336C55.7108 50.6077 53.6664 50.3333 51.6539 50.1189L50.9727 50.0481L51.3279 46.4416L52.0433 46.5161C54.1135 46.7367 56.2225 47.0197 58.304 47.3563L57.726 50.9336Z" fill="#D81E5B"/>
<path d="M137.182 95.1618C136.348 94.2911 135.51 93.4347 134.668 92.5925L137.233 90.0306C138.091 90.8909 138.945 91.7655 139.8 92.6547L137.182 95.1618Z" fill="#D81E5B"/>
<path d="M141.143 97.1185L120.92 94.0195L121.578 89.7219L135.851 91.9099L133.554 78.3105L137.841 77.5847L141.143 97.1185Z" fill="#D81E5B"/>
</g>
<defs>
<clipPath id="clip0_72_281">
<rect width="142" height="139" fill="white"/>
</clipPath>
</defs>
</svg>
