<svg width="80" height="80" viewBox="0 0 80 80" fill="none" xmlns="http://www.w3.org/2000/svg">
<path d="M72.7363 39.9908H66.593C65.9498 26.0643 54.7246 14.8389 40.798 14.1959V8.05255C40.798 7.34504 40.2192 6.76619 39.5113 6.76619C38.8038 6.76619 38.225 7.34504 38.225 8.05255V14.1959C36.3917 14.2923 34.6224 14.5496 32.8857 14.9677C32.8857 14.8711 32.8535 14.7747 32.8214 14.6781C32.4354 13.8418 32.0173 13.1343 31.5671 12.5232L32.6284 11.2046C33.3683 10.3039 33.2395 8.98531 32.339 8.21316L30.763 6.95888C30.3127 6.57288 29.766 6.38003 29.219 6.41197C28.6402 6.44421 28.0934 6.73379 27.7397 7.18413L26.646 8.50273C26.0027 8.21316 25.3274 7.98822 24.6197 7.79507V6.1551C24.6197 4.965 23.6871 4 22.4648 4L20.374 4.03224C19.2162 4.03224 18.2836 4.99709 18.2836 6.21928V7.8597C17.6402 8.0527 16.9969 8.2778 16.2894 8.63155L15.1635 7.34519C14.3916 6.50885 13.105 6.41228 12.1723 7.15219L10.6285 8.50304C10.1782 8.88904 9.92082 9.40356 9.85664 9.98256C9.8244 10.5614 10.0174 11.1082 10.3712 11.4942L11.4648 12.7808C11.0788 13.3919 10.7249 14.003 10.4356 14.6784L8.76313 14.389C8.21637 14.2924 7.60528 14.4532 7.1227 14.8071C6.67237 15.1609 6.38294 15.6431 6.31861 16.158L5.99709 18.2484C5.90052 18.8276 6.06143 19.4064 6.38309 19.8566C6.73685 20.2747 7.21943 20.5643 7.73394 20.6607L9.40646 20.918C9.4708 21.5614 9.59946 22.2689 9.82455 23.0409L8.37713 23.9092C7.41228 24.4561 7.05852 25.7103 7.66961 26.8361L8.69864 28.5407C9.24555 29.5378 10.4998 29.9236 11.6578 29.3448L13.073 28.4765C13.6519 28.991 14.1665 29.4091 14.7454 29.8274L14.1665 31.4356C14.1343 31.4999 14.1343 31.5963 14.1343 31.6608C13.1372 34.2661 12.5261 37.0642 12.3976 39.991H6.28636C5.57885 39.991 5 40.5698 5 41.2777C5 41.9852 5.57885 42.5643 6.28636 42.5643H12.3974C13.0408 56.4909 24.2979 67.716 38.2248 68.3593V74.5026C38.2248 75.2102 38.8037 75.789 39.5112 75.789C40.2188 75.789 40.7978 75.2102 40.7978 74.5026V68.3593C54.7244 67.716 65.9498 56.4909 66.5928 42.5643H72.7361C73.4437 42.5643 74.0225 41.9852 74.0225 41.2777C74.0227 40.5698 73.4438 39.9908 72.7363 39.9908ZM64.0199 39.9908H55.2394C54.6283 32.304 48.4529 26.1605 40.798 25.5494V16.7689C53.2775 17.4122 63.3766 27.4794 64.0199 39.9908ZM48.0026 42.5642H52.6664C52.0553 48.8359 47.0377 53.8215 40.798 54.4323V49.7365C40.798 49.0289 40.2192 48.4499 39.5113 48.4499C38.8038 48.4499 38.225 49.0287 38.225 49.7365V54.4323C31.953 53.8213 26.9356 48.8359 26.3245 42.5642H31.0202C31.7279 42.5642 32.3069 41.985 32.3069 41.2775C32.3069 40.5698 31.728 39.9908 31.0202 39.9908H26.3245C26.9356 33.7192 31.9531 28.7336 38.225 28.1225V32.1429V32.7863C38.225 33.4939 38.8038 34.0729 39.5113 34.0729C40.219 34.0729 40.798 33.4941 40.798 32.7863V32.1429V28.1225C47.0377 28.7336 52.0553 33.719 52.6664 39.9908H48.0026C47.2628 39.9908 46.7159 40.5697 46.7159 41.2775C46.7159 41.985 47.2628 42.5642 48.0026 42.5642ZM24.6841 18.5701C24.2981 17.3157 23.2045 16.3831 21.8858 16.2221C20.0203 15.9969 18.2834 17.3157 18.0261 19.1812C17.8653 20.6286 18.6049 22.0115 19.8273 22.6549C19.2162 23.266 18.6694 23.9412 18.1227 24.6168C16.2894 23.3946 15.1957 21.1431 15.4853 18.8274C15.9355 15.5788 18.9588 13.263 22.2395 13.6812C24.3622 13.9385 26.1313 15.3537 26.9354 17.2513C26.1636 17.6694 25.4237 18.0875 24.6841 18.5701ZM16.4824 32.7542C17.5437 29.8274 19.1841 27.19 21.2104 24.9062C22.8185 23.1373 24.6841 21.5935 26.7103 20.339C30.0875 18.2805 34.0114 16.9941 38.225 16.7689V25.5494C30.5378 26.1605 24.3622 32.3038 23.7515 39.9908H14.9706C15.0993 37.4501 15.6138 35.0055 16.4824 32.7542ZM14.9706 42.5642H23.7515C24.3624 50.251 30.538 56.3945 38.225 57.0056V65.7861C25.7132 65.1428 15.6138 55.0756 14.9706 42.5642ZM40.798 65.7861V57.0056C48.4529 56.3945 54.6283 50.2512 55.2394 42.5642H64.0199C63.3766 55.0756 53.2775 65.1428 40.798 65.7861Z" fill="#03217B"/>
<path d="M39.5116 35.7451C36.4559 35.7451 33.9795 38.2217 33.9795 41.2773C33.9795 44.3007 36.4559 46.7773 39.5116 46.7773C42.5349 46.7773 45.0115 44.3007 45.0115 41.2773C45.0115 38.2217 42.5349 35.7451 39.5116 35.7451Z" fill="#03217B"/>
</svg>
