<svg width="80" height="80" viewBox="0 0 80 80" fill="none" xmlns="http://www.w3.org/2000/svg">
<path d="M54.25 48H44.25V50.5H54.25V48Z" fill="#03217B"/>
<path d="M36.8113 29.2452C36.3876 33.5877 38.1926 37.5227 41.2126 40.0602C42.3426 41.0102 43.0001 42.4052 43.0001 43.8814V46.7502H48.0001V41.1002L43.0513 37.1402C42.2238 36.4814 41.7501 35.4952 41.7501 34.4352V33.9639C41.7501 32.0539 43.3038 30.5002 45.2138 30.5002H45.5638C46.7251 30.5002 47.8026 31.0764 48.4463 32.0427C48.7051 32.4302 49.0938 32.4714 49.2488 32.4714C49.4038 32.4714 49.7938 32.4302 50.0513 32.0427C50.6963 31.0764 51.7738 30.5002 52.9351 30.5002H53.2851C55.1963 30.5002 56.7501 32.0539 56.7501 33.9639V34.5827C56.7501 35.5077 56.3888 36.3789 55.7351 37.0327L52.6338 40.1339L50.8663 38.3664L53.9676 35.2652C54.1501 35.0827 54.2501 34.8402 54.2501 34.5827V33.9639C54.2501 33.4327 53.8176 33.0002 53.2863 33.0002H52.9363C52.6126 33.0002 52.3126 33.1602 52.1338 33.4302C51.4901 34.3964 50.4126 34.9727 49.2513 34.9727C48.0901 34.9727 47.0126 34.3964 46.3688 33.4302C46.1876 33.1602 45.8888 33.0002 45.5651 33.0002H45.2151C44.6826 33.0002 44.2501 33.4327 44.2501 33.9639V34.4352C44.2501 34.7302 44.3813 35.0039 44.6113 35.1877L50.0301 39.5239C50.3276 39.7614 50.5001 40.1202 50.5001 40.5002V46.7502H55.5001V43.8814C55.5001 42.4202 56.1313 41.0239 57.2538 40.0889C60.0001 37.7977 61.7501 34.3564 61.7501 30.5002C61.7501 23.1264 55.3663 17.2452 47.8238 18.0789C42.0463 18.7189 37.3763 23.4589 36.8113 29.2452Z" fill="#03217B"/>
<path d="M50.795 6.29125L49.25 3L47.705 6.29125L44.25 6.82L46.75 9.3825L46.16 13L49.25 11.2913L52.34 13L51.75 9.3825L54.25 6.82L50.795 6.29125Z" fill="#03217B"/>
<path d="M71.75 15.5L70.205 18.7913L66.75 19.32L69.25 21.8825L68.66 25.5L71.75 23.7912L74.84 25.5L74.25 21.8825L76.75 19.32L73.295 18.7913L71.75 15.5Z" fill="#03217B"/>
<path d="M28.295 18.7913L26.75 15.5L25.205 18.7913L21.75 19.32L24.25 21.8825L23.66 25.5L26.75 23.7912L29.84 25.5L29.25 21.8825L31.75 19.32L28.295 18.7913Z" fill="#03217B"/>
<path d="M3 66.75V78H20.5V66.75H34.25C34.94 66.75 35.5 66.19 35.5 65.5H41.75C46.575 65.5 50.5 61.575 50.5 56.75V55.27C51.9537 54.7538 53 53.38 53 51.75H45.5C45.5 53.38 46.5463 54.7538 48 55.27V56.75C48 60.1962 45.1962 63 41.75 63H35.5C35.5 62.31 34.94 61.75 34.25 61.75H13H8C5.23875 61.75 3 63.9887 3 66.75Z" fill="#03217B"/>
<path d="M13 61.75C16.4518 61.75 19.25 58.9518 19.25 55.5C19.25 52.0482 16.4518 49.25 13 49.25C9.54822 49.25 6.75 52.0482 6.75 55.5C6.75 58.9518 9.54822 61.75 13 61.75Z" fill="#03217B"/>
<path d="M63 10.5C63.6904 10.5 64.25 9.94036 64.25 9.25C64.25 8.55964 63.6904 8 63 8C62.3096 8 61.75 8.55964 61.75 9.25C61.75 9.94036 62.3096 10.5 63 10.5Z" fill="#03217B"/>
<path d="M35.5 10.5C36.1904 10.5 36.75 9.94036 36.75 9.25C36.75 8.55964 36.1904 8 35.5 8C34.8096 8 34.25 8.55964 34.25 9.25C34.25 9.94036 34.8096 10.5 35.5 10.5Z" fill="#03217B"/>
<path d="M71.75 35.5C72.4404 35.5 73 34.9404 73 34.25C73 33.5596 72.4404 33 71.75 33C71.0596 33 70.5 33.5596 70.5 34.25C70.5 34.9404 71.0596 35.5 71.75 35.5Z" fill="#03217B"/>
<path d="M26.75 35.5C27.4404 35.5 28 34.9404 28 34.25C28 33.5596 27.4404 33 26.75 33C26.0596 33 25.5 33.5596 25.5 34.25C25.5 34.9404 26.0596 35.5 26.75 35.5Z" fill="#03217B"/>
<path d="M34.25 50.5C34.9404 50.5 35.5 49.9404 35.5 49.25C35.5 48.5596 34.9404 48 34.25 48C33.5596 48 33 48.5596 33 49.25C33 49.9404 33.5596 50.5 34.25 50.5Z" fill="#03217B"/>
<path d="M64.25 50.5C64.9404 50.5 65.5 49.9404 65.5 49.25C65.5 48.5596 64.9404 48 64.25 48C63.5596 48 63 48.5596 63 49.25C63 49.9404 63.5596 50.5 64.25 50.5Z" fill="#03217B"/>
</svg>
