<svg width="80" height="80" viewBox="0 0 80 80" fill="none" xmlns="http://www.w3.org/2000/svg">
<path d="M48.2912 23.1685C48.2912 31.2349 41.8483 41.0951 34.3319 41.0951C26.8156 41.0951 20.373 31.2349 20.373 23.1685C20.373 15.3509 26.6455 9 34.3319 9C42.0318 9.00001 48.2912 15.3509 48.2912 23.1685Z" fill="#03217B"/>
<path d="M60.734 38.3276C60.0549 38.0788 59.7058 37.3269 59.9539 36.6479L61.5984 32.1568C61.8478 31.4771 62.6023 31.1306 63.2787 31.3774C63.9578 31.6261 64.3069 32.378 64.0588 33.057L62.4143 37.5481C62.167 38.2233 61.4175 38.578 60.734 38.3276Z" fill="#03217B"/>
<path d="M64.4051 41.8769C64.1008 41.2209 64.3859 40.4422 65.0419 40.1378L69.3936 38.116C70.0509 37.8098 70.8272 38.0962 71.1328 38.7516C71.4371 39.4076 71.152 40.1864 70.496 40.4907L66.1443 42.5125C65.5007 42.8135 64.7149 42.542 64.4051 41.8769Z" fill="#03217B"/>
<path d="M70.0742 50.2734L65.5639 48.6411C64.8836 48.3949 64.5319 47.6442 64.7774 46.9639C65.0242 46.2836 65.7749 45.9345 66.4539 46.1781L70.9642 47.8105C71.6445 48.0566 71.9962 48.8073 71.7507 49.4876C71.506 50.1625 70.7603 50.521 70.0742 50.2734Z" fill="#03217B"/>
<path d="M51.6278 36.8516L60.1834 55.1335L41.5312 57.5981L41.4275 57.3765C41.4225 57.3662 41.4133 57.3605 41.4083 57.3502L37.7381 49.5076C40.432 47.0529 48.8007 39.4275 51.6278 36.8516ZM38.721 58.476L34.505 60.4348C32.505 61.3651 29.9834 60.4333 29.0595 58.4625C28.1122 56.4379 28.9743 54.0091 31.0395 53.0475L35.2626 51.0859L35.5082 51.6108L38.721 58.476ZM9 64.6863C9.04265 64.1497 9.1066 63.6025 9.19189 63.0453C10.6517 53.1214 19.3766 45.6382 29.4845 45.6382H37.6617L35.1454 47.931L29.8128 50.4079C26.2888 52.046 24.7896 56.208 26.4241 59.697C27.5712 62.1469 30.0644 63.7297 32.7765 63.7297C32.8178 63.7297 32.8569 63.7173 32.8977 63.7165L33.3515 64.6863L9 64.6863ZM42.5362 70.1248L41.0664 70.8078C40.3273 71.1496 39.4388 70.8305 39.092 70.0892L35.7971 63.0442L39.9598 61.11C40.0638 61.3322 43.4039 68.4692 43.2597 68.161C43.6094 68.9082 43.2754 69.7813 42.5362 70.1248ZM59.2595 63.0374C59.3405 63.6138 59.4016 64.1611 59.44 64.6863H44.8474L42.8251 60.3633L57.9582 58.3637C58.5729 59.8623 59.0164 61.4298 59.2595 63.0374ZM60.3298 48.5796L56.7634 40.9592C58.6134 40.7691 60.4627 41.7266 61.2922 43.4954C62.062 45.1413 61.8032 47.1675 60.3298 48.5796Z" fill="#03217B"/>
</svg>
