<svg width="80" height="80" viewBox="0 0 80 80" fill="none" xmlns="http://www.w3.org/2000/svg">
<path fill-rule="evenodd" clip-rule="evenodd" d="M35.3145 12.123C35.3145 14.9464 37.6247 17.243 40.4743 17.2459C43.3152 17.2459 45.6342 14.9464 45.6342 12.123C45.6342 9.29948 43.3181 7 40.4743 7C37.6247 7 35.3145 9.29948 35.3145 12.123ZM23.8307 41.3033H57.118V44.8341C57.118 45.5152 57.6721 46.0682 58.3581 46.0682C59.05 46.0682 59.6041 45.5151 59.6041 44.8341V40.0691C59.6041 39.388 59.05 38.835 58.3581 38.835L41.7204 38.8321V35.4149C41.7204 34.7338 41.1605 34.1808 40.4744 34.1808C39.7884 34.1808 39.2284 34.7338 39.2284 35.4149V38.8321H22.5847C21.8987 38.8321 21.3446 39.3852 21.3446 40.0662V44.8311C21.3446 45.5123 21.8987 46.0653 22.5847 46.0653C23.2766 46.0653 23.8308 45.5122 23.8308 44.8311L23.8307 41.3033ZM58.3548 50.8823C51.9343 50.8823 46.7187 56.0663 46.7187 62.4411C46.7187 68.8157 51.9372 74 58.3548 74C64.7754 74 70 68.8159 70 62.4411C70 56.0694 64.7757 50.8823 58.3548 50.8823ZM57.1177 61.2042V56.1249C57.1177 55.4438 57.6718 54.8908 58.3578 54.8908C59.0497 54.8908 59.6038 55.4438 59.6038 56.1249V62.4413C59.6038 63.1253 59.0438 63.6754 58.3578 63.6754L52.4855 63.6696C51.7995 63.6696 51.2454 63.1165 51.2454 62.4325C51.2454 61.7514 51.7966 61.1984 52.4914 61.1984L57.1177 61.2042ZM30.0898 51.6684C29.1487 50.9349 28.1079 50.3382 26.9997 49.8987C26.7798 49.8142 26.5541 49.8928 26.4397 50.0908C24.6426 53.1733 20.1687 53.1762 18.3716 50.0908C18.2543 49.8928 18.0227 49.8142 17.8116 49.8987C16.6976 50.3382 15.6539 50.932 14.7216 51.6655C14.5398 51.8052 14.4958 52.0439 14.6131 52.2418C16.3927 55.2865 14.188 59.1811 10.5761 59.1811C10.3416 59.1811 10.1598 59.3383 10.1246 59.5653C9.9575 60.7384 9.9575 61.9289 10.1305 63.1077C10.1598 63.3348 10.3416 63.4919 10.5761 63.4919C10.5761 63.4599 13.2234 63.4163 14.6131 65.8031C15.4428 67.2294 15.4428 69.005 14.6131 70.4312C14.4958 70.6291 14.5398 70.8678 14.7216 71.0075C15.6627 71.7411 16.7034 72.3378 17.8116 72.7773C18.0227 72.8617 18.2573 72.7831 18.3716 72.5852C20.1717 69.494 24.6397 69.5085 26.4397 72.5852C26.557 72.7831 26.7828 72.8617 26.9997 72.7773C28.1079 72.3378 29.1487 71.744 30.0898 71.0105C30.2715 70.8707 30.3155 70.6321 30.1982 70.4341C29.3685 69.0049 29.3598 67.2323 30.1924 65.8031C31.0221 64.3768 32.5671 63.4919 34.2294 63.4919H34.2352C34.4698 63.4919 34.6515 63.3348 34.6809 63.1077C34.8568 61.9347 34.8568 60.7442 34.6809 59.5653C34.6457 59.3383 34.461 59.1811 34.2294 59.1811C30.638 59.1811 28.404 55.3098 30.1982 52.2418C30.3155 52.0468 30.2715 51.811 30.0898 51.6684ZM25.3462 56.2762C28.1578 57.8887 29.1282 61.4719 27.504 64.2635C25.8681 67.0811 22.2444 68.0009 19.4591 66.4029C16.6476 64.7903 15.6831 61.2072 17.3013 58.4156C18.9255 55.6241 22.5316 54.6636 25.3462 56.2762ZM40.4738 19.7143C34.3464 19.7143 29.2947 24.3453 28.668 30.2627H52.2773C51.6529 24.3452 46.5956 19.7173 40.4738 19.7143Z" fill="#03217B"/>
</svg>
