<svg width="296" height="296" viewBox="0 0 296 296" fill="none" xmlns="http://www.w3.org/2000/svg">
<g clip-path="url(#clip0_68_25)">
<path d="M179.024 60C200.317 60 219.628 68.6647 233.627 82.5999C247.604 96.5772 256.226 115.846 256.226 137.181C256.226 152.761 251.588 167.307 243.662 179.429L277.076 215.838L254.034 236.899L221.778 201.46C209.551 209.619 194.815 214.362 179.024 214.362C161.442 214.362 145.209 208.459 132.222 198.551C124.127 206.71 116.39 214.468 109.875 220.982L65.1182 176.773L33.6639 207.321L18 191.657L65.3923 145.593C80.1918 160.392 94.8227 175.023 109.77 189.781L116.706 182.781C107.345 170.006 101.843 154.279 101.843 137.202C101.843 115.909 110.508 96.5983 124.443 82.621C138.42 68.6014 157.689 60 179.024 60ZM128.554 170.828L159.397 139.69L141.034 121.327L192.685 120.864V172.978L175.04 155.333C166.185 164.293 155.033 175.571 143.775 186.935C153.747 194.208 166.059 198.53 179.34 198.53C196.016 198.53 211.153 191.741 222.074 180.8C233.015 169.858 239.804 154.742 239.804 138.067C239.804 121.391 233.015 106.254 222.074 95.3334C211.132 84.3919 196.016 77.6035 179.34 77.6035C162.665 77.6035 147.528 84.3919 136.607 95.3334C125.666 106.275 118.877 121.391 118.877 138.067C118.877 150.125 122.44 161.383 128.554 170.828Z" fill="#022279"/>
</g>
<defs>
<clipPath id="clip0_68_25">
<rect width="259.055" height="176.92" fill="white" transform="translate(18 60)"/>
</clipPath>
</defs>
</svg>
