<svg width="296" height="296" viewBox="0 0 296 296" fill="none" xmlns="http://www.w3.org/2000/svg">
<path fill-rule="evenodd" clip-rule="evenodd" d="M52.5269 101.427C51.4365 105.138 48.0052 107.86 43.9435 107.86C39.0016 107.86 35 103.848 35 98.916C35 93.9741 39.0115 89.9725 43.9435 89.9725C48.005 89.9725 51.4465 92.6836 52.5269 96.405H74.8355C76.2261 96.405 77.3565 97.5354 77.3565 98.926V143.933H88.5609L88.5709 73.4748H68.7831C67.6927 77.1862 64.2614 79.9073 60.1897 79.9073C55.2477 79.9073 51.2462 75.8957 51.2462 70.9538C51.2462 66.0118 55.2577 62.0102 60.1897 62.0102C64.2611 62.0102 67.6926 64.7213 68.7831 68.4427H91.0917C92.4822 68.4427 93.6127 69.5731 93.6127 70.9637V143.921H108.649C108.649 165.87 126.435 183.658 148.385 183.658C170.333 183.658 188.121 165.871 188.121 143.921H203.157L203.147 70.9534C203.147 69.5629 204.278 68.4325 205.668 68.4325H227.977C229.067 64.7211 232.498 62 236.57 62C241.512 62 245.524 66.0115 245.524 70.9435C245.524 75.8855 241.512 79.897 236.57 79.897C232.499 79.897 229.067 77.1859 227.977 73.4646H208.189V143.902H219.393V98.9055C219.393 97.5149 220.524 96.3845 221.914 96.3845H244.223C245.313 92.6731 248.745 89.9521 252.816 89.9521C257.758 89.9521 261.76 93.9636 261.76 98.8956C261.76 103.838 257.748 107.839 252.816 107.839C248.745 107.839 245.313 105.128 244.223 101.407H224.435V143.894H239.471V157.829L203.717 161.66C202.737 164.712 201.516 167.653 200.065 170.454L222.644 198.446L202.937 218.153L174.945 195.574C172.134 197.025 169.203 198.246 166.151 199.226L162.32 234.98L134.438 235L130.607 199.246C127.556 198.266 124.625 197.045 121.813 195.594L93.8218 218.183L74.1141 198.476L96.6929 170.484C95.2423 167.673 94.0218 164.742 93.0414 161.69L57.2874 157.859V143.924H72.3232V101.426L52.5269 101.427ZM115.22 132.641V110.642L119.902 115.324C120.882 116.304 122.483 116.304 123.463 115.324C124.444 114.343 124.444 112.743 123.463 111.763L114.24 102.539H114.2L114.159 102.509L114.149 102.499L114.109 102.469L114.009 102.409L113.949 102.369H113.939L113.889 102.349L113.829 102.319L113.799 102.309H113.789L113.769 102.299L113.739 102.289C113.419 102.139 113.059 102.059 112.679 102.059C112.259 102.059 111.859 102.159 111.508 102.349H111.498L111.438 102.369L111.318 102.449L111.298 102.469L111.268 102.489L111.248 102.509L111.218 102.529L111.198 102.539L111.188 102.549L111.158 102.569L111.148 102.579L111.128 102.589L110.988 102.729C110.948 102.759 110.918 102.799 110.878 102.829L101.915 111.792C100.934 112.773 100.934 114.373 101.915 115.354C102.895 116.334 104.496 116.334 105.476 115.354L110.158 110.672V132.67C110.158 134.061 111.288 135.191 112.679 135.191C114.089 135.161 115.22 134.031 115.22 132.641ZM186.567 132.641V110.642L191.249 115.324C192.229 116.304 193.83 116.304 194.81 115.324C195.79 114.343 195.79 112.743 194.81 111.763L185.586 102.539H185.576L185.536 102.509L185.526 102.499L185.486 102.469L185.386 102.409L185.326 102.369H185.316L185.236 102.329L185.226 102.319L185.196 102.309H185.186L185.166 102.299L185.136 102.289C184.816 102.139 184.456 102.059 184.076 102.059C183.656 102.059 183.255 102.159 182.905 102.349H182.895L182.835 102.369L182.715 102.449L182.695 102.469L182.665 102.489L182.645 102.509L182.615 102.529L182.595 102.539L182.585 102.549L182.555 102.569L182.545 102.579L182.525 102.589L182.385 102.729C182.345 102.759 182.315 102.799 182.275 102.829L173.312 111.792C172.331 112.773 172.331 114.373 173.312 115.354C174.292 116.334 175.893 116.334 176.873 115.354L181.555 110.672V132.67C181.555 134.061 182.685 135.191 184.076 135.191C185.436 135.161 186.567 134.031 186.567 132.641ZM162.457 94.7557H174.612L161.487 81.7105L148.372 68.6653L122.122 94.7567H134.277V132.652H162.447L162.457 94.7557Z" fill="#022279"/>
</svg>
