<svg width="296" height="296" viewBox="0 0 296 296" fill="none" xmlns="http://www.w3.org/2000/svg">
<path d="M262.459 123.594C262.451 134.615 260.078 145.506 255.499 155.531C247.17 142.554 227.564 134.097 202.895 134.097C169.894 134.097 145.942 149.225 145.942 170.067V201.019H80.28C72.6654 200.522 65.262 198.308 58.6244 194.544C51.9868 190.779 46.2872 185.561 41.9524 179.281C37.6176 173.001 34.7601 165.822 33.594 158.281C32.4279 150.739 32.9834 143.032 35.2189 135.736C37.4543 128.44 41.3118 121.745 46.5023 116.151C51.6928 110.558 58.0818 106.211 65.1906 103.437C72.2994 100.664 79.9438 99.5346 87.5509 100.135C95.1581 100.735 102.531 103.048 109.117 106.902C113.228 88.2253 124.092 71.7248 139.625 60.5684C155.158 49.4121 174.264 44.3863 193.276 46.4557C212.288 48.5252 229.865 57.5441 242.634 71.7811C255.403 86.018 262.463 104.47 262.459 123.594ZM160.93 209.804V229.439C160.93 229.521 160.958 229.602 160.963 229.685C160.958 229.796 160.93 229.905 160.93 230.017C160.93 241.606 179.718 251 202.895 251C226.071 251 244.861 241.606 244.861 230.017C244.861 229.905 244.829 229.796 244.826 229.685C244.829 229.602 244.861 229.521 244.861 229.439V209.716C234.4 215.888 219.431 219.608 202.893 219.608C186.257 219.608 171.358 215.976 160.93 209.804ZM244.86 170.067V189.835L243.588 191.618C238.98 198.081 223.525 204.62 202.893 204.62C182.069 204.62 167.391 198.14 162.573 192.115L160.93 190.06V170.067C160.93 158.478 179.718 149.084 202.895 149.084C226.071 149.084 244.86 158.478 244.86 170.067ZM226.875 170.067C226.875 165.1 216.138 161.074 202.895 161.074C189.65 161.074 178.915 165.1 178.915 170.067C178.915 175.033 189.65 179.059 202.895 179.059C216.138 179.059 226.875 175.033 226.875 170.067Z" fill="#022279"/>
</svg>
