<svg width="296" height="296" viewBox="0 0 296 296" fill="none" xmlns="http://www.w3.org/2000/svg">
<path d="M170.11 104.748C182.821 117.459 182.821 138.05 170.11 150.762C157.399 163.474 136.795 163.473 124.097 150.762C111.385 138.051 111.385 117.46 124.097 104.748C136.795 92.0371 157.399 92.0371 170.11 104.748Z" fill="#022279"/>
<path d="M194.794 219.75C194.794 195.83 184.898 175.011 170.26 164.215C164.368 170.207 156.173 173.923 147.078 173.923C138.145 173.923 130.076 170.332 124.208 164.502C109.796 175.362 100.062 196.017 100.062 219.75L194.794 219.75Z" fill="#022279"/>
<path d="M243.773 85.5333C256.484 98.2443 256.484 118.835 243.773 131.547C231.062 144.259 210.458 144.258 197.759 131.547C185.048 118.836 185.048 98.245 197.759 85.5333C210.458 72.8222 231.062 72.8222 243.773 85.5333Z" fill="#022279"/>
<path d="M243.924 144.996C238.032 150.989 229.837 154.704 220.742 154.704C211.809 154.704 203.74 151.114 197.872 145.284C192.492 149.35 187.751 154.767 183.935 161.197C193.768 170.33 200.937 184.255 203.402 200.495H268.421C268.458 176.6 258.561 155.78 243.924 144.996Z" fill="#022279"/>
<path d="M97.7379 85.5295C110.436 98.2406 110.436 118.844 97.7379 131.556C85.0269 144.254 64.423 144.254 51.7113 131.556C39.0131 118.845 39.0131 98.2412 51.7113 85.5295C64.4223 72.8313 85.0262 72.8313 97.7379 85.5295Z" fill="#022279"/>
<path d="M111.523 161.235C107.707 154.792 102.965 149.35 97.5855 145.321C91.6931 151.151 83.6235 154.741 74.716 154.741C65.6584 154.741 57.4513 151.026 51.5336 145.033C36.8962 155.83 27 176.648 27 200.569H92.0188C94.546 184.292 101.689 170.329 111.523 161.235Z" fill="#022279"/>
</svg>
