<svg width="296" height="296" viewBox="0 0 296 296" fill="none" xmlns="http://www.w3.org/2000/svg">
<path d="M214.615 68.276L158.936 123.955L172.111 137.13L227.79 81.4508L229.636 83.2968C230.611 84.2713 232.194 84.2713 233.169 83.2968L242.811 73.6547C242.895 73.5704 242.97 73.486 243.045 73.383L257.504 54.0986C258.253 53.1054 258.15 51.7092 257.269 50.8283L245.219 38.7781C244.338 37.8972 242.951 37.7942 241.949 38.5438L222.664 53.0022C222.571 53.0678 222.477 53.1521 222.393 53.2365L212.751 62.8785C211.776 63.8531 211.776 65.4366 212.751 66.4113L214.615 68.276Z" fill="#022279"/>
<path d="M137.179 172.062L124.004 158.887L119.272 163.619C116.386 161.258 111.869 161.379 109.199 164.05L104.804 168.445C101.862 165.99 97.4856 166.111 94.7308 168.876L42.8275 220.779C36.5399 227.066 36.5399 237.299 42.8275 243.596L52.4695 253.238C58.476 259.497 69.28 259.497 75.2864 253.238L127.19 201.335C129.945 198.58 130.066 194.204 127.621 191.261L132.015 186.867C134.77 184.112 134.892 179.736 132.446 176.794L137.179 172.062Z" fill="#022279"/>
<path d="M246.68 191.805C236.944 182.078 222.87 178.265 209.592 181.675L114.38 86.4708C122.298 56.6174 92.6221 29.705 63.6307 40.387C62.8248 40.6775 62.2251 41.3615 62.0377 42.1955C61.8503 43.0295 62.1033 43.9009 62.7124 44.5006L82.081 63.8692L76.7681 76.7348L63.4901 82.4226L44.3369 63.2695C43.7279 62.6604 42.8471 62.4074 42.0037 62.6042C41.1604 62.801 40.4857 63.41 40.2046 64.2346C29.9722 93.1141 57.0525 122.181 86.5138 114.339L181.725 209.55C175.138 233.501 194.441 258.378 219.123 257.995C223.358 257.995 227.65 257.301 231.829 255.868C232.645 255.586 233.263 254.912 233.46 254.068C233.657 253.225 233.404 252.354 232.795 251.735L213.641 232.582L219.329 219.304L232.195 213.991L251.563 233.36C252.163 233.96 253.044 234.213 253.869 234.034C254.703 233.847 255.387 233.247 255.677 232.442C260.784 218.33 257.251 202.391 246.682 191.81L246.68 191.805Z" fill="#022279"/>
</svg>
