<svg width="296" height="296" viewBox="0 0 296 296" fill="none" xmlns="http://www.w3.org/2000/svg">
<path d="M143.942 214.602C143.942 219.825 140.798 224.526 135.982 226.518C131.156 228.52 125.614 227.408 121.929 223.723C118.234 220.038 117.132 214.486 119.124 209.67C121.126 204.853 125.827 201.71 131.04 201.71C134.463 201.71 137.742 203.064 140.16 205.492C142.578 207.91 143.942 211.188 143.942 214.602ZM112.992 147.549C118.196 147.51 122.867 144.338 124.83 139.521C126.794 134.695 125.662 129.163 121.968 125.497C118.273 121.832 112.731 120.748 107.924 122.75C103.117 124.752 99.9934 129.443 99.9934 134.656C99.9838 138.148 101.406 141.494 103.91 143.922C106.425 146.349 109.81 147.665 113.302 147.548L112.992 147.549ZM45.0001 97.9232H251.336V232.863C251.278 243.037 243.038 251.278 232.863 251.335H63.4734C53.2987 251.277 45.0585 243.037 45.0006 232.863L45.0001 97.9232ZM149.203 214.602C149.203 207.213 144.735 200.549 137.906 197.725C131.069 194.901 123.205 196.487 117.992 201.729C112.779 206.972 111.241 214.844 114.095 221.663C116.957 228.481 123.65 232.911 131.04 232.863C141.089 232.805 149.203 224.651 149.203 214.602ZM198.413 134.55L189.331 143.728C188.828 144.222 188.538 144.889 188.538 145.585C188.538 146.291 188.828 146.959 189.331 147.442C189.824 147.936 190.491 148.197 191.188 148.168C191.874 148.177 192.542 147.916 193.045 147.442L202.223 138.264L211.305 147.442C211.808 147.916 212.475 148.177 213.162 148.168C213.858 148.197 214.525 147.936 215.019 147.442C215.522 146.959 215.812 146.291 215.812 145.585C215.812 144.889 215.522 144.222 215.019 143.728L205.937 134.55L215.019 125.372C216.044 124.346 216.044 122.683 215.019 121.658C213.994 120.633 212.33 120.633 211.305 121.658L202.223 130.836L193.045 121.658C192.019 120.633 190.356 120.633 189.331 121.658C188.306 122.683 188.306 124.346 189.331 125.372L198.413 134.55ZM184.379 184.175L175.297 174.997V174.987C174.224 173.982 172.56 173.982 171.486 174.987C170.983 175.481 170.693 176.148 170.693 176.844C170.693 177.55 170.983 178.218 171.486 178.701L180.665 187.88L171.486 196.962C170.732 197.745 170.529 198.896 170.954 199.882C171.38 200.879 172.366 201.517 173.44 201.507C174.136 201.507 174.794 201.256 175.297 200.782L184.379 191.604L193.557 200.782C194.621 201.73 196.217 201.73 197.271 200.782C198.287 199.708 198.287 198.035 197.271 196.961L188.189 187.88L197.271 178.701C198.296 177.676 198.296 176.013 197.271 174.987C196.246 173.962 194.582 173.962 193.557 174.987L184.379 184.175ZM170.655 134.859C159.455 136.426 149.193 141.988 141.765 150.518C134.337 159.048 130.237 169.968 130.217 181.284C130.217 182.764 131.416 183.963 132.896 183.963C134.386 183.963 135.585 182.764 135.585 181.284C135.488 171.235 139.066 161.505 145.634 153.912C152.21 146.311 161.321 141.368 171.272 140.014L168.487 143.419C167.868 144.221 167.742 145.305 168.187 146.223C168.622 147.142 169.541 147.732 170.556 147.751C171.35 147.781 172.104 147.432 172.617 146.823L179.425 138.573C180.422 137.538 180.422 135.894 179.425 134.859L171.176 128.05C170.131 127.054 168.497 127.054 167.462 128.05C166.465 129.085 166.465 130.729 167.462 131.764L170.655 134.859ZM95.0316 134.859H95.0413C95.1187 142.229 99.6258 148.816 106.454 151.582C113.282 154.348 121.097 152.733 126.281 147.491C131.465 142.258 132.983 134.415 130.15 127.616C127.306 120.816 120.662 116.397 113.301 116.397C108.446 116.368 103.784 118.283 100.351 121.706C96.9272 125.14 95.0123 129.801 95.0413 134.657L95.0316 134.859ZM97.3045 210.067H93.2811C91.8303 210.279 90.7858 211.595 90.9115 213.055C91.1146 214.38 92.2559 215.347 93.5905 215.328L103.91 213.983C104.587 213.829 105.197 213.471 105.661 212.958C105.912 212.33 105.912 211.624 105.661 210.995L104.22 200.675C104.171 199.969 103.833 199.321 103.282 198.876C102.74 198.422 102.034 198.219 101.328 198.306C99.8868 198.518 98.881 199.853 99.0647 201.294L99.5773 205.627C91.8303 199.244 86.6754 190.249 85.0794 180.335C83.4836 170.431 85.5533 160.276 90.9115 151.775C91.6852 150.556 91.3081 148.941 90.0894 148.168C88.8611 147.394 87.246 147.771 86.4723 148.99C80.5436 158.748 78.3772 170.335 80.3696 181.573C82.3619 192.812 88.3873 202.948 97.3045 210.067ZM251.336 63.4728V92.6618H45V63.4728C45.058 53.2982 53.2984 45.0579 63.4728 45H232.863C243.037 45.058 251.278 53.2984 251.336 63.4728ZM230.697 68.831C230.697 67.3513 229.497 66.1521 228.018 66.1521H174.582C173.141 66.2101 171.999 67.39 171.999 68.831C171.999 69.5177 172.27 70.1754 172.754 70.659C173.237 71.1426 173.895 71.4134 174.582 71.4134H227.505C228.279 71.5681 229.082 71.365 229.701 70.8718C230.32 70.3689 230.687 69.6241 230.697 68.831Z" fill="#022279"/>
</svg>
