<?xml version="1.0" encoding="UTF-8"?><svg id="Layer_1" xmlns="http://www.w3.org/2000/svg" viewBox="0 0 24 24"><path d="m6.88.15l6.57,6.51-6.76,6.7c.52.65,1.1,1.31,1.76,1.95.66.66,1.34,1.25,2,1.77.85-.84,1.71-1.69,2.57-2.54,1.11-1.09,2.21-2.19,3.28-3.25l.91-.9,6.53,6.48-6.63,6.57-.76-.26c-2.13-.74-6.04-2.41-9.72-6.06C2.95,13.47,1.27,9.59.52,7.47l-.27-.76L6.88.15Zm5.7,18.43c1.47.91,2.82,1.52,3.87,1.93l3.66-3.63-2.9-2.88c-.75.75-1.52,1.5-2.28,2.26l-.09.09c-.75.75-1.51,1.49-2.25,2.23Zm-7.39-7.32l4.63-4.59-2.94-2.91-3.66,3.63c.41,1.05,1.04,2.41,1.96,3.88Z" fill="#bababa" fill-rule="evenodd" stroke-width="0"/></svg>