<svg width="108" height="107" fill="none" xmlns="http://www.w3.org/2000/svg"><rect x="81.731" width="2.919" height="2.926" rx="1.344" fill="#fff"/><rect x="93.405" width="2.919" height="2.926" rx="1.344" fill="#fff"/><rect x="105.081" width="2.919" height="2.926" rx="1.344" fill="#fff"/><rect x="81.731" y="11.702" width="2.919" height="2.926" rx="1.344" fill="#fff"/><rect x="93.405" y="11.702" width="2.919" height="2.926" rx="1.344" fill="#fff"/><rect x="105.081" y="11.702" width="2.919" height="2.926" rx="1.344" fill="#fff"/><rect x="81.731" y="23.405" width="2.919" height="2.926" rx="1.344" fill="#fff"/><rect x="93.405" y="23.405" width="2.919" height="2.926" rx="1.344" fill="#fff"/><rect x="105.081" y="23.405" width="2.919" height="2.926" rx="1.344" fill="#fff"/><rect x="81.731" y="35.107" width="2.919" height="2.926" rx="1.344" fill="#fff"/><rect x="93.405" y="35.107" width="2.919" height="2.926" rx="1.344" fill="#fff"/><rect x="105.081" y="35.107" width="2.919" height="2.926" rx="1.344" fill="#fff"/><rect x="81.731" y="46.81" width="2.919" height="2.926" rx="1.344" fill="#fff"/><rect x="93.405" y="46.81" width="2.919" height="2.926" rx="1.344" fill="#fff"/><rect x="105.081" y="46.81" width="2.919" height="2.926" rx="1.344" fill="#fff"/><rect x="81.731" y="58.512" width="2.919" height="2.926" rx="1.344" fill="#fff"/><rect x="93.405" y="58.512" width="2.919" height="2.926" rx="1.344" fill="#fff"/><rect x="105.081" y="58.512" width="2.919" height="2.926" rx="1.344" fill="#fff"/><rect y="81.501" width="2.919" height="2.926" rx="1.344" fill="#fff"/><rect y="92.788" width="2.919" height="2.926" rx="1.344" fill="#fff"/><rect y="104.074" width="2.919" height="2.926" rx="1.344" fill="#fff"/><rect x="11.676" y="81.501" width="2.919" height="2.926" rx="1.344" fill="#fff"/><rect x="11.676" y="92.788" width="2.919" height="2.926" rx="1.344" fill="#fff"/><rect x="11.676" y="104.074" width="2.919" height="2.926" rx="1.344" fill="#fff"/><rect x="23.352" y="81.501" width="2.919" height="2.926" rx="1.344" fill="#fff"/><rect x="23.352" y="92.788" width="2.919" height="2.926" rx="1.344" fill="#fff"/><rect x="23.352" y="104.074" width="2.919" height="2.926" rx="1.344" fill="#fff"/><rect x="35.027" y="81.501" width="2.919" height="2.926" rx="1.344" fill="#fff"/><rect x="35.027" y="92.788" width="2.919" height="2.926" rx="1.344" fill="#fff"/><rect x="35.027" y="104.074" width="2.919" height="2.926" rx="1.344" fill="#fff"/><rect x="46.703" y="81.501" width="2.919" height="2.926" rx="1.344" fill="#fff"/><rect x="46.703" y="92.788" width="2.919" height="2.926" rx="1.344" fill="#fff"/><rect x="46.703" y="104.074" width="2.919" height="2.926" rx="1.344" fill="#fff"/><rect x="58.379" y="81.501" width="2.919" height="2.926" rx="1.344" fill="#fff"/><rect x="58.379" y="92.788" width="2.919" height="2.926" rx="1.344" fill="#fff"/><rect x="58.379" y="104.074" width="2.919" height="2.926" rx="1.344" fill="#fff"/><rect x="70.055" y="81.501" width="2.919" height="2.926" rx="1.344" fill="#fff"/><rect x="70.055" y="92.788" width="2.919" height="2.926" rx="1.344" fill="#fff"/><rect x="70.055" y="104.074" width="2.919" height="2.926" rx="1.344" fill="#fff"/><rect x="81.731" y="70.215" width="2.919" height="2.926" rx="1.344" fill="#fff"/><rect x="81.731" y="81.501" width="2.919" height="2.926" rx="1.344" fill="#fff"/><rect x="81.731" y="92.788" width="2.919" height="2.926" rx="1.344" fill="#fff"/><rect x="81.731" y="104.074" width="2.919" height="2.926" rx="1.344" fill="#fff"/><rect x="93.405" y="70.215" width="2.919" height="2.926" rx="1.344" fill="#fff"/><rect x="93.405" y="81.501" width="2.919" height="2.926" rx="1.344" fill="#fff"/><rect x="93.405" y="92.788" width="2.919" height="2.926" rx="1.344" fill="#fff"/><rect x="93.405" y="104.074" width="2.919" height="2.926" rx="1.344" fill="#fff"/><rect x="105.081" y="70.215" width="2.919" height="2.926" rx="1.344" fill="#fff"/><rect x="105.081" y="81.501" width="2.919" height="2.926" rx="1.344" fill="#fff"/><rect x="105.081" y="92.788" width="2.919" height="2.926" rx="1.344" fill="#fff"/><rect x="105.081" y="104.074" width="2.919" height="2.926" rx="1.344" fill="#fff"/></svg>